<!-- <svg xmlns="http://www.w3.org/2000/svg" width="7in" height="5in" viewBox="0 0 504 360">
-->
<svg xmlns="http://www.w3.org/2000/svg" width="7in" height="2in" viewBox="50 160 380 25" >
    <path d="M84.51,152.61,77,159.22q-3.94-5.49-8-5.49a4.85,4.85,0,0,0-3.26,1.07,3.1,3.1,0,0,0-1.26,2.4,4.14,4.14,0,0,0,.9,2.53,69.38,69.38,0,0,0,7.42,6.82q5.79,4.84,7,6.11a21.23,21.23,0,0,1,4.36,5.94,14.91,14.91,0,0,1,1.28,6.19,14.21,14.21,0,0,1-4.52,10.8q-4.52,4.26-11.78,4.26a17.54,17.54,0,0,1-9.89-2.78A22,22,0,0,1,52,188.33l8.5-5.13q3.84,7.05,8.83,7a6.52,6.52,0,0,0,4.38-1.51,4.52,4.52,0,0,0,1.77-3.51,6.08,6.08,0,0,0-1.34-3.61,38.75,38.75,0,0,0-5.9-5.52Q59.6,169,57.07,165.16a13.86,13.86,0,0,1-2.54-7.67A12.53,12.53,0,0,1,58.75,148a14.59,14.59,0,0,1,10.39-4,16.37,16.37,0,0,1,7.58,1.84A27.67,27.67,0,0,1,84.51,152.61Z"
          fill="#fff"/>
    <path d="M130.38,181.72H98.7a10.55,10.55,0,0,0,3.67,6.66,11.5,11.5,0,0,0,7.6,2.48,13.13,13.13,0,0,0,9.5-3.87l8.31,3.9a19.59,19.59,0,0,1-7.44,6.52,23.26,23.26,0,0,1-10.3,2.12q-9.24,0-15.06-5.84a19.88,19.88,0,0,1-5.81-14.61A20.5,20.5,0,0,1,95,164.15a19.46,19.46,0,0,1,14.53-5.94q9.28,0,15.1,5.94t5.81,15.69ZM120.52,174a9.86,9.86,0,0,0-3.86-5.35,11.16,11.16,0,0,0-6.67-2.06,11.83,11.83,0,0,0-7.24,2.31,12.93,12.93,0,0,0-3.61,5.1Z"
          fill="#fff"/>
    <path d="M135.36,159.22h9.86v4a23.65,23.65,0,0,1,6.08-3.94,14.78,14.78,0,0,1,5.57-1.1,13.51,13.51,0,0,1,9.92,4.08q3.42,3.47,3.42,10.26v26h-9.75v-17.2q0-7-.63-9.35a6.33,6.33,0,0,0-2.2-3.51,6.1,6.1,0,0,0-3.87-1.21,7.24,7.24,0,0,0-5.14,2,10.75,10.75,0,0,0-3,5.54,44.47,44.47,0,0,0-.43,8v15.76h-9.86Z"
          fill="#fff"/>
    <path d="M202.8,164.71l-6.1,6.1q-3.72-3.67-6.76-3.68a4.27,4.27,0,0,0-2.6.7,2.1,2.1,0,0,0-.34,3.22,11.38,11.38,0,0,0,2.94,1.82l3.62,1.81q5.7,2.82,7.83,5.74a12,12,0,0,1-1.71,15.6q-3.85,3.51-10.31,3.51a16.4,16.4,0,0,1-13.73-6.72l6.07-6.61a13.93,13.93,0,0,0,4.06,3.27,9,9,0,0,0,4.14,1.24,4.89,4.89,0,0,0,3.14-.94,2.71,2.71,0,0,0,1.19-2.16q0-2.28-4.3-4.44l-3.32-1.67q-9.54-4.8-9.53-12a10.44,10.44,0,0,1,3.59-8,13.07,13.07,0,0,1,9.19-3.3,15.94,15.94,0,0,1,12.93,6.5Z"
          fill="#fff"/>
    <path d="M258.2,154.72l-7.07,6.75q-7.22-7.64-16.24-7.63a17.78,17.78,0,0,0-18,18,19,19,0,0,0,2.31,9.44,16.59,16.59,0,0,0,6.53,6.47,19,19,0,0,0,9.38,2.35,19.28,19.28,0,0,0,8.05-1.65,28.91,28.91,0,0,0,8-6l6.86,7.15a37.73,37.73,0,0,1-11.13,8,30.35,30.35,0,0,1-12,2.22q-12.39,0-20.28-7.85t-7.89-20.14a27.51,27.51,0,0,1,3.59-14.12,26.73,26.73,0,0,1,10.29-9.93,29,29,0,0,1,14.43-3.76,30.66,30.66,0,0,1,23.15,10.67Z"
          fill="#cb9700"/>
    <path d="M279.42,158.21A20.87,20.87,0,0,1,289.88,161a20.08,20.08,0,0,1,7.64,7.55,20.28,20.28,0,0,1,2.74,10.29,20.62,20.62,0,0,1-2.76,10.4A19.91,19.91,0,0,1,290,196.8a20.78,20.78,0,0,1-10.51,2.73,19.62,19.62,0,0,1-14.43-6,20.82,20.82,0,0,1,.78-30A19.73,19.73,0,0,1,279.42,158.21Zm.17,9.28a10.17,10.17,0,0,0-7.66,3.2,11.37,11.37,0,0,0-3.05,8.18,11.5,11.5,0,0,0,3,8.3,10.09,10.09,0,0,0,7.65,3.18,10.25,10.25,0,0,0,7.71-3.21,12.69,12.69,0,0,0,.05-16.49A10.2,10.2,0,0,0,279.59,167.49Z"
          fill="#cb9700"/>
    <path d="M304.32,159.22h9.86v4a23.62,23.62,0,0,1,6.07-3.94,14.87,14.87,0,0,1,5.58-1.1,13.47,13.47,0,0,1,9.91,4.08q3.43,3.47,3.43,10.26v26h-9.75v-17.2q0-7-.63-9.35a6.38,6.38,0,0,0-2.2-3.51,6.14,6.14,0,0,0-3.87-1.21,7.24,7.24,0,0,0-5.14,2,10.68,10.68,0,0,0-3,5.54,44.47,44.47,0,0,0-.43,8v15.76h-9.86Z"
          fill="#cb9700"/>
    <path d="M343,159.22h3.5c0-5.15.11-8.2.26-9.14a7.51,7.51,0,0,1,2.72-5.14,10.16,10.16,0,0,1,6.59-1.9,20.54,20.54,0,0,1,6.94,1.41V152a13.17,13.17,0,0,0-3.51-.61,3.68,3.68,0,0,0-2.52.72,3.11,3.11,0,0,0-.58,2.24l0,4.91h6.25v8.34h-6.25v30.95h-9.86V167.56H343Z"
          fill="#cb9700"/>
    <path d="M372.25,143a6,6,0,0,1,4.44,1.88,6.23,6.23,0,0,1,1.86,4.55,6.13,6.13,0,0,1-1.84,4.49,6,6,0,0,1-4.39,1.86,6.08,6.08,0,0,1-4.49-1.89,6.38,6.38,0,0,1-1.85-4.61,6.28,6.28,0,0,1,6.27-6.28Zm-4.93,16.18h9.86v39.29h-9.86Z"
          fill="#cb9700"/>
    <path d="M413.17,159.22H423v33.66q0,10-4,14.66-5.39,6.36-16.22,6.36a28.55,28.55,0,0,1-9.72-1.44,17.48,17.48,0,0,1-6.64-4.25,17.2,17.2,0,0,1-4-6.81h10.87a8.87,8.87,0,0,0,3.72,2.51,15.3,15.3,0,0,0,5.38.85,14.29,14.29,0,0,0,6.39-1.22,7.4,7.4,0,0,0,3.42-3.18q1-2,1-6.72a16.39,16.39,0,0,1-5.45,3.74,17.32,17.32,0,0,1-6.47,1.13,17.77,17.77,0,0,1-13.36-5.7,20.06,20.06,0,0,1-5.45-14.45q0-9.35,5.77-15a17.26,17.26,0,0,1,12.5-5.13,16.64,16.64,0,0,1,6.41,1.24,20.51,20.51,0,0,1,6.05,4.1ZM403,167.42a10.26,10.26,0,0,0-7.69,3.12,10.81,10.81,0,0,0-3,7.86,11,11,0,0,0,3.11,8,10.49,10.49,0,0,0,7.8,3.14,10.09,10.09,0,0,0,7.57-3.07,11.08,11.08,0,0,0,3-8.05,10.93,10.93,0,0,0-3-8A10.33,10.33,0,0,0,403,167.42Z"
          fill="#cb9700"/>
</svg>