<?xml version="1.0" encoding="utf-8"?>
<!-- Generator: Adobe Illustrator 24.3.0, SVG Export Plug-In . SVG Version: 6.00 Build 0)  -->
<svg version="1.1" id="Logo" xmlns="http://www.w3.org/2000/svg" xmlns:xlink="http://www.w3.org/1999/xlink" x="0px" y="0px"
	 viewBox="0 0 446.74 158.67" style="enable-background:new 0 0 446.74 158.67;" xml:space="preserve">
<style type="text/css">
	.st0{fill:white;}
	.st1{fill:white;}
</style>
<g>
	<path class="st0" d="M181.19,25.58l-6.92,6.23c-2.43-3.45-4.9-5.17-7.42-5.17c-1.23,0-2.23,0.34-3.01,1
		c-0.78,0.67-1.17,1.42-1.17,2.26c0,0.84,0.28,1.63,0.84,2.38c0.76,1,3.04,3.14,6.85,6.43c3.56,3.04,5.72,4.96,6.48,5.75
		c1.89,1.95,3.23,3.82,4.03,5.6c0.79,1.78,1.19,3.73,1.19,5.84c0,4.11-1.39,7.5-4.17,10.18c-2.78,2.68-6.41,4.02-10.88,4.02
		c-3.49,0-6.54-0.87-9.13-2.62c-2.59-1.75-4.81-4.49-6.66-8.24l7.85-4.83c2.36,4.42,5.08,6.64,8.15,6.64c1.6,0,2.95-0.48,4.04-1.43
		c1.09-0.95,1.64-2.05,1.64-3.3c0-1.13-0.41-2.27-1.24-3.4c-0.82-1.13-2.64-2.87-5.45-5.21c-5.35-4.45-8.8-7.88-10.36-10.29
		c-1.56-2.42-2.34-4.83-2.34-7.23c0-3.47,1.3-6.45,3.89-8.93c2.59-2.48,5.79-3.73,9.6-3.73c2.45,0,4.78,0.58,7,1.74
		C176.21,20.4,178.61,22.51,181.19,25.58z"/>
	<path class="st0" d="M204.37,18.77h26.78v9.32h-17.51v9.05h17.51v9.15h-17.51v13.17h17.51v9.36h-26.78V18.77z"/>
	<path class="st0" d="M254.79,18.77h8.96l20.99,32.94V18.77h9.34v50.06h-8.98l-20.97-32.84v32.84h-9.34V18.77z"/>
	<path class="st0" d="M343.19,25.58l-6.92,6.23c-2.43-3.45-4.9-5.17-7.42-5.17c-1.23,0-2.23,0.34-3.01,1
		c-0.78,0.67-1.17,1.42-1.17,2.26c0,0.84,0.28,1.63,0.84,2.38c0.76,1,3.04,3.14,6.85,6.43c3.56,3.04,5.72,4.96,6.48,5.75
		c1.89,1.95,3.23,3.82,4.03,5.6c0.79,1.78,1.19,3.73,1.19,5.84c0,4.11-1.39,7.5-4.17,10.18c-2.78,2.68-6.41,4.02-10.88,4.02
		c-3.49,0-6.54-0.87-9.13-2.62c-2.59-1.75-4.81-4.49-6.66-8.24l7.85-4.83c2.36,4.42,5.08,6.64,8.15,6.64c1.6,0,2.95-0.48,4.04-1.43
		c1.09-0.95,1.64-2.05,1.64-3.3c0-1.13-0.41-2.27-1.24-3.4c-0.82-1.13-2.64-2.87-5.45-5.21c-5.35-4.45-8.8-7.88-10.36-10.29
		c-1.56-2.42-2.34-4.83-2.34-7.23c0-3.47,1.3-6.45,3.89-8.93c2.59-2.48,5.79-3.73,9.6-3.73c2.45,0,4.78,0.58,7,1.74
		C338.21,20.4,340.61,22.51,343.19,25.58z"/>
	<path class="st0" d="M359.68,18.77h10.03l9.15,18.01l9.11-18.01h9.9l-14.36,28.38v21.68h-9.4V47.15L359.68,18.77z"/>
	<path class="st0" d="M437.75,25.58l-6.92,6.23c-2.43-3.45-4.9-5.17-7.42-5.17c-1.23,0-2.23,0.34-3.01,1
		c-0.78,0.67-1.17,1.42-1.17,2.26c0,0.84,0.28,1.63,0.84,2.38c0.76,1,3.04,3.14,6.85,6.43c3.56,3.04,5.72,4.96,6.48,5.75
		c1.89,1.95,3.23,3.82,4.03,5.6c0.79,1.78,1.19,3.73,1.19,5.84c0,4.11-1.39,7.5-4.17,10.18c-2.78,2.68-6.41,4.02-10.88,4.02
		c-3.49,0-6.54-0.87-9.13-2.62c-2.59-1.75-4.81-4.49-6.66-8.24l7.85-4.83c2.36,4.42,5.08,6.64,8.15,6.64c1.6,0,2.95-0.48,4.04-1.43
		c1.09-0.95,1.64-2.05,1.64-3.3c0-1.13-0.41-2.27-1.24-3.4c-0.82-1.13-2.64-2.87-5.45-5.21c-5.35-4.45-8.8-7.88-10.36-10.29
		c-1.56-2.42-2.34-4.83-2.34-7.23c0-3.47,1.3-6.45,3.89-8.93c2.59-2.48,5.79-3.73,9.6-3.73c2.45,0,4.78,0.58,7,1.74
		C432.77,20.4,435.17,22.51,437.75,25.58z"/>
</g>
<g>
	<path class="st0" d="M154.07,83.76h3.79v5.39c1.52-2.06,3.2-3.61,5.04-4.63c1.84-1.02,3.85-1.53,6.01-1.53
		c2.2,0,4.16,0.57,5.86,1.71c1.71,1.14,2.97,2.68,3.78,4.61c0.81,1.93,1.22,4.95,1.22,9.04v15.47h-3.79V99.49
		c0-3.46-0.14-5.78-0.42-6.94c-0.44-1.99-1.28-3.49-2.53-4.49c-1.25-1-2.87-1.51-4.88-1.51c-2.29,0-4.35,0.77-6.16,2.32
		c-1.81,1.55-3.01,3.46-3.59,5.75c-0.36,1.49-0.54,4.22-0.54,8.18v11.03h-3.79V83.76z"/>
	<path class="st0" d="M218.38,103.85l3.19,1.71c-1.05,2.1-2.26,3.8-3.63,5.08c-1.37,1.29-2.92,2.27-4.64,2.94
		c-1.72,0.67-3.66,1.01-5.83,1.01c-4.81,0-8.57-1.61-11.28-4.82c-2.71-3.21-4.07-6.85-4.07-10.9c0-3.81,1.15-7.21,3.44-10.2
		c2.91-3.79,6.8-5.69,11.68-5.69c5.02,0,9.03,1.94,12.03,5.83c2.13,2.75,3.22,6.17,3.25,10.28h-26.51c0.07,3.49,1.17,6.36,3.28,8.59
		c2.11,2.23,4.73,3.35,7.84,3.35c1.5,0,2.96-0.27,4.38-0.8c1.42-0.53,2.63-1.24,3.62-2.12
		C216.15,107.24,217.23,105.82,218.38,103.85z M218.38,95.76c-0.51-2.06-1.24-3.71-2.21-4.95c-0.97-1.23-2.25-2.23-3.84-2.98
		c-1.59-0.76-3.26-1.13-5.02-1.13c-2.89,0-5.38,0.95-7.46,2.85c-1.52,1.38-2.67,3.45-3.44,6.22H218.38z"/>
	<path class="st0" d="M237.95,72.6h3.79v11.16h6.01v3.34h-6.01v26.72h-3.79V87.11h-5.17v-3.34h5.17V72.6z"/>
	<path class="st0" d="M259.32,83.76h3.9l9.03,21.83l9.4-21.83h0.69l9.46,21.83l9.21-21.83h3.94l-12.8,30.07h-0.7l-9.42-21.53
		l-9.42,21.53h-0.71L259.32,83.76z"/>
	<path class="st0" d="M328.91,82.99c4.54,0,8.3,1.68,11.29,5.03c2.71,3.06,4.07,6.68,4.07,10.86c0,4.2-1.43,7.87-4.3,11.01
		c-2.87,3.14-6.55,4.71-11.06,4.71c-4.52,0-8.22-1.57-11.08-4.71c-2.87-3.14-4.3-6.81-4.3-11.01c0-4.16,1.36-7.77,4.07-10.83
		C320.58,84.67,324.35,82.99,328.91,82.99z M328.9,86.77c-3.15,0-5.86,1.19-8.13,3.56c-2.26,2.38-3.4,5.25-3.4,8.62
		c0,2.17,0.52,4.2,1.55,6.08c1.03,1.88,2.43,3.33,4.19,4.35c1.76,1.02,3.69,1.53,5.79,1.53c2.1,0,4.03-0.51,5.79-1.53
		c1.76-1.02,3.15-2.47,4.19-4.35c1.03-1.88,1.55-3.91,1.55-6.08c0-3.37-1.14-6.25-3.41-8.62C334.73,87.96,332.03,86.77,328.9,86.77z
		"/>
	<path class="st0" d="M357.47,83.76h3.87v4.39c1.16-1.73,2.37-3.03,3.66-3.88c1.28-0.86,2.62-1.28,4.01-1.28
		c1.05,0,2.17,0.34,3.36,1.02l-1.98,3.26c-0.79-0.35-1.46-0.53-2-0.53c-1.26,0-2.48,0.53-3.66,1.59c-1.17,1.06-2.07,2.7-2.68,4.93
		c-0.47,1.71-0.7,5.18-0.7,10.39v10.17h-3.87V83.76z"/>
	<path class="st0" d="M384.63,72.16h3.79V95.9l13.66-12.13h5.57L391.45,98.1l17.14,15.72h-5.34l-14.84-13.54v13.54h-3.79V72.16z"/>
	<path class="st0" d="M436.38,87.05l-2.44,2.57c-2.03-2.01-4.01-3.01-5.95-3.01c-1.23,0-2.29,0.41-3.16,1.24
		c-0.88,0.83-1.32,1.8-1.32,2.9c0,0.98,0.36,1.91,1.09,2.79c0.72,0.9,2.24,1.96,4.56,3.18c2.82,1.49,4.74,2.93,5.75,4.31
		c1,1.4,1.49,2.98,1.49,4.73c0,2.47-0.85,4.56-2.55,6.27c-1.7,1.71-3.82,2.57-6.37,2.57c-1.7,0-3.32-0.38-4.87-1.13
		c-1.55-0.76-2.83-1.8-3.84-3.12l2.38-2.76c1.94,2.23,3.99,3.34,6.16,3.34c1.52,0,2.81-0.5,3.88-1.49c1.07-0.99,1.6-2.16,1.6-3.51
		c0-1.11-0.35-2.09-1.06-2.96c-0.71-0.85-2.3-1.92-4.78-3.21c-2.66-1.4-4.47-2.78-5.43-4.14c-0.96-1.36-1.44-2.92-1.44-4.67
		c0-2.28,0.76-4.18,2.29-5.69c1.53-1.51,3.46-2.27,5.79-2.27C430.9,82.99,433.63,84.34,436.38,87.05z"/>
</g>
<g id="Layer_2_2_">
	<g>
		<path class="st0" d="M69.14,144.38c-34.94,0-63.34-28.81-63.34-63.74c0-34.94,28.4-62.98,63.34-62.98
			c34.94,0,63.38,28.04,63.38,62.98C132.52,115.57,104.08,144.38,69.14,144.38z M69.14,23.14c-31.91,0-57.85,25.58-57.85,57.49
			c0,31.91,25.94,58.26,57.85,58.26s57.89-26.35,57.89-58.26C127.03,48.72,101.05,23.14,69.14,23.14z"/>
	</g>
	<g>
		<path class="st0" d="M55.09,102.11c4.88-4.26,8.21-11.61,7.46-18.1c-0.67-5.88-3.69-11.69-2.68-17.7
			c1.43-8.59,9-14.63,16.57-17.75c-2.26-0.5-4.88-0.64-7.3-0.64c-17.93,0-32.48,14.77-32.48,32.7c0,10.29,4.78,19.2,12.25,25.15
			C48.97,105.84,53.42,103.57,55.09,102.11z"/>
		<path class="st0" d="M85.22,52.18c-1.47,0.45-2.92,1-4.33,1.62c-12.06,5.37-9.54,11.2-6.09,25.5c1.41,5.83,1.8,9.7-0.85,15.81
			c-2.7,6.24-10.1,11.65-18.43,14.75c4.14,1.91,8.75,2.99,13.61,2.99c17.93,0,32.45-14.3,32.45-32.23
			C101.59,68.56,95,57.78,85.22,52.18z"/>
		<path class="st0" d="M69.14,26.77c-29.55,0-53.61,24.31-53.61,53.86c0,29.55,24.06,53.33,53.61,53.33
			c29.55,0,53.58-23.78,53.58-53.33C122.72,51.08,98.69,26.77,69.14,26.77z M69.14,131.28c-15.1,0-28.7-6.61-38.03-17.09
			c8.73,1.04,18.92-2.26,24.42-4.32c-2.38-1.1-4.6-2.47-6.62-4.09c-6.47,2.5-14.98,3.5-22.06,2.93c-5.45-8.11-8.64-17.59-8.64-28.08
			c0-28.07,22.85-51.18,50.93-51.18c13.87,0,26.45,5.58,35.64,14.61c-10.17-1.13-21.16,1.68-28.34,4.51c-0.19,0.07,0.19-0.08,0,0
			c3.23,0.71,6,2.02,8.78,3.62c7.49-2.29,17.17-3.87,24.1-3.03c6.71,8.63,10.72,19.72,10.72,31.48
			C120.04,108.71,97.21,131.28,69.14,131.28z"/>
	</g>
</g>
<g>
	<path class="st1" d="M429.2,144.57c0,0.21,0.18,0.39,0.38,0.39h1.01c0.2,0,0.38-0.18,0.38-0.39v-6.99l5.42-10.28
		c0.07-0.15-0.03-0.34-0.23-0.34h-1.23c-0.23,0-0.45,0.13-0.55,0.34l-2.32,4.65l-1.89,4.14l-1.96-4.14L426,127.3
		c-0.13-0.21-0.35-0.34-0.58-0.34h-1.23c-0.18,0-0.28,0.18-0.2,0.34l5.21,10.28V144.57z M409.33,129.56
		c2.24,4.47,5.44,9.56,8.59,15.06c0.13,0.21,0.35,0.33,0.58,0.33h1.08c0.23,0,0.4-0.18,0.4-0.39v-17.22c0-0.21-0.18-0.39-0.4-0.39
		h-0.88c-0.23,0-0.4,0.18-0.4,0.39v8.33l0.1,6.66c-2.22-4.44-5.62-10-8.57-15.03c-0.13-0.21-0.35-0.34-0.6-0.34h-1.16
		c-0.2,0-0.38,0.18-0.38,0.39v17.22c0,0.21,0.18,0.39,0.38,0.39H409c0.2,0,0.4-0.18,0.4-0.39v-8.45L409.33,129.56z M396.48,128.66
		h0.05l0.91,3.21l1.81,5.82h-5.49l1.76-5.82L396.48,128.66z M403.03,144.95c0.2,0,0.33-0.18,0.25-0.36l-5.64-17.27
		c-0.08-0.21-0.28-0.36-0.5-0.36h-1.21c-0.25,0-0.45,0.15-0.53,0.36l-5.62,17.27c-0.08,0.18,0.08,0.36,0.25,0.36h1.06
		c0.23,0,0.43-0.13,0.53-0.36c0.38-1.28,1.66-5.24,1.71-5.42h6.32l1.74,5.42c0.08,0.21,0.28,0.36,0.5,0.36H403.03z M382.02,135.99
		c-0.7,0-1.39-0.08-1.97-0.18v-7.33c0.5-0.08,1.28-0.1,2.22-0.1c3,0,4.59,0.98,4.59,3.68C386.86,134.83,385.07,135.99,382.02,135.99
		 M380.06,137.32c0.73,0.13,1.79,0.13,2.62,0.13c3.55,0,5.99-1.9,5.99-5.47c0-3.29-2.24-5.09-5.87-5.09c-1.54,0-2.87,0.05-4.1,0.18
		c-0.2,0.02-0.38,0.23-0.38,0.46v17.04c0,0.21,0.18,0.39,0.38,0.39h0.96c0.2,0,0.4-0.18,0.4-0.39V137.32z M358.73,129.43l4.99,15.16
		c0.08,0.21,0.28,0.36,0.5,0.36h0.76c0.23,0,0.43-0.15,0.5-0.36l5.06-15.16l0.25,7.71l0.28,7.43c0.03,0.21,0.2,0.39,0.4,0.39h0.96
		c0.2,0,0.4-0.18,0.35-0.39l-0.71-17.22c-0.02-0.21-0.2-0.39-0.43-0.39h-1.46c-0.23,0-0.43,0.15-0.53,0.36l-3.17,9.3l-1.84,5.83
		l-1.87-5.83l-3.17-9.3c-0.08-0.21-0.3-0.36-0.53-0.36h-1.46c-0.2,0-0.4,0.18-0.43,0.39l-0.73,17.22c-0.03,0.21,0.15,0.39,0.35,0.39
		h0.91c0.2,0,0.38-0.18,0.4-0.39l0.33-7.43L358.73,129.43z M350.55,136.04c0,3.96-1.74,7.71-5.59,7.71c-3.86,0-5.59-3.73-5.59-7.69
		c0-4.06,1.56-7.89,5.59-7.89C348.99,128.17,350.55,132.03,350.55,136.04 M337.51,136.09c0,5.37,2.89,9.15,7.45,9.15
		c4.58,0,7.43-3.72,7.43-9.17c0-5.5-2.82-9.38-7.43-9.38C340.38,126.68,337.51,130.54,337.51,136.09 M330.45,143.7
		c-4.15,0-6.37-3.21-6.37-7.66c0-4.65,2.34-7.82,6.47-7.82c1.31,0,2.52,0.23,3.48,0.62c0.23,0.05,0.43-0.05,0.45-0.26l0.15-0.72
		c0.05-0.21-0.08-0.46-0.28-0.54c-0.78-0.31-2.07-0.62-3.83-0.62c-5.29,0-8.28,4.08-8.28,9.38c0,5.66,3.22,9.12,7.96,9.12
		c1.69,0,3.17-0.28,4.16-0.64c0.2-0.08,0.33-0.33,0.3-0.54l-0.13-0.74c-0.05-0.21-0.23-0.31-0.45-0.23
		C333.1,143.47,331.74,143.7,330.45,143.7 M301.21,135.52v-7.05c0.5-0.08,1.28-0.15,2.24-0.15c2.97,0,4.56,0.9,4.56,3.6
		c0,2.19-1.44,3.6-3.88,3.6H301.21z M306.17,136.52c2.19-0.59,3.65-2.26,3.65-4.76c0-3.03-1.94-4.88-5.84-4.88
		c-1.36,0-2.85,0.05-4.13,0.18c-0.2,0.02-0.38,0.23-0.38,0.46v17.04c0,0.21,0.18,0.39,0.38,0.39h0.96c0.2,0,0.4-0.18,0.4-0.39v-7.61
		h3.3l3.73,7.66c0.13,0.21,0.35,0.33,0.58,0.33h1.16c0.18,0,0.28-0.18,0.2-0.33L306.17,136.52z M293.95,128.48
		c0.2,0,0.43-0.18,0.43-0.39l0.08-0.74c0-0.2-0.15-0.38-0.38-0.38h-8.31c-0.2,0-0.38,0.18-0.38,0.38v17.22
		c0,0.21,0.18,0.38,0.38,0.38h8.56c0.2,0,0.4-0.18,0.4-0.38l0.08-0.72c0-0.21-0.15-0.38-0.35-0.38h-7.3v-7.1h6.17
		c0.2,0,0.4-0.18,0.4-0.39l0.08-0.72c0-0.21-0.15-0.41-0.35-0.41h-6.3v-6.38H293.95z M269.45,128.09c-0.03,0.21,0.15,0.39,0.35,0.39
		h4.76v16.09c0,0.21,0.18,0.39,0.38,0.39h1.01c0.23,0,0.4-0.18,0.4-0.39v-16.09h4.63c0.2,0,0.43-0.18,0.43-0.39l0.08-0.74
		c0-0.2-0.15-0.38-0.38-0.38h-11.18c-0.23,0-0.4,0.18-0.43,0.38L269.45,128.09z M264.41,140.43c0,2.03-1.49,3.29-3.76,3.29
		c-1.34,0-2.7-0.34-3.78-0.88c-0.18-0.1-0.4,0-0.43,0.21l-0.18,0.77c-0.05,0.21,0.08,0.46,0.25,0.54c1.06,0.51,2.62,0.85,4.03,0.85
		c3.58,0,5.67-2.08,5.67-4.93c0-6.09-7.91-4.5-7.91-9.15c0-1.49,1.16-2.93,3.33-2.93c1.36,0,2.47,0.31,3.3,0.69
		c0.2,0.08,0.4-0.03,0.45-0.23l0.18-0.77c0.03-0.21-0.08-0.46-0.28-0.54c-0.9-0.33-2.11-0.64-3.55-0.64c-2.87,0-5.21,1.74-5.21,4.57
		C256.53,137.17,264.41,135.42,264.41,140.43 M246.2,128.66h0.05l0.91,3.21l1.81,5.82h-5.49l1.76-5.82L246.2,128.66z M252.75,144.95
		c0.2,0,0.33-0.18,0.25-0.36l-5.64-17.27c-0.08-0.21-0.28-0.36-0.5-0.36h-1.21c-0.25,0-0.45,0.15-0.53,0.36l-5.62,17.27
		c-0.08,0.18,0.08,0.36,0.25,0.36h1.06c0.23,0,0.43-0.13,0.53-0.36c0.38-1.28,1.66-5.24,1.71-5.42h6.32l1.74,5.42
		c0.08,0.21,0.28,0.36,0.5,0.36H252.75z M221.39,129.43l4.99,15.16c0.08,0.21,0.28,0.36,0.51,0.36h0.75c0.23,0,0.43-0.15,0.5-0.36
		l5.06-15.16l0.25,7.71l0.28,7.43c0.03,0.21,0.2,0.39,0.4,0.39h0.96c0.2,0,0.4-0.18,0.35-0.39l-0.7-17.22
		c-0.02-0.21-0.2-0.39-0.43-0.39h-1.46c-0.23,0-0.43,0.15-0.53,0.36l-3.17,9.3l-1.84,5.83l-1.87-5.83l-3.17-9.3
		c-0.08-0.21-0.3-0.36-0.53-0.36h-1.46c-0.2,0-0.4,0.18-0.43,0.39l-0.73,17.22c-0.03,0.21,0.15,0.39,0.35,0.39h0.91
		c0.2,0,0.38-0.18,0.4-0.39l0.33-7.43L221.39,129.43z M209.3,136.12c-0.2,0-0.4,0.18-0.4,0.38l-0.08,0.74
		c0,0.21,0.15,0.38,0.35,0.38h3.2v5.56c-0.73,0.31-1.69,0.49-3.12,0.49c-4.11,0-6.47-3.14-6.47-7.68c0-4.5,2.39-7.69,6.6-7.69
		c1.46,0,2.62,0.23,3.65,0.62c0.18,0.08,0.38-0.03,0.43-0.23l0.15-0.77c0.05-0.21-0.08-0.46-0.28-0.51
		c-0.93-0.34-2.29-0.64-3.9-0.64c-5.57,0-8.49,4.19-8.49,9.28c0,5.86,3.37,9.12,8.16,9.12c1.94,0,3.55-0.36,4.63-0.77
		c0.23-0.08,0.38-0.28,0.38-0.51v-7.38c0-0.21-0.18-0.38-0.4-0.38H209.3z M191.72,128.66h0.05l0.91,3.21l1.81,5.82H189l1.76-5.82
		L191.72,128.66z M198.27,144.95c0.2,0,0.33-0.18,0.25-0.36l-5.64-17.27c-0.08-0.21-0.28-0.36-0.5-0.36h-1.21
		c-0.25,0-0.45,0.15-0.53,0.36l-5.62,17.27c-0.08,0.18,0.08,0.36,0.25,0.36h1.06c0.23,0,0.43-0.13,0.53-0.36
		c0.38-1.28,1.66-5.24,1.71-5.42h6.32l1.74,5.42c0.08,0.21,0.28,0.36,0.5,0.36H198.27z M172.43,128.09
		c-0.03,0.21,0.15,0.39,0.35,0.39h4.76v16.09c0,0.21,0.18,0.39,0.38,0.39h1.01c0.23,0,0.4-0.18,0.4-0.39v-16.09h4.63
		c0.2,0,0.43-0.18,0.43-0.39l0.08-0.74c0-0.2-0.15-0.38-0.38-0.38h-11.18c-0.23,0-0.4,0.18-0.43,0.38L172.43,128.09z M156.78,128.66
		h0.05l0.91,3.21l1.81,5.82h-5.49l1.76-5.82L156.78,128.66z M163.33,144.95c0.2,0,0.33-0.18,0.25-0.36l-5.64-17.27
		c-0.08-0.21-0.28-0.36-0.5-0.36h-1.21c-0.25,0-0.45,0.15-0.53,0.36l-5.62,17.27c-0.08,0.18,0.08,0.36,0.25,0.36h1.06
		c0.23,0,0.43-0.13,0.53-0.36c0.38-1.28,1.66-5.24,1.71-5.42h6.32l1.74,5.42c0.08,0.21,0.28,0.36,0.5,0.36H163.33z"/>
</g>
</svg>
