<?xml version="1.0" encoding="utf-8"?>
<!-- Generator: Adobe Illustrator 24.0.2, SVG Export Plug-In . SVG Version: 6.00 Build 0)  -->
<svg version="1.1" id="Layer_1" xmlns="http://www.w3.org/2000/svg" xmlns:xlink="http://www.w3.org/1999/xlink" x="0px" y="0px"
	 viewBox="0 0 1110 1110" style="enable-background:new 0 0 1110 1110;" xml:space="preserve">
<style type="text/css">
	.st0{fill:none;stroke:#231F20;stroke-miterlimit:10;}
</style>
<path class="st0" d="M0.04,519h499.02c11.05,0,20-8.95,20-20V-0.08"/>
<path class="st0" d="M0.04,591h499.02c11.05,0,20,8.95,20,20v498.88"/>
<polyline class="st0" points="501.31,591 501.31,555 -0.21,555 "/>
<g>
	<line class="st0" x1="806.75" y1="573.06" x2="790.75" y2="573.06"/>
	<line class="st0" x1="776.42" y1="573.06" x2="760.42" y2="573.06"/>
	<line class="st0" x1="746.08" y1="573.06" x2="730.08" y2="573.06"/>
	<line class="st0" x1="715.75" y1="573.06" x2="699.75" y2="573.06"/>
	<line class="st0" x1="685.42" y1="573.06" x2="669.42" y2="573.06"/>
	<line class="st0" x1="655.08" y1="573.06" x2="639.08" y2="573.06"/>
	<line class="st0" x1="624.75" y1="573.06" x2="608.75" y2="573.06"/>
	<line class="st0" x1="715.75" y1="537.06" x2="699.75" y2="537.06"/>
	<line class="st0" x1="685.42" y1="537.06" x2="669.42" y2="537.06"/>
	<line class="st0" x1="655.08" y1="537.06" x2="639.08" y2="537.06"/>
	<line class="st0" x1="624.75" y1="537.06" x2="608.75" y2="537.06"/>
	<line class="st0" x1="806.75" y1="537.06" x2="790.75" y2="537.06"/>
	<line class="st0" x1="776.42" y1="537.06" x2="760.42" y2="537.06"/>
	<line class="st0" x1="746.08" y1="537.06" x2="730.08" y2="537.06"/>
	<line class="st0" x1="988.75" y1="573.06" x2="972.75" y2="573.06"/>
	<line class="st0" x1="958.42" y1="573.06" x2="942.42" y2="573.06"/>
	<line class="st0" x1="928.08" y1="573.06" x2="912.08" y2="573.06"/>
	<line class="st0" x1="897.75" y1="573.06" x2="881.75" y2="573.06"/>
	<line class="st0" x1="867.42" y1="573.06" x2="851.42" y2="573.06"/>
	<line class="st0" x1="837.08" y1="573.06" x2="821.08" y2="573.06"/>
	<line class="st0" x1="897.75" y1="537.06" x2="881.75" y2="537.06"/>
	<line class="st0" x1="867.42" y1="537.06" x2="851.42" y2="537.06"/>
	<line class="st0" x1="837.08" y1="537.06" x2="821.08" y2="537.06"/>
	<line class="st0" x1="988.75" y1="537.06" x2="972.75" y2="537.06"/>
	<line class="st0" x1="958.42" y1="537.06" x2="942.42" y2="537.06"/>
	<line class="st0" x1="928.08" y1="537.06" x2="912.08" y2="537.06"/>
	<line class="st0" x1="1110.08" y1="573.06" x2="1094.08" y2="573.06"/>
	<line class="st0" x1="1079.75" y1="573.06" x2="1063.75" y2="573.06"/>
	<line class="st0" x1="1049.42" y1="573.06" x2="1033.42" y2="573.06"/>
	<line class="st0" x1="1019.08" y1="573.06" x2="1003.08" y2="573.06"/>
	<line class="st0" x1="1049.42" y1="537.06" x2="1033.42" y2="537.06"/>
	<line class="st0" x1="1019.08" y1="537.06" x2="1003.08" y2="537.06"/>
	<line class="st0" x1="1110.08" y1="537.06" x2="1094.08" y2="537.06"/>
	<line class="st0" x1="1079.75" y1="537.06" x2="1063.75" y2="537.06"/>
</g>
<g>
	<line class="st0" x1="573.06" y1="303.25" x2="573.06" y2="319.25"/>
	<line class="st0" x1="573.06" y1="333.58" x2="573.06" y2="349.58"/>
	<line class="st0" x1="573.06" y1="363.92" x2="573.06" y2="379.92"/>
	<line class="st0" x1="573.06" y1="394.25" x2="573.06" y2="410.25"/>
	<line class="st0" x1="573.06" y1="424.58" x2="573.06" y2="440.58"/>
	<line class="st0" x1="573.06" y1="454.92" x2="573.06" y2="470.92"/>
	<line class="st0" x1="573.06" y1="485.25" x2="573.06" y2="501.25"/>
	<line class="st0" x1="537.06" y1="394.25" x2="537.06" y2="410.25"/>
	<line class="st0" x1="537.06" y1="424.58" x2="537.06" y2="440.58"/>
	<line class="st0" x1="537.06" y1="454.92" x2="537.06" y2="470.92"/>
	<line class="st0" x1="537.06" y1="485.25" x2="537.06" y2="501.25"/>
	<line class="st0" x1="537.06" y1="303.25" x2="537.06" y2="319.25"/>
	<line class="st0" x1="537.06" y1="333.58" x2="537.06" y2="349.58"/>
	<line class="st0" x1="537.06" y1="363.92" x2="537.06" y2="379.92"/>
	<line class="st0" x1="573.06" y1="121.25" x2="573.06" y2="137.25"/>
	<line class="st0" x1="573.06" y1="151.58" x2="573.06" y2="167.58"/>
	<line class="st0" x1="573.06" y1="181.92" x2="573.06" y2="197.92"/>
	<line class="st0" x1="573.06" y1="212.25" x2="573.06" y2="228.25"/>
	<line class="st0" x1="573.06" y1="242.58" x2="573.06" y2="258.58"/>
	<line class="st0" x1="573.06" y1="272.92" x2="573.06" y2="288.92"/>
	<line class="st0" x1="537.06" y1="212.25" x2="537.06" y2="228.25"/>
	<line class="st0" x1="537.06" y1="242.58" x2="537.06" y2="258.58"/>
	<line class="st0" x1="537.06" y1="272.92" x2="537.06" y2="288.92"/>
	<line class="st0" x1="537.06" y1="121.25" x2="537.06" y2="137.25"/>
	<line class="st0" x1="537.06" y1="151.58" x2="537.06" y2="167.58"/>
	<line class="st0" x1="537.06" y1="181.92" x2="537.06" y2="197.92"/>
	<line class="st0" x1="573.06" y1="-0.08" x2="573.06" y2="15.92"/>
	<line class="st0" x1="573.06" y1="30.25" x2="573.06" y2="46.25"/>
	<line class="st0" x1="573.06" y1="60.58" x2="573.06" y2="76.58"/>
	<line class="st0" x1="573.06" y1="90.92" x2="573.06" y2="106.92"/>
	<line class="st0" x1="537.06" y1="60.58" x2="537.06" y2="76.58"/>
	<line class="st0" x1="537.06" y1="90.92" x2="537.06" y2="106.92"/>
	<line class="st0" x1="537.06" y1="-0.08" x2="537.06" y2="15.92"/>
	<line class="st0" x1="537.06" y1="30.25" x2="537.06" y2="46.25"/>
</g>
<g>
	<line class="st0" x1="303.25" y1="536.94" x2="319.25" y2="536.94"/>
	<line class="st0" x1="333.58" y1="536.94" x2="349.58" y2="536.94"/>
	<line class="st0" x1="363.92" y1="536.94" x2="379.92" y2="536.94"/>
	<line class="st0" x1="394.25" y1="536.94" x2="410.25" y2="536.94"/>
	<line class="st0" x1="424.58" y1="536.94" x2="440.58" y2="536.94"/>
	<line class="st0" x1="454.92" y1="536.94" x2="470.92" y2="536.94"/>
	<line class="st0" x1="485.25" y1="536.94" x2="501.25" y2="536.94"/>
	<line class="st0" x1="394.25" y1="572.94" x2="410.25" y2="572.94"/>
	<line class="st0" x1="424.58" y1="572.94" x2="440.58" y2="572.94"/>
	<line class="st0" x1="454.92" y1="572.94" x2="470.92" y2="572.94"/>
	<line class="st0" x1="485.25" y1="572.94" x2="501.25" y2="572.94"/>
	<line class="st0" x1="303.25" y1="572.94" x2="319.25" y2="572.94"/>
	<line class="st0" x1="333.58" y1="572.94" x2="349.58" y2="572.94"/>
	<line class="st0" x1="363.92" y1="572.94" x2="379.92" y2="572.94"/>
	<line class="st0" x1="121.25" y1="536.94" x2="137.25" y2="536.94"/>
	<line class="st0" x1="151.58" y1="536.94" x2="167.58" y2="536.94"/>
	<line class="st0" x1="181.92" y1="536.94" x2="197.92" y2="536.94"/>
	<line class="st0" x1="212.25" y1="536.94" x2="228.25" y2="536.94"/>
	<line class="st0" x1="242.58" y1="536.94" x2="258.58" y2="536.94"/>
	<line class="st0" x1="272.92" y1="536.94" x2="288.92" y2="536.94"/>
	<line class="st0" x1="212.25" y1="572.94" x2="228.25" y2="572.94"/>
	<line class="st0" x1="242.58" y1="572.94" x2="258.58" y2="572.94"/>
	<line class="st0" x1="272.92" y1="572.94" x2="288.92" y2="572.94"/>
	<line class="st0" x1="121.25" y1="572.94" x2="137.25" y2="572.94"/>
	<line class="st0" x1="151.58" y1="572.94" x2="167.58" y2="572.94"/>
	<line class="st0" x1="181.92" y1="572.94" x2="197.92" y2="572.94"/>
	<line class="st0" x1="-0.08" y1="536.94" x2="15.92" y2="536.94"/>
	<line class="st0" x1="30.25" y1="536.94" x2="46.25" y2="536.94"/>
	<line class="st0" x1="60.58" y1="536.94" x2="76.58" y2="536.94"/>
	<line class="st0" x1="90.92" y1="536.94" x2="106.92" y2="536.94"/>
	<line class="st0" x1="60.58" y1="572.94" x2="76.58" y2="572.94"/>
	<line class="st0" x1="90.92" y1="572.94" x2="106.92" y2="572.94"/>
	<line class="st0" x1="-0.08" y1="572.94" x2="15.92" y2="572.94"/>
	<line class="st0" x1="30.25" y1="572.94" x2="46.25" y2="572.94"/>
</g>
<g>
	<line class="st0" x1="536.94" y1="806.75" x2="536.94" y2="790.75"/>
	<line class="st0" x1="536.94" y1="776.42" x2="536.94" y2="760.42"/>
	<line class="st0" x1="536.94" y1="746.08" x2="536.94" y2="730.08"/>
	<line class="st0" x1="536.94" y1="715.75" x2="536.94" y2="699.75"/>
	<line class="st0" x1="536.94" y1="685.42" x2="536.94" y2="669.42"/>
	<line class="st0" x1="536.94" y1="655.08" x2="536.94" y2="639.08"/>
	<line class="st0" x1="536.94" y1="624.75" x2="536.94" y2="608.75"/>
	<line class="st0" x1="572.94" y1="715.75" x2="572.94" y2="699.75"/>
	<line class="st0" x1="572.94" y1="685.42" x2="572.94" y2="669.42"/>
	<line class="st0" x1="572.94" y1="655.08" x2="572.94" y2="639.08"/>
	<line class="st0" x1="572.94" y1="624.75" x2="572.94" y2="608.75"/>
	<line class="st0" x1="572.94" y1="806.75" x2="572.94" y2="790.75"/>
	<line class="st0" x1="572.94" y1="776.42" x2="572.94" y2="760.42"/>
	<line class="st0" x1="572.94" y1="746.08" x2="572.94" y2="730.08"/>
	<line class="st0" x1="536.94" y1="988.75" x2="536.94" y2="972.75"/>
	<line class="st0" x1="536.94" y1="958.42" x2="536.94" y2="942.42"/>
	<line class="st0" x1="536.94" y1="928.08" x2="536.94" y2="912.08"/>
	<line class="st0" x1="536.94" y1="897.75" x2="536.94" y2="881.75"/>
	<line class="st0" x1="536.94" y1="867.42" x2="536.94" y2="851.42"/>
	<line class="st0" x1="536.94" y1="837.08" x2="536.94" y2="821.08"/>
	<line class="st0" x1="572.94" y1="897.75" x2="572.94" y2="881.75"/>
	<line class="st0" x1="572.94" y1="867.42" x2="572.94" y2="851.42"/>
	<line class="st0" x1="572.94" y1="837.08" x2="572.94" y2="821.08"/>
	<line class="st0" x1="572.94" y1="988.75" x2="572.94" y2="972.75"/>
	<line class="st0" x1="572.94" y1="958.42" x2="572.94" y2="942.42"/>
	<line class="st0" x1="572.94" y1="928.08" x2="572.94" y2="912.08"/>
	<line class="st0" x1="536.94" y1="1110.08" x2="536.94" y2="1094.08"/>
	<line class="st0" x1="536.94" y1="1079.75" x2="536.94" y2="1063.75"/>
	<line class="st0" x1="536.94" y1="1049.42" x2="536.94" y2="1033.42"/>
	<line class="st0" x1="536.94" y1="1019.08" x2="536.94" y2="1003.08"/>
	<line class="st0" x1="572.94" y1="1049.42" x2="572.94" y2="1033.42"/>
	<line class="st0" x1="572.94" y1="1019.08" x2="572.94" y2="1003.08"/>
	<line class="st0" x1="572.94" y1="1110.08" x2="572.94" y2="1094.08"/>
	<line class="st0" x1="572.94" y1="1079.75" x2="572.94" y2="1063.75"/>
</g>
<polyline class="st0" points="519.06,501.25 555.06,501.25 555.06,-0.33 "/>
<polyline class="st0" points="590.94,608.75 554.94,608.75 554.94,1110.13 "/>
<path class="st0" d="M1109.96,591H610.94c-11.05,0-20,8.95-20,20v498.88"/>
<path class="st0" d="M1109.96,519H610.94c-11.05,0-20-8.95-20-20V-0.08"/>
<polyline class="st0" points="608.69,519 608.69,555 1110.21,555 "/>
</svg>
