<?xml version="1.0" encoding="utf-8"?>
<!-- Generator: Adobe Illustrator 24.0.2, SVG Export Plug-In . SVG Version: 6.00 Build 0)  -->
<svg version="1.1" id="Layer_1" xmlns="http://www.w3.org/2000/svg" xmlns:xlink="http://www.w3.org/1999/xlink" x="0px" y="0px"
	 viewBox="0 0 1112 1150" style="enable-background:new 0 0 1112 1150;" xml:space="preserve">
<style type="text/css">
	.st0{fill:none;stroke:#231F20;stroke-miterlimit:10;}
</style>
<g>
	<path class="st0" d="M0.27,521H500.1c11.05,0,20-8.95,20-20V0.25"/>
	<path class="st0" d="M1111.85,521H612.1c-11.05,0-20-8.95-20-20V0.25"/>
	<line class="st0" x1="395.1" y1="593" x2="411.1" y2="593"/>
	<line class="st0" x1="425.44" y1="593" x2="441.44" y2="593"/>
	<line class="st0" x1="455.77" y1="593" x2="471.77" y2="593"/>
	<line class="st0" x1="486.1" y1="593" x2="502.1" y2="593"/>
	<line class="st0" x1="395.1" y1="611" x2="411.1" y2="611"/>
	<line class="st0" x1="425.44" y1="611" x2="441.44" y2="611"/>
	<line class="st0" x1="455.77" y1="611" x2="471.77" y2="611"/>
	<line class="st0" x1="486.1" y1="611" x2="502.1" y2="611"/>
	<line class="st0" x1="395.35" y1="557" x2="411.35" y2="557"/>
	<line class="st0" x1="425.69" y1="557" x2="441.69" y2="557"/>
	<line class="st0" x1="456.02" y1="557" x2="472.02" y2="557"/>
	<line class="st0" x1="486.35" y1="557" x2="502.35" y2="557"/>
	<line class="st0" x1="395.35" y1="539" x2="411.35" y2="539"/>
	<line class="st0" x1="425.69" y1="539" x2="441.69" y2="539"/>
	<line class="st0" x1="456.02" y1="539" x2="472.02" y2="539"/>
	<line class="st0" x1="334.44" y1="593" x2="350.44" y2="593"/>
	<line class="st0" x1="364.77" y1="593" x2="380.77" y2="593"/>
	<line class="st0" x1="334.44" y1="611" x2="350.44" y2="611"/>
	<line class="st0" x1="364.77" y1="611" x2="380.77" y2="611"/>
	<line class="st0" x1="334.69" y1="557" x2="350.69" y2="557"/>
	<line class="st0" x1="365.02" y1="557" x2="381.02" y2="557"/>
	<line class="st0" x1="334.69" y1="539" x2="350.69" y2="539"/>
	<line class="st0" x1="365.02" y1="539" x2="381.02" y2="539"/>
	<line class="st0" x1="304.1" y1="593" x2="320.1" y2="593"/>
	<line class="st0" x1="304.1" y1="611" x2="320.1" y2="611"/>
	<line class="st0" x1="304.35" y1="557" x2="320.35" y2="557"/>
	<line class="st0" x1="304.35" y1="539" x2="320.35" y2="539"/>
	<line class="st0" x1="486.35" y1="539" x2="502.35" y2="539"/>
	<polyline class="st0" points="502.1,629 502.1,575 -0.23,575 	"/>
	<g>
		<line class="st0" x1="716.98" y1="557" x2="700.98" y2="557"/>
		<line class="st0" x1="686.65" y1="557" x2="670.65" y2="557"/>
		<line class="st0" x1="656.31" y1="557" x2="640.31" y2="557"/>
		<line class="st0" x1="625.98" y1="557" x2="609.98" y2="557"/>
		<line class="st0" x1="716.98" y1="539" x2="700.98" y2="539"/>
		<line class="st0" x1="686.65" y1="539" x2="670.65" y2="539"/>
		<line class="st0" x1="656.31" y1="539" x2="640.31" y2="539"/>
		<line class="st0" x1="625.98" y1="539" x2="609.98" y2="539"/>
		<line class="st0" x1="807.98" y1="539" x2="791.98" y2="539"/>
		<line class="st0" x1="777.65" y1="539" x2="761.65" y2="539"/>
		<line class="st0" x1="747.31" y1="539" x2="731.31" y2="539"/>
		<line class="st0" x1="807.98" y1="557" x2="791.98" y2="557"/>
		<line class="st0" x1="777.65" y1="557" x2="761.65" y2="557"/>
		<line class="st0" x1="747.31" y1="557" x2="731.31" y2="557"/>
		<line class="st0" x1="807.98" y1="593" x2="791.98" y2="593"/>
		<line class="st0" x1="777.65" y1="593" x2="761.65" y2="593"/>
		<line class="st0" x1="747.31" y1="593" x2="731.31" y2="593"/>
		<line class="st0" x1="807.98" y1="611" x2="791.98" y2="611"/>
		<line class="st0" x1="777.65" y1="611" x2="761.65" y2="611"/>
		<line class="st0" x1="747.31" y1="611" x2="731.31" y2="611"/>
		<g>
			<g>
				<line class="st0" x1="716.73" y1="593" x2="700.73" y2="593"/>
				<line class="st0" x1="686.4" y1="593" x2="670.4" y2="593"/>
				<line class="st0" x1="656.06" y1="593" x2="640.06" y2="593"/>
				<line class="st0" x1="625.73" y1="593" x2="609.73" y2="593"/>
			</g>
		</g>
		<g>
			<g>
				<line class="st0" x1="716.73" y1="611" x2="700.73" y2="611"/>
				<line class="st0" x1="686.4" y1="611" x2="670.4" y2="611"/>
				<line class="st0" x1="656.06" y1="611" x2="640.06" y2="611"/>
				<line class="st0" x1="625.73" y1="611" x2="609.73" y2="611"/>
			</g>
		</g>
	</g>
	<line class="st0" x1="899.23" y1="557" x2="883.23" y2="557"/>
	<line class="st0" x1="868.9" y1="557" x2="852.9" y2="557"/>
	<line class="st0" x1="838.56" y1="557" x2="822.56" y2="557"/>
	<line class="st0" x1="899.23" y1="539" x2="883.23" y2="539"/>
	<line class="st0" x1="868.9" y1="539" x2="852.9" y2="539"/>
	<line class="st0" x1="838.56" y1="539" x2="822.56" y2="539"/>
	<line class="st0" x1="990.23" y1="539" x2="974.23" y2="539"/>
	<line class="st0" x1="959.9" y1="539" x2="943.9" y2="539"/>
	<line class="st0" x1="929.56" y1="539" x2="913.56" y2="539"/>
	<line class="st0" x1="990.23" y1="557" x2="974.23" y2="557"/>
	<line class="st0" x1="959.9" y1="557" x2="943.9" y2="557"/>
	<line class="st0" x1="929.56" y1="557" x2="913.56" y2="557"/>
	<line class="st0" x1="990.23" y1="593" x2="974.23" y2="593"/>
	<line class="st0" x1="959.9" y1="593" x2="943.9" y2="593"/>
	<line class="st0" x1="929.56" y1="593" x2="913.56" y2="593"/>
	<line class="st0" x1="990.23" y1="611" x2="974.23" y2="611"/>
	<line class="st0" x1="959.9" y1="611" x2="943.9" y2="611"/>
	<line class="st0" x1="929.56" y1="611" x2="913.56" y2="611"/>
	<line class="st0" x1="898.98" y1="593" x2="882.98" y2="593"/>
	<line class="st0" x1="868.65" y1="593" x2="852.65" y2="593"/>
	<line class="st0" x1="838.31" y1="593" x2="822.31" y2="593"/>
	<line class="st0" x1="898.98" y1="611" x2="882.98" y2="611"/>
	<line class="st0" x1="868.65" y1="611" x2="852.65" y2="611"/>
	<line class="st0" x1="1021.06" y1="557" x2="1005.06" y2="557"/>
	<line class="st0" x1="1021.06" y1="539" x2="1005.06" y2="539"/>
	<line class="st0" x1="1112.06" y1="539" x2="1096.06" y2="539"/>
	<line class="st0" x1="1081.73" y1="539" x2="1065.73" y2="539"/>
	<line class="st0" x1="1051.4" y1="539" x2="1035.4" y2="539"/>
	<line class="st0" x1="1112.06" y1="557" x2="1096.06" y2="557"/>
	<line class="st0" x1="1081.73" y1="557" x2="1065.73" y2="557"/>
	<line class="st0" x1="1051.4" y1="557" x2="1035.4" y2="557"/>
	<line class="st0" x1="1112.06" y1="593" x2="1096.06" y2="593"/>
	<line class="st0" x1="1081.73" y1="593" x2="1065.73" y2="593"/>
	<line class="st0" x1="1051.4" y1="593" x2="1035.4" y2="593"/>
	<line class="st0" x1="1112.06" y1="611" x2="1096.06" y2="611"/>
	<line class="st0" x1="1081.73" y1="611" x2="1065.73" y2="611"/>
	<line class="st0" x1="1051.4" y1="611" x2="1035.4" y2="611"/>
	<line class="st0" x1="1020.81" y1="593" x2="1004.81" y2="593"/>
	<line class="st0" x1="1020.81" y1="611" x2="1004.81" y2="611"/>
	<line class="st0" x1="838.31" y1="611" x2="822.31" y2="611"/>
	<line class="st0" x1="212.85" y1="557" x2="228.85" y2="557"/>
	<line class="st0" x1="243.19" y1="557" x2="259.19" y2="557"/>
	<line class="st0" x1="273.52" y1="557" x2="289.52" y2="557"/>
	<line class="st0" x1="212.85" y1="539" x2="228.85" y2="539"/>
	<line class="st0" x1="243.19" y1="539" x2="259.19" y2="539"/>
	<line class="st0" x1="273.52" y1="539" x2="289.52" y2="539"/>
	<line class="st0" x1="121.85" y1="539" x2="137.85" y2="539"/>
	<line class="st0" x1="152.19" y1="539" x2="168.19" y2="539"/>
	<line class="st0" x1="182.52" y1="539" x2="198.52" y2="539"/>
	<line class="st0" x1="121.85" y1="557" x2="137.85" y2="557"/>
	<line class="st0" x1="152.19" y1="557" x2="168.19" y2="557"/>
	<line class="st0" x1="182.52" y1="557" x2="198.52" y2="557"/>
	<line class="st0" x1="121.85" y1="593" x2="137.85" y2="593"/>
	<line class="st0" x1="152.19" y1="593" x2="168.19" y2="593"/>
	<line class="st0" x1="182.52" y1="593" x2="198.52" y2="593"/>
	<line class="st0" x1="121.85" y1="611" x2="137.85" y2="611"/>
	<line class="st0" x1="152.19" y1="611" x2="168.19" y2="611"/>
	<line class="st0" x1="182.52" y1="611" x2="198.52" y2="611"/>
	<line class="st0" x1="213.1" y1="593" x2="229.1" y2="593"/>
	<line class="st0" x1="243.44" y1="593" x2="259.44" y2="593"/>
	<line class="st0" x1="273.77" y1="593" x2="289.77" y2="593"/>
	<line class="st0" x1="213.1" y1="611" x2="229.1" y2="611"/>
	<line class="st0" x1="243.44" y1="611" x2="259.44" y2="611"/>
	<line class="st0" x1="91.02" y1="557" x2="107.02" y2="557"/>
	<line class="st0" x1="91.02" y1="539" x2="107.02" y2="539"/>
	<line class="st0" x1="0.02" y1="539" x2="16.02" y2="539"/>
	<line class="st0" x1="30.35" y1="539" x2="46.35" y2="539"/>
	<line class="st0" x1="60.69" y1="539" x2="76.69" y2="539"/>
	<line class="st0" x1="0.02" y1="557" x2="16.02" y2="557"/>
	<line class="st0" x1="30.35" y1="557" x2="46.35" y2="557"/>
	<line class="st0" x1="60.69" y1="557" x2="76.69" y2="557"/>
	<line class="st0" x1="0.02" y1="593" x2="16.02" y2="593"/>
	<line class="st0" x1="30.35" y1="593" x2="46.35" y2="593"/>
	<line class="st0" x1="60.69" y1="593" x2="76.69" y2="593"/>
	<line class="st0" x1="0.02" y1="611" x2="16.02" y2="611"/>
	<line class="st0" x1="30.35" y1="611" x2="46.35" y2="611"/>
	<line class="st0" x1="60.69" y1="611" x2="76.69" y2="611"/>
	<line class="st0" x1="91.27" y1="593" x2="107.27" y2="593"/>
	<line class="st0" x1="91.27" y1="611" x2="107.27" y2="611"/>
	<line class="st0" x1="273.77" y1="611" x2="289.77" y2="611"/>
	<polyline class="st0" points="609.98,521 609.98,575 1112.23,575 	"/>
	<line class="st0" x1="538.1" y1="396" x2="538.1" y2="412"/>
	<line class="st0" x1="538.1" y1="426.33" x2="538.1" y2="442.33"/>
	<line class="st0" x1="538.1" y1="456.67" x2="538.1" y2="472.67"/>
	<line class="st0" x1="538.1" y1="335.33" x2="538.1" y2="351.33"/>
	<line class="st0" x1="538.1" y1="365.67" x2="538.1" y2="381.67"/>
	<line class="st0" x1="574.1" y1="335.33" x2="574.1" y2="351.33"/>
	<line class="st0" x1="574.1" y1="365.67" x2="574.1" y2="381.67"/>
	<line class="st0" x1="538.1" y1="487" x2="538.1" y2="503"/>
	<line class="st0" x1="574.1" y1="396" x2="574.1" y2="412"/>
	<line class="st0" x1="574.1" y1="426.33" x2="574.1" y2="442.33"/>
	<line class="st0" x1="574.1" y1="456.67" x2="574.1" y2="472.67"/>
	<line class="st0" x1="574.1" y1="487" x2="574.1" y2="503"/>
	<polyline class="st0" points="520.1,503 556.1,503 556.1,-0.25 	"/>
	<path class="st0" d="M0.27,629H500.1c11.05,0,20,8.95,20,20v500.75"/>
	<path class="st0" d="M1111.85,629H612.1c-11.05,0-20,8.95-20,20v500.75"/>
	<g>
		<line class="st0" x1="538.1" y1="754" x2="538.1" y2="738"/>
		<line class="st0" x1="538.1" y1="723.67" x2="538.1" y2="707.67"/>
		<line class="st0" x1="538.1" y1="784.33" x2="538.1" y2="768.33"/>
		<line class="st0" x1="538.1" y1="814.67" x2="538.1" y2="798.67"/>
		<line class="st0" x1="574.1" y1="784.33" x2="574.1" y2="768.33"/>
		<line class="st0" x1="574.1" y1="814.67" x2="574.1" y2="798.67"/>
		<line class="st0" x1="538.1" y1="693.33" x2="538.1" y2="677.33"/>
		<line class="st0" x1="538.1" y1="663" x2="538.1" y2="647"/>
		<line class="st0" x1="574.1" y1="754" x2="574.1" y2="738"/>
		<line class="st0" x1="574.1" y1="723.67" x2="574.1" y2="707.67"/>
		<line class="st0" x1="574.1" y1="693.33" x2="574.1" y2="677.33"/>
		<line class="st0" x1="574.1" y1="663" x2="574.1" y2="647"/>
	</g>
	<g>
		<line class="st0" x1="538.11" y1="936" x2="538.11" y2="920"/>
		<line class="st0" x1="538.11" y1="905.67" x2="538.11" y2="889.67"/>
		<line class="st0" x1="538.11" y1="966.33" x2="538.11" y2="950.33"/>
		<line class="st0" x1="538.11" y1="996.67" x2="538.11" y2="980.67"/>
		<line class="st0" x1="574.11" y1="966.33" x2="574.11" y2="950.33"/>
		<line class="st0" x1="574.11" y1="996.67" x2="574.11" y2="980.67"/>
		<line class="st0" x1="538.11" y1="875.33" x2="538.11" y2="859.33"/>
		<line class="st0" x1="538.11" y1="845" x2="538.11" y2="829"/>
		<line class="st0" x1="574.11" y1="936" x2="574.11" y2="920"/>
		<line class="st0" x1="574.11" y1="905.67" x2="574.11" y2="889.67"/>
		<line class="st0" x1="574.11" y1="875.33" x2="574.11" y2="859.33"/>
		<line class="st0" x1="538.11" y1="1057.33" x2="538.11" y2="1041.33"/>
		<line class="st0" x1="538.11" y1="1027" x2="538.11" y2="1011"/>
		<line class="st0" x1="538.11" y1="1087.67" x2="538.11" y2="1071.67"/>
		<line class="st0" x1="538.11" y1="1118" x2="538.11" y2="1102"/>
		<line class="st0" x1="574.11" y1="1087.67" x2="574.11" y2="1071.67"/>
		<line class="st0" x1="574.11" y1="1118" x2="574.11" y2="1102"/>
		<line class="st0" x1="574.11" y1="1057.33" x2="574.11" y2="1041.33"/>
		<line class="st0" x1="574.11" y1="1027" x2="574.11" y2="1011"/>
		<line class="st0" x1="538.11" y1="1148.33" x2="538.11" y2="1132.33"/>
		<line class="st0" x1="574.11" y1="1148.33" x2="574.11" y2="1132.33"/>
		<line class="st0" x1="574.11" y1="845" x2="574.11" y2="829"/>
	</g>
	<g>
		<line class="st0" x1="538.11" y1="214" x2="538.11" y2="230"/>
		<line class="st0" x1="538.11" y1="244.33" x2="538.11" y2="260.33"/>
		<line class="st0" x1="538.11" y1="183.67" x2="538.11" y2="199.67"/>
		<line class="st0" x1="538.11" y1="153.33" x2="538.11" y2="169.33"/>
		<line class="st0" x1="574.11" y1="183.67" x2="574.11" y2="199.67"/>
		<line class="st0" x1="574.11" y1="153.33" x2="574.11" y2="169.33"/>
		<line class="st0" x1="538.11" y1="274.67" x2="538.11" y2="290.67"/>
		<line class="st0" x1="538.11" y1="305" x2="538.11" y2="321"/>
		<line class="st0" x1="574.11" y1="214" x2="574.11" y2="230"/>
		<line class="st0" x1="574.11" y1="244.33" x2="574.11" y2="260.33"/>
		<line class="st0" x1="574.11" y1="274.67" x2="574.11" y2="290.67"/>
		<line class="st0" x1="538.11" y1="92.67" x2="538.11" y2="108.67"/>
		<line class="st0" x1="538.11" y1="123" x2="538.11" y2="139"/>
		<line class="st0" x1="538.11" y1="62.33" x2="538.11" y2="78.33"/>
		<line class="st0" x1="538.11" y1="32" x2="538.11" y2="48"/>
		<line class="st0" x1="574.11" y1="62.33" x2="574.11" y2="78.33"/>
		<line class="st0" x1="574.11" y1="32" x2="574.11" y2="48"/>
		<line class="st0" x1="574.11" y1="92.67" x2="574.11" y2="108.67"/>
		<line class="st0" x1="574.11" y1="123" x2="574.11" y2="139"/>
		<line class="st0" x1="538.11" y1="1.67" x2="538.11" y2="17.67"/>
		<line class="st0" x1="574.11" y1="1.67" x2="574.11" y2="17.67"/>
		<line class="st0" x1="574.11" y1="305" x2="574.11" y2="321"/>
	</g>
	<polyline class="st0" points="592.1,647 556.1,647 556.1,1150.25 	"/>
</g>
</svg>
