<?xml version="1.0" encoding="utf-8"?>
<!-- Generator: Adobe Illustrator 24.0.2, SVG Export Plug-In . SVG Version: 6.00 Build 0)  -->
<svg version="1.1" id="Layer_1" xmlns="http://www.w3.org/2000/svg" xmlns:xlink="http://www.w3.org/1999/xlink" x="0px" y="0px"
	 viewBox="0 0 1110 1130" style="enable-background:new 0 0 1110 1130;" xml:space="preserve">
<style type="text/css">
	.st0{fill:none;stroke:#231F20;stroke-miterlimit:10;}
	.st1{fill:#D1D3D4;stroke:#231F20;stroke-miterlimit:10;}
</style>
<g>
	<path class="st0" d="M1110.27,520.33H611.06c-11.05,0-20-8.95-20-20V0.58"/>
	<line class="st0" x1="715.94" y1="538.33" x2="699.94" y2="538.33"/>
	<line class="st0" x1="685.6" y1="538.33" x2="669.6" y2="538.33"/>
	<line class="st0" x1="655.27" y1="538.33" x2="639.27" y2="538.33"/>
	<line class="st0" x1="624.94" y1="538.33" x2="608.94" y2="538.33"/>
	<line class="st0" x1="806.94" y1="538.33" x2="790.94" y2="538.33"/>
	<line class="st0" x1="776.6" y1="538.33" x2="760.6" y2="538.33"/>
	<line class="st0" x1="746.27" y1="538.33" x2="730.27" y2="538.33"/>
	<line class="st0" x1="897.94" y1="538.33" x2="881.94" y2="538.33"/>
	<line class="st0" x1="867.6" y1="538.33" x2="851.6" y2="538.33"/>
	<line class="st0" x1="837.27" y1="538.33" x2="821.27" y2="538.33"/>
	<line class="st0" x1="988.94" y1="538.33" x2="972.94" y2="538.33"/>
	<line class="st0" x1="958.6" y1="538.33" x2="942.6" y2="538.33"/>
	<line class="st0" x1="928.27" y1="538.33" x2="912.27" y2="538.33"/>
	<line class="st0" x1="1049.6" y1="538.33" x2="1033.6" y2="538.33"/>
	<line class="st0" x1="1019.27" y1="538.33" x2="1003.27" y2="538.33"/>
	<line class="st0" x1="1110.27" y1="538.33" x2="1094.27" y2="538.33"/>
	<line class="st0" x1="1079.94" y1="538.33" x2="1063.94" y2="538.33"/>
	<line class="st0" x1="897.94" y1="592.33" x2="881.94" y2="592.33"/>
	<line class="st0" x1="867.6" y1="592.33" x2="851.6" y2="592.33"/>
	<line class="st0" x1="837.27" y1="592.33" x2="821.27" y2="592.33"/>
	<line class="st0" x1="988.94" y1="592.33" x2="972.94" y2="592.33"/>
	<line class="st0" x1="958.6" y1="592.33" x2="942.6" y2="592.33"/>
	<line class="st0" x1="928.27" y1="592.33" x2="912.27" y2="592.33"/>
	<line class="st0" x1="1049.6" y1="592.33" x2="1033.6" y2="592.33"/>
	<line class="st0" x1="1019.27" y1="592.33" x2="1003.27" y2="592.33"/>
	<line class="st0" x1="1110.27" y1="592.33" x2="1094.27" y2="592.33"/>
	<line class="st0" x1="1079.94" y1="592.33" x2="1063.94" y2="592.33"/>
	<line class="st0" x1="806.94" y1="592.33" x2="790.94" y2="592.33"/>
	<line class="st0" x1="776.6" y1="592.33" x2="760.6" y2="592.33"/>
	<line class="st0" x1="746.27" y1="592.33" x2="730.27" y2="592.33"/>
	<line class="st0" x1="715.69" y1="592.33" x2="699.69" y2="592.33"/>
	<line class="st0" x1="685.35" y1="592.33" x2="669.35" y2="592.33"/>
	<line class="st0" x1="655.02" y1="592.33" x2="639.02" y2="592.33"/>
	<line class="st0" x1="624.69" y1="592.33" x2="608.69" y2="592.33"/>
	<polyline class="st0" points="608.94,520.33 608.94,574.33 816.19,574.33 	"/>
	<polyline class="st0" points="519.06,502.33 555.06,502.33 555.06,0.08 	"/>
	<path class="st0" d="M1110.27,610.33H611.06c-11.05,0-20,8.95-20,20v499.08"/>
	<line class="st0" x1="537.06" y1="735.33" x2="537.06" y2="719.33"/>
	<line class="st0" x1="537.06" y1="705" x2="537.06" y2="689"/>
	<line class="st0" x1="537.06" y1="674.67" x2="537.06" y2="658.67"/>
	<line class="st0" x1="537.06" y1="644.33" x2="537.06" y2="628.33"/>
	<line class="st0" x1="537.06" y1="826.33" x2="537.06" y2="810.33"/>
	<line class="st0" x1="537.06" y1="796" x2="537.06" y2="780"/>
	<line class="st0" x1="537.06" y1="765.67" x2="537.06" y2="749.67"/>
	<line class="st0" x1="537.06" y1="917.33" x2="537.06" y2="901.33"/>
	<line class="st0" x1="537.06" y1="887" x2="537.06" y2="871"/>
	<line class="st0" x1="537.06" y1="856.67" x2="537.06" y2="840.67"/>
	<line class="st0" x1="537.06" y1="1008.33" x2="537.06" y2="992.33"/>
	<line class="st0" x1="537.06" y1="978" x2="537.06" y2="962"/>
	<line class="st0" x1="537.06" y1="947.67" x2="537.06" y2="931.67"/>
	<line class="st0" x1="537.06" y1="1038.67" x2="537.06" y2="1022.67"/>
	<line class="st0" x1="537.06" y1="1129.67" x2="537.06" y2="1113.67"/>
	<line class="st0" x1="537.06" y1="1099.33" x2="537.06" y2="1083.33"/>
	<line class="st0" x1="537.06" y1="1069" x2="537.06" y2="1053"/>
	<line class="st0" x1="573.06" y1="826.33" x2="573.06" y2="810.33"/>
	<line class="st0" x1="573.06" y1="796" x2="573.06" y2="780"/>
	<line class="st0" x1="573.06" y1="765.67" x2="573.06" y2="749.67"/>
	<line class="st0" x1="573.06" y1="917.33" x2="573.06" y2="901.33"/>
	<line class="st0" x1="573.06" y1="887" x2="573.06" y2="871"/>
	<line class="st0" x1="573.06" y1="856.67" x2="573.06" y2="840.67"/>
	<line class="st0" x1="573.06" y1="1008.33" x2="573.06" y2="992.33"/>
	<line class="st0" x1="573.06" y1="978" x2="573.06" y2="962"/>
	<line class="st0" x1="573.06" y1="947.67" x2="573.06" y2="931.67"/>
	<line class="st0" x1="573.06" y1="1038.67" x2="573.06" y2="1022.67"/>
	<line class="st0" x1="573.06" y1="1129.67" x2="573.06" y2="1113.67"/>
	<line class="st0" x1="573.06" y1="1099.33" x2="573.06" y2="1083.33"/>
	<line class="st0" x1="573.06" y1="1069" x2="573.06" y2="1053"/>
	<line class="st0" x1="573.06" y1="735.33" x2="573.06" y2="719.33"/>
	<line class="st0" x1="573.06" y1="705" x2="573.06" y2="689"/>
	<line class="st0" x1="573.06" y1="674.67" x2="573.06" y2="658.67"/>
	<line class="st0" x1="573.06" y1="644.33" x2="573.06" y2="628.33"/>
	<line class="st0" x1="537.06" y1="395.33" x2="537.06" y2="411.33"/>
	<line class="st0" x1="537.06" y1="425.66" x2="537.06" y2="441.66"/>
	<line class="st0" x1="537.06" y1="456" x2="537.06" y2="472"/>
	<line class="st0" x1="537.06" y1="486.33" x2="537.06" y2="502.33"/>
	<line class="st0" x1="537.06" y1="304.33" x2="537.06" y2="320.33"/>
	<line class="st0" x1="537.06" y1="334.66" x2="537.06" y2="350.66"/>
	<line class="st0" x1="537.06" y1="365" x2="537.06" y2="381"/>
	<line class="st0" x1="537.06" y1="213.33" x2="537.06" y2="229.33"/>
	<line class="st0" x1="537.06" y1="243.66" x2="537.06" y2="259.66"/>
	<line class="st0" x1="537.06" y1="274" x2="537.06" y2="290"/>
	<line class="st0" x1="537.06" y1="122.33" x2="537.06" y2="138.33"/>
	<line class="st0" x1="537.06" y1="152.66" x2="537.06" y2="168.66"/>
	<line class="st0" x1="537.06" y1="183" x2="537.06" y2="199"/>
	<line class="st0" x1="537.06" y1="92" x2="537.06" y2="108"/>
	<line class="st0" x1="537.06" y1="1" x2="537.06" y2="17"/>
	<line class="st0" x1="537.06" y1="31.33" x2="537.06" y2="47.33"/>
	<line class="st0" x1="537.06" y1="61.66" x2="537.06" y2="77.66"/>
	<line class="st0" x1="573.06" y1="304.33" x2="573.06" y2="320.33"/>
	<line class="st0" x1="573.06" y1="334.66" x2="573.06" y2="350.66"/>
	<line class="st0" x1="573.06" y1="365" x2="573.06" y2="381"/>
	<line class="st0" x1="573.06" y1="213.33" x2="573.06" y2="229.33"/>
	<line class="st0" x1="573.06" y1="243.66" x2="573.06" y2="259.66"/>
	<line class="st0" x1="573.06" y1="274" x2="573.06" y2="290"/>
	<line class="st0" x1="573.06" y1="122.33" x2="573.06" y2="138.33"/>
	<line class="st0" x1="573.06" y1="152.66" x2="573.06" y2="168.66"/>
	<line class="st0" x1="573.06" y1="183" x2="573.06" y2="199"/>
	<line class="st0" x1="573.06" y1="92" x2="573.06" y2="108"/>
	<line class="st0" x1="573.06" y1="1" x2="573.06" y2="17"/>
	<line class="st0" x1="573.06" y1="31.33" x2="573.06" y2="47.33"/>
	<line class="st0" x1="573.06" y1="61.66" x2="573.06" y2="77.66"/>
	<line class="st0" x1="573.06" y1="395.33" x2="573.06" y2="411.33"/>
	<line class="st0" x1="573.06" y1="425.66" x2="573.06" y2="441.66"/>
	<line class="st0" x1="573.06" y1="456" x2="573.06" y2="472"/>
	<line class="st0" x1="573.06" y1="486.33" x2="573.06" y2="502.33"/>
	<polyline class="st0" points="591.06,628.33 555.06,628.33 555.06,1129.92 	"/>
	<path class="st1" d="M667.49,574.33c0,0,8.76-3.07,15.16-10.3c6.2-6.99,12.28-7.49,16.91-7.63c4.37-0.13,410.71,0,410.71,0v17.94
		H667.49z"/>
	<line class="st0" x1="608.69" y1="556.34" x2="655.02" y2="556.34"/>
	<path class="st0" d="M-0.27,610.33h499.21c11.05,0,20,8.95,20,20v499.08"/>
	<line class="st0" x1="394.06" y1="592.33" x2="410.06" y2="592.33"/>
	<line class="st0" x1="424.4" y1="592.33" x2="440.4" y2="592.33"/>
	<line class="st0" x1="454.73" y1="592.33" x2="470.73" y2="592.33"/>
	<line class="st0" x1="485.06" y1="592.33" x2="501.06" y2="592.33"/>
	<line class="st0" x1="303.06" y1="592.33" x2="319.06" y2="592.33"/>
	<line class="st0" x1="333.4" y1="592.33" x2="349.4" y2="592.33"/>
	<line class="st0" x1="363.73" y1="592.33" x2="379.73" y2="592.33"/>
	<line class="st0" x1="212.06" y1="592.33" x2="228.06" y2="592.33"/>
	<line class="st0" x1="242.4" y1="592.33" x2="258.4" y2="592.33"/>
	<line class="st0" x1="272.73" y1="592.33" x2="288.73" y2="592.33"/>
	<line class="st0" x1="121.06" y1="592.33" x2="137.06" y2="592.33"/>
	<line class="st0" x1="151.4" y1="592.33" x2="167.4" y2="592.33"/>
	<line class="st0" x1="181.73" y1="592.33" x2="197.73" y2="592.33"/>
	<line class="st0" x1="60.4" y1="592.33" x2="76.4" y2="592.33"/>
	<line class="st0" x1="90.73" y1="592.33" x2="106.73" y2="592.33"/>
	<line class="st0" x1="-0.27" y1="592.33" x2="15.73" y2="592.33"/>
	<line class="st0" x1="30.06" y1="592.33" x2="46.06" y2="592.33"/>
	<line class="st0" x1="212.06" y1="538.33" x2="228.06" y2="538.33"/>
	<line class="st0" x1="242.4" y1="538.33" x2="258.4" y2="538.33"/>
	<line class="st0" x1="272.73" y1="538.33" x2="288.73" y2="538.33"/>
	<line class="st0" x1="121.06" y1="538.33" x2="137.06" y2="538.33"/>
	<line class="st0" x1="151.4" y1="538.33" x2="167.4" y2="538.33"/>
	<line class="st0" x1="181.73" y1="538.33" x2="197.73" y2="538.33"/>
	<line class="st0" x1="60.4" y1="538.33" x2="76.4" y2="538.33"/>
	<line class="st0" x1="90.73" y1="538.33" x2="106.73" y2="538.33"/>
	<line class="st0" x1="-0.27" y1="538.33" x2="15.73" y2="538.33"/>
	<line class="st0" x1="30.06" y1="538.33" x2="46.06" y2="538.33"/>
	<line class="st0" x1="303.06" y1="538.33" x2="319.06" y2="538.33"/>
	<line class="st0" x1="333.4" y1="538.33" x2="349.4" y2="538.33"/>
	<line class="st0" x1="363.73" y1="538.33" x2="379.73" y2="538.33"/>
	<line class="st0" x1="394.31" y1="538.33" x2="410.31" y2="538.33"/>
	<line class="st0" x1="424.65" y1="538.33" x2="440.65" y2="538.33"/>
	<line class="st0" x1="454.98" y1="538.33" x2="470.98" y2="538.33"/>
	<line class="st0" x1="485.31" y1="538.33" x2="501.31" y2="538.33"/>
	<polyline class="st0" points="501.06,610.33 501.06,556.33 293.81,556.33 	"/>
	<path class="st0" d="M-0.27,520.33h499.21c11.05,0,20-8.95,20-20V0.58"/>
	<path class="st1" d="M442.51,556.33c0,0-8.76,3.07-15.16,10.3c-6.2,6.99-12.28,7.49-16.91,7.63c-4.37,0.13-410.71,0-410.71,0
		v-17.94H442.51z"/>
	<line class="st0" x1="501.31" y1="574.33" x2="454.98" y2="574.33"/>
</g>
</svg>
