<?xml version="1.0" encoding="utf-8"?>
<!-- Generator: Adobe Illustrator 24.0.2, SVG Export Plug-In . SVG Version: 6.00 Build 0)  -->
<svg version="1.1" id="Layer_1" xmlns="http://www.w3.org/2000/svg" xmlns:xlink="http://www.w3.org/1999/xlink" x="0px" y="0px"
	 viewBox="0 0 1146.17 1109.6" style="enable-background:new 0 0 1146.17 1109.6;" xml:space="preserve">
<style type="text/css">
	.st0{fill:none;stroke:#231F20;stroke-miterlimit:10;}
</style>
<path class="st0" d="M627.08,0v498.83c0,11.05,8.95,20,20,20h499.08"/>
<path class="st0" d="M627.08,1109.6V610.83c0-11.05,8.95-20,20-20h499.08"/>
<polyline class="st0" points="519.08,500.83 573.08,500.83 573.08,-0.25 "/>
<line class="st0" x1="591.08" y1="715.71" x2="591.08" y2="699.71"/>
<line class="st0" x1="591.08" y1="685.38" x2="591.08" y2="669.38"/>
<line class="st0" x1="591.08" y1="655.04" x2="591.08" y2="639.04"/>
<line class="st0" x1="591.08" y1="624.71" x2="591.08" y2="608.71"/>
<line class="st0" x1="609.08" y1="715.71" x2="609.08" y2="699.71"/>
<line class="st0" x1="609.08" y1="685.38" x2="609.08" y2="669.38"/>
<line class="st0" x1="609.08" y1="655.04" x2="609.08" y2="639.04"/>
<line class="st0" x1="609.08" y1="624.71" x2="609.08" y2="608.71"/>
<line class="st0" x1="555.08" y1="715.46" x2="555.08" y2="699.46"/>
<line class="st0" x1="555.08" y1="685.13" x2="555.08" y2="669.13"/>
<line class="st0" x1="555.08" y1="654.79" x2="555.08" y2="638.79"/>
<line class="st0" x1="555.08" y1="624.46" x2="555.08" y2="608.46"/>
<line class="st0" x1="537.08" y1="715.46" x2="537.08" y2="699.46"/>
<line class="st0" x1="537.08" y1="685.13" x2="537.08" y2="669.13"/>
<line class="st0" x1="537.08" y1="654.79" x2="537.08" y2="638.79"/>
<line class="st0" x1="537.08" y1="624.46" x2="537.08" y2="608.46"/>
<line class="st0" x1="537.08" y1="806.46" x2="537.08" y2="790.46"/>
<line class="st0" x1="537.08" y1="776.13" x2="537.08" y2="760.13"/>
<line class="st0" x1="537.08" y1="745.79" x2="537.08" y2="729.79"/>
<line class="st0" x1="537.08" y1="897.46" x2="537.08" y2="881.46"/>
<line class="st0" x1="537.08" y1="867.13" x2="537.08" y2="851.13"/>
<line class="st0" x1="537.08" y1="836.79" x2="537.08" y2="820.79"/>
<line class="st0" x1="537.08" y1="988.46" x2="537.08" y2="972.46"/>
<line class="st0" x1="537.08" y1="958.13" x2="537.08" y2="942.13"/>
<line class="st0" x1="537.08" y1="927.79" x2="537.08" y2="911.79"/>
<line class="st0" x1="537.08" y1="1018.79" x2="537.08" y2="1002.79"/>
<line class="st0" x1="537.08" y1="1109.79" x2="537.08" y2="1093.79"/>
<line class="st0" x1="537.08" y1="1079.46" x2="537.08" y2="1063.46"/>
<line class="st0" x1="537.08" y1="1049.13" x2="537.08" y2="1033.13"/>
<line class="st0" x1="555.08" y1="806.46" x2="555.08" y2="790.46"/>
<line class="st0" x1="555.08" y1="776.13" x2="555.08" y2="760.13"/>
<line class="st0" x1="555.08" y1="745.79" x2="555.08" y2="729.79"/>
<line class="st0" x1="555.08" y1="897.46" x2="555.08" y2="881.46"/>
<line class="st0" x1="555.08" y1="867.13" x2="555.08" y2="851.13"/>
<line class="st0" x1="555.08" y1="836.79" x2="555.08" y2="820.79"/>
<line class="st0" x1="555.08" y1="988.46" x2="555.08" y2="972.46"/>
<line class="st0" x1="555.08" y1="958.13" x2="555.08" y2="942.13"/>
<line class="st0" x1="555.08" y1="927.79" x2="555.08" y2="911.79"/>
<line class="st0" x1="555.08" y1="1018.79" x2="555.08" y2="1002.79"/>
<line class="st0" x1="555.08" y1="1109.79" x2="555.08" y2="1093.79"/>
<line class="st0" x1="555.08" y1="1079.46" x2="555.08" y2="1063.46"/>
<line class="st0" x1="555.08" y1="1049.13" x2="555.08" y2="1033.13"/>
<line class="st0" x1="591.08" y1="806.46" x2="591.08" y2="790.46"/>
<line class="st0" x1="591.08" y1="776.13" x2="591.08" y2="760.13"/>
<line class="st0" x1="591.08" y1="745.79" x2="591.08" y2="729.79"/>
<line class="st0" x1="591.08" y1="897.46" x2="591.08" y2="881.46"/>
<line class="st0" x1="591.08" y1="867.13" x2="591.08" y2="851.13"/>
<line class="st0" x1="591.08" y1="836.79" x2="591.08" y2="820.79"/>
<line class="st0" x1="591.08" y1="988.46" x2="591.08" y2="972.46"/>
<line class="st0" x1="591.08" y1="958.13" x2="591.08" y2="942.13"/>
<line class="st0" x1="591.08" y1="927.79" x2="591.08" y2="911.79"/>
<line class="st0" x1="591.08" y1="1018.79" x2="591.08" y2="1002.79"/>
<line class="st0" x1="591.08" y1="1109.79" x2="591.08" y2="1093.79"/>
<line class="st0" x1="591.08" y1="1079.46" x2="591.08" y2="1063.46"/>
<line class="st0" x1="591.08" y1="1049.13" x2="591.08" y2="1033.13"/>
<line class="st0" x1="609.08" y1="806.46" x2="609.08" y2="790.46"/>
<line class="st0" x1="609.08" y1="776.13" x2="609.08" y2="760.13"/>
<line class="st0" x1="609.08" y1="745.79" x2="609.08" y2="729.79"/>
<line class="st0" x1="609.08" y1="897.46" x2="609.08" y2="881.46"/>
<line class="st0" x1="609.08" y1="867.13" x2="609.08" y2="851.13"/>
<line class="st0" x1="609.08" y1="836.79" x2="609.08" y2="820.79"/>
<line class="st0" x1="609.08" y1="988.46" x2="609.08" y2="972.46"/>
<line class="st0" x1="609.08" y1="958.13" x2="609.08" y2="942.13"/>
<line class="st0" x1="609.08" y1="927.79" x2="609.08" y2="911.79"/>
<line class="st0" x1="609.08" y1="1018.79" x2="609.08" y2="1002.79"/>
<line class="st0" x1="609.08" y1="1109.79" x2="609.08" y2="1093.79"/>
<line class="st0" x1="609.08" y1="1079.46" x2="609.08" y2="1063.46"/>
<line class="st0" x1="609.08" y1="1049.13" x2="609.08" y2="1033.13"/>
<line class="st0" x1="591.08" y1="393.83" x2="591.08" y2="409.83"/>
<line class="st0" x1="591.08" y1="424.17" x2="591.08" y2="440.17"/>
<line class="st0" x1="591.08" y1="454.5" x2="591.08" y2="470.5"/>
<line class="st0" x1="591.08" y1="484.83" x2="591.08" y2="500.83"/>
<line class="st0" x1="609.08" y1="393.83" x2="609.08" y2="409.83"/>
<line class="st0" x1="609.08" y1="424.17" x2="609.08" y2="440.17"/>
<line class="st0" x1="609.08" y1="454.5" x2="609.08" y2="470.5"/>
<line class="st0" x1="609.08" y1="484.83" x2="609.08" y2="500.83"/>
<line class="st0" x1="555.08" y1="394.08" x2="555.08" y2="410.08"/>
<line class="st0" x1="555.08" y1="424.42" x2="555.08" y2="440.42"/>
<line class="st0" x1="555.08" y1="454.75" x2="555.08" y2="470.75"/>
<line class="st0" x1="555.08" y1="485.08" x2="555.08" y2="501.08"/>
<line class="st0" x1="537.08" y1="394.08" x2="537.08" y2="410.08"/>
<line class="st0" x1="537.08" y1="424.42" x2="537.08" y2="440.42"/>
<line class="st0" x1="537.08" y1="454.75" x2="537.08" y2="470.75"/>
<line class="st0" x1="537.08" y1="485.08" x2="537.08" y2="501.08"/>
<line class="st0" x1="537.08" y1="303.08" x2="537.08" y2="319.08"/>
<line class="st0" x1="537.08" y1="333.42" x2="537.08" y2="349.42"/>
<line class="st0" x1="537.08" y1="363.75" x2="537.08" y2="379.75"/>
<line class="st0" x1="537.08" y1="212.08" x2="537.08" y2="228.08"/>
<line class="st0" x1="537.08" y1="242.42" x2="537.08" y2="258.42"/>
<line class="st0" x1="537.08" y1="272.75" x2="537.08" y2="288.75"/>
<line class="st0" x1="537.08" y1="121.08" x2="537.08" y2="137.08"/>
<line class="st0" x1="537.08" y1="151.42" x2="537.08" y2="167.42"/>
<line class="st0" x1="537.08" y1="181.75" x2="537.08" y2="197.75"/>
<line class="st0" x1="537.08" y1="90.75" x2="537.08" y2="106.75"/>
<line class="st0" x1="537.08" y1="-0.25" x2="537.08" y2="15.75"/>
<line class="st0" x1="537.08" y1="30.08" x2="537.08" y2="46.08"/>
<line class="st0" x1="537.08" y1="60.42" x2="537.08" y2="76.42"/>
<line class="st0" x1="555.08" y1="303.08" x2="555.08" y2="319.08"/>
<line class="st0" x1="555.08" y1="333.42" x2="555.08" y2="349.42"/>
<line class="st0" x1="555.08" y1="363.75" x2="555.08" y2="379.75"/>
<line class="st0" x1="555.08" y1="212.08" x2="555.08" y2="228.08"/>
<line class="st0" x1="555.08" y1="242.42" x2="555.08" y2="258.42"/>
<line class="st0" x1="555.08" y1="272.75" x2="555.08" y2="288.75"/>
<line class="st0" x1="555.08" y1="121.08" x2="555.08" y2="137.08"/>
<line class="st0" x1="555.08" y1="151.42" x2="555.08" y2="167.42"/>
<line class="st0" x1="555.08" y1="181.75" x2="555.08" y2="197.75"/>
<line class="st0" x1="555.08" y1="90.75" x2="555.08" y2="106.75"/>
<line class="st0" x1="555.08" y1="-0.25" x2="555.08" y2="15.75"/>
<line class="st0" x1="555.08" y1="30.08" x2="555.08" y2="46.08"/>
<line class="st0" x1="555.08" y1="60.42" x2="555.08" y2="76.42"/>
<line class="st0" x1="591.08" y1="303.08" x2="591.08" y2="319.08"/>
<line class="st0" x1="591.08" y1="333.42" x2="591.08" y2="349.42"/>
<line class="st0" x1="591.08" y1="363.75" x2="591.08" y2="379.75"/>
<line class="st0" x1="591.08" y1="212.08" x2="591.08" y2="228.08"/>
<line class="st0" x1="591.08" y1="242.42" x2="591.08" y2="258.42"/>
<line class="st0" x1="591.08" y1="272.75" x2="591.08" y2="288.75"/>
<line class="st0" x1="591.08" y1="121.08" x2="591.08" y2="137.08"/>
<line class="st0" x1="591.08" y1="151.42" x2="591.08" y2="167.42"/>
<line class="st0" x1="591.08" y1="181.75" x2="591.08" y2="197.75"/>
<line class="st0" x1="591.08" y1="90.75" x2="591.08" y2="106.75"/>
<line class="st0" x1="591.08" y1="-0.25" x2="591.08" y2="15.75"/>
<line class="st0" x1="591.08" y1="30.08" x2="591.08" y2="46.08"/>
<line class="st0" x1="591.08" y1="60.42" x2="591.08" y2="76.42"/>
<line class="st0" x1="609.08" y1="303.08" x2="609.08" y2="319.08"/>
<line class="st0" x1="609.08" y1="333.42" x2="609.08" y2="349.42"/>
<line class="st0" x1="609.08" y1="363.75" x2="609.08" y2="379.75"/>
<line class="st0" x1="609.08" y1="212.08" x2="609.08" y2="228.08"/>
<line class="st0" x1="609.08" y1="242.42" x2="609.08" y2="258.42"/>
<line class="st0" x1="609.08" y1="272.75" x2="609.08" y2="288.75"/>
<line class="st0" x1="609.08" y1="121.08" x2="609.08" y2="137.08"/>
<line class="st0" x1="609.08" y1="151.42" x2="609.08" y2="167.42"/>
<line class="st0" x1="609.08" y1="181.75" x2="609.08" y2="197.75"/>
<line class="st0" x1="609.08" y1="90.75" x2="609.08" y2="106.75"/>
<line class="st0" x1="609.08" y1="-0.25" x2="609.08" y2="15.75"/>
<line class="st0" x1="609.08" y1="30.08" x2="609.08" y2="46.08"/>
<line class="st0" x1="609.08" y1="60.42" x2="609.08" y2="76.42"/>
<polyline class="st0" points="627.08,608.71 573.08,608.71 573.08,1109.98 "/>
<line class="st0" x1="752.08" y1="536.83" x2="736.08" y2="536.83"/>
<line class="st0" x1="721.75" y1="536.83" x2="705.75" y2="536.83"/>
<line class="st0" x1="691.42" y1="536.83" x2="675.42" y2="536.83"/>
<line class="st0" x1="661.08" y1="536.83" x2="645.08" y2="536.83"/>
<line class="st0" x1="752.08" y1="572.83" x2="736.08" y2="572.83"/>
<line class="st0" x1="721.75" y1="572.83" x2="705.75" y2="572.83"/>
<line class="st0" x1="691.42" y1="572.83" x2="675.42" y2="572.83"/>
<line class="st0" x1="661.08" y1="572.83" x2="645.08" y2="572.83"/>
<line class="st0" x1="843.08" y1="572.83" x2="827.08" y2="572.83"/>
<line class="st0" x1="812.75" y1="572.83" x2="796.75" y2="572.83"/>
<line class="st0" x1="782.42" y1="572.83" x2="766.42" y2="572.83"/>
<line class="st0" x1="934.08" y1="572.83" x2="918.08" y2="572.83"/>
<line class="st0" x1="903.75" y1="572.83" x2="887.75" y2="572.83"/>
<line class="st0" x1="873.42" y1="572.83" x2="857.42" y2="572.83"/>
<line class="st0" x1="1025.08" y1="572.83" x2="1009.08" y2="572.83"/>
<line class="st0" x1="994.75" y1="572.83" x2="978.75" y2="572.83"/>
<line class="st0" x1="964.42" y1="572.83" x2="948.42" y2="572.83"/>
<line class="st0" x1="1055.42" y1="572.83" x2="1039.42" y2="572.83"/>
<line class="st0" x1="1146.42" y1="572.83" x2="1130.42" y2="572.83"/>
<line class="st0" x1="1116.08" y1="572.83" x2="1100.08" y2="572.83"/>
<line class="st0" x1="1085.75" y1="572.83" x2="1069.75" y2="572.83"/>
<line class="st0" x1="843.08" y1="536.83" x2="827.08" y2="536.83"/>
<line class="st0" x1="812.75" y1="536.83" x2="796.75" y2="536.83"/>
<line class="st0" x1="782.42" y1="536.83" x2="766.42" y2="536.83"/>
<line class="st0" x1="934.08" y1="536.83" x2="918.08" y2="536.83"/>
<line class="st0" x1="903.75" y1="536.83" x2="887.75" y2="536.83"/>
<line class="st0" x1="873.42" y1="536.83" x2="857.42" y2="536.83"/>
<line class="st0" x1="1025.08" y1="536.83" x2="1009.08" y2="536.83"/>
<line class="st0" x1="994.75" y1="536.83" x2="978.75" y2="536.83"/>
<line class="st0" x1="964.42" y1="536.83" x2="948.42" y2="536.83"/>
<line class="st0" x1="1055.42" y1="536.83" x2="1039.42" y2="536.83"/>
<line class="st0" x1="1146.42" y1="536.83" x2="1130.42" y2="536.83"/>
<line class="st0" x1="1116.08" y1="536.83" x2="1100.08" y2="536.83"/>
<line class="st0" x1="1085.75" y1="536.83" x2="1069.75" y2="536.83"/>
<polyline class="st0" points="645.08,518.83 645.08,554.83 1146.67,554.83 "/>
<path class="st0" d="M519.08,0v498.83c0,11.05-8.95,20-20,20H0"/>
<path class="st0" d="M519.08,1109.6V610.83c0-11.05-8.95-20-20-20H0"/>
<line class="st0" x1="394.08" y1="536.83" x2="410.08" y2="536.83"/>
<line class="st0" x1="424.42" y1="536.83" x2="440.42" y2="536.83"/>
<line class="st0" x1="454.75" y1="536.83" x2="470.75" y2="536.83"/>
<line class="st0" x1="485.08" y1="536.83" x2="501.08" y2="536.83"/>
<line class="st0" x1="394.08" y1="572.83" x2="410.08" y2="572.83"/>
<line class="st0" x1="424.42" y1="572.83" x2="440.42" y2="572.83"/>
<line class="st0" x1="454.75" y1="572.83" x2="470.75" y2="572.83"/>
<line class="st0" x1="485.08" y1="572.83" x2="501.08" y2="572.83"/>
<line class="st0" x1="303.08" y1="572.83" x2="319.08" y2="572.83"/>
<line class="st0" x1="333.42" y1="572.83" x2="349.42" y2="572.83"/>
<line class="st0" x1="363.75" y1="572.83" x2="379.75" y2="572.83"/>
<line class="st0" x1="212.08" y1="572.83" x2="228.08" y2="572.83"/>
<line class="st0" x1="242.42" y1="572.83" x2="258.42" y2="572.83"/>
<line class="st0" x1="272.75" y1="572.83" x2="288.75" y2="572.83"/>
<line class="st0" x1="121.08" y1="572.83" x2="137.08" y2="572.83"/>
<line class="st0" x1="151.42" y1="572.83" x2="167.42" y2="572.83"/>
<line class="st0" x1="181.75" y1="572.83" x2="197.75" y2="572.83"/>
<line class="st0" x1="90.75" y1="572.83" x2="106.75" y2="572.83"/>
<line class="st0" x1="-0.25" y1="572.83" x2="15.75" y2="572.83"/>
<line class="st0" x1="30.08" y1="572.83" x2="46.08" y2="572.83"/>
<line class="st0" x1="60.42" y1="572.83" x2="76.42" y2="572.83"/>
<line class="st0" x1="303.08" y1="536.83" x2="319.08" y2="536.83"/>
<line class="st0" x1="333.42" y1="536.83" x2="349.42" y2="536.83"/>
<line class="st0" x1="363.75" y1="536.83" x2="379.75" y2="536.83"/>
<line class="st0" x1="212.08" y1="536.83" x2="228.08" y2="536.83"/>
<line class="st0" x1="242.42" y1="536.83" x2="258.42" y2="536.83"/>
<line class="st0" x1="272.75" y1="536.83" x2="288.75" y2="536.83"/>
<line class="st0" x1="121.08" y1="536.83" x2="137.08" y2="536.83"/>
<line class="st0" x1="151.42" y1="536.83" x2="167.42" y2="536.83"/>
<line class="st0" x1="181.75" y1="536.83" x2="197.75" y2="536.83"/>
<line class="st0" x1="90.75" y1="536.83" x2="106.75" y2="536.83"/>
<line class="st0" x1="-0.25" y1="536.83" x2="15.75" y2="536.83"/>
<line class="st0" x1="30.08" y1="536.83" x2="46.08" y2="536.83"/>
<line class="st0" x1="60.42" y1="536.83" x2="76.42" y2="536.83"/>
<polyline class="st0" points="501.08,590.83 501.08,554.83 -0.5,554.83 "/>
</svg>
