<?xml version="1.0" encoding="utf-8"?>
<!-- Generator: Adobe Illustrator 24.0.2, SVG Export Plug-In . SVG Version: 6.00 Build 0)  -->
<svg version="1.1" id="Layer_1" xmlns="http://www.w3.org/2000/svg" xmlns:xlink="http://www.w3.org/1999/xlink" x="0px" y="0px"
	 viewBox="0 0 1116.3 1110.42" style="enable-background:new 0 0 1116.3 1110.42;" xml:space="preserve">
<style type="text/css">
	.st0{fill:none;stroke:#231F20;stroke-miterlimit:10;}
	.st1{fill:#D1D3D4;stroke:#231F20;stroke-miterlimit:10;}
</style>
<path class="st0" d="M603.15,0v499.27c0,11.05,8.95,20,20,20h492.65"/>
<path class="st0" d="M603.15,1110.04V611.27c0-11.05,8.95-20,20-20h492.65"/>
<line class="st0" x1="585.15" y1="716.15" x2="585.15" y2="700.15"/>
<line class="st0" x1="585.15" y1="685.81" x2="585.15" y2="669.81"/>
<line class="st0" x1="585.15" y1="655.48" x2="585.15" y2="639.48"/>
<line class="st0" x1="585.15" y1="625.15" x2="585.15" y2="609.15"/>
<line class="st0" x1="531.15" y1="715.9" x2="531.15" y2="699.9"/>
<line class="st0" x1="531.15" y1="685.56" x2="531.15" y2="669.56"/>
<line class="st0" x1="531.15" y1="655.23" x2="531.15" y2="639.23"/>
<line class="st0" x1="531.15" y1="624.9" x2="531.15" y2="608.9"/>
<line class="st0" x1="531.15" y1="806.9" x2="531.15" y2="790.9"/>
<line class="st0" x1="531.15" y1="776.56" x2="531.15" y2="760.56"/>
<line class="st0" x1="531.15" y1="746.23" x2="531.15" y2="730.23"/>
<line class="st0" x1="531.15" y1="897.9" x2="531.15" y2="881.9"/>
<line class="st0" x1="531.15" y1="867.56" x2="531.15" y2="851.56"/>
<line class="st0" x1="531.15" y1="837.23" x2="531.15" y2="821.23"/>
<line class="st0" x1="531.15" y1="988.9" x2="531.15" y2="972.9"/>
<line class="st0" x1="531.15" y1="958.56" x2="531.15" y2="942.56"/>
<line class="st0" x1="531.15" y1="928.23" x2="531.15" y2="912.23"/>
<line class="st0" x1="531.15" y1="1019.23" x2="531.15" y2="1003.23"/>
<line class="st0" x1="531.15" y1="1110.23" x2="531.15" y2="1094.23"/>
<line class="st0" x1="531.15" y1="1079.9" x2="531.15" y2="1063.9"/>
<line class="st0" x1="531.15" y1="1049.56" x2="531.15" y2="1033.56"/>
<line class="st0" x1="585.15" y1="806.9" x2="585.15" y2="790.9"/>
<line class="st0" x1="585.15" y1="776.56" x2="585.15" y2="760.56"/>
<line class="st0" x1="585.15" y1="746.23" x2="585.15" y2="730.23"/>
<line class="st0" x1="585.15" y1="897.9" x2="585.15" y2="881.9"/>
<line class="st0" x1="585.15" y1="867.56" x2="585.15" y2="851.56"/>
<line class="st0" x1="585.15" y1="837.23" x2="585.15" y2="821.23"/>
<line class="st0" x1="585.15" y1="988.9" x2="585.15" y2="972.9"/>
<line class="st0" x1="585.15" y1="958.56" x2="585.15" y2="942.56"/>
<line class="st0" x1="585.15" y1="928.23" x2="585.15" y2="912.23"/>
<line class="st0" x1="585.15" y1="1019.23" x2="585.15" y2="1003.23"/>
<line class="st0" x1="585.15" y1="1110.23" x2="585.15" y2="1094.23"/>
<line class="st0" x1="585.15" y1="1079.9" x2="585.15" y2="1063.9"/>
<line class="st0" x1="585.15" y1="1049.56" x2="585.15" y2="1033.56"/>
<polyline class="st0" points="603.15,609.15 549.15,609.15 549.15,1110.42 "/>
<line class="st0" x1="728.15" y1="537.27" x2="712.15" y2="537.27"/>
<line class="st0" x1="697.82" y1="537.27" x2="681.82" y2="537.27"/>
<line class="st0" x1="667.49" y1="537.27" x2="651.49" y2="537.27"/>
<line class="st0" x1="637.15" y1="537.27" x2="621.15" y2="537.27"/>
<line class="st0" x1="728.15" y1="573.27" x2="712.15" y2="573.27"/>
<line class="st0" x1="697.82" y1="573.27" x2="681.82" y2="573.27"/>
<line class="st0" x1="667.49" y1="573.27" x2="651.49" y2="573.27"/>
<line class="st0" x1="637.15" y1="573.27" x2="621.15" y2="573.27"/>
<line class="st0" x1="817.01" y1="573.27" x2="801.01" y2="573.27"/>
<line class="st0" x1="786.68" y1="573.27" x2="770.68" y2="573.27"/>
<line class="st0" x1="756.34" y1="573.27" x2="740.34" y2="573.27"/>
<line class="st0" x1="908.01" y1="573.27" x2="892.01" y2="573.27"/>
<line class="st0" x1="877.68" y1="573.27" x2="861.68" y2="573.27"/>
<line class="st0" x1="847.34" y1="573.27" x2="831.34" y2="573.27"/>
<line class="st0" x1="996.86" y1="573.27" x2="980.86" y2="573.27"/>
<line class="st0" x1="966.53" y1="573.27" x2="950.53" y2="573.27"/>
<line class="st0" x1="936.2" y1="573.27" x2="920.2" y2="573.27"/>
<line class="st0" x1="1087.86" y1="573.27" x2="1071.86" y2="573.27"/>
<line class="st0" x1="1057.53" y1="573.27" x2="1041.53" y2="573.27"/>
<line class="st0" x1="1027.2" y1="573.27" x2="1011.2" y2="573.27"/>
<line class="st0" x1="1116.05" y1="573.27" x2="1100.05" y2="573.27"/>
<line class="st0" x1="817.01" y1="537.27" x2="801.01" y2="537.27"/>
<line class="st0" x1="786.68" y1="537.27" x2="770.68" y2="537.27"/>
<line class="st0" x1="756.34" y1="537.27" x2="740.34" y2="537.27"/>
<line class="st0" x1="908.01" y1="537.27" x2="892.01" y2="537.27"/>
<line class="st0" x1="877.68" y1="537.27" x2="861.68" y2="537.27"/>
<line class="st0" x1="847.34" y1="537.27" x2="831.34" y2="537.27"/>
<line class="st0" x1="996.86" y1="537.27" x2="980.86" y2="537.27"/>
<line class="st0" x1="966.53" y1="537.27" x2="950.53" y2="537.27"/>
<line class="st0" x1="936.2" y1="537.27" x2="920.2" y2="537.27"/>
<line class="st0" x1="1087.86" y1="537.27" x2="1071.86" y2="537.27"/>
<line class="st0" x1="1057.53" y1="537.27" x2="1041.53" y2="537.27"/>
<line class="st0" x1="1027.2" y1="537.27" x2="1011.2" y2="537.27"/>
<line class="st0" x1="1116.05" y1="537.27" x2="1100.05" y2="537.27"/>
<polyline class="st0" points="621.15,519.27 621.15,555.27 1116.3,555.27 "/>
<path class="st0" d="M513.15,0v499.27c0,11.05-8.95,20-20,20H0.5"/>
<path class="st0" d="M513.15,1110.04V611.27c0-11.05-8.95-20-20-20H0.5"/>
<line class="st0" x1="388.15" y1="537.27" x2="404.15" y2="537.27"/>
<line class="st0" x1="418.48" y1="537.27" x2="434.48" y2="537.27"/>
<line class="st0" x1="448.82" y1="537.27" x2="464.82" y2="537.27"/>
<line class="st0" x1="479.15" y1="537.27" x2="495.15" y2="537.27"/>
<line class="st0" x1="388.15" y1="573.27" x2="404.15" y2="573.27"/>
<line class="st0" x1="418.48" y1="573.27" x2="434.48" y2="573.27"/>
<line class="st0" x1="448.82" y1="573.27" x2="464.82" y2="573.27"/>
<line class="st0" x1="479.15" y1="573.27" x2="495.15" y2="573.27"/>
<line class="st0" x1="299.29" y1="573.27" x2="315.29" y2="573.27"/>
<line class="st0" x1="329.63" y1="573.27" x2="345.63" y2="573.27"/>
<line class="st0" x1="359.96" y1="573.27" x2="375.96" y2="573.27"/>
<line class="st0" x1="208.29" y1="573.27" x2="224.29" y2="573.27"/>
<line class="st0" x1="238.63" y1="573.27" x2="254.63" y2="573.27"/>
<line class="st0" x1="268.96" y1="573.27" x2="284.96" y2="573.27"/>
<line class="st0" x1="119.44" y1="573.27" x2="135.44" y2="573.27"/>
<line class="st0" x1="149.77" y1="573.27" x2="165.77" y2="573.27"/>
<line class="st0" x1="180.11" y1="573.27" x2="196.11" y2="573.27"/>
<line class="st0" x1="28.44" y1="573.27" x2="44.44" y2="573.27"/>
<line class="st0" x1="58.77" y1="573.27" x2="74.77" y2="573.27"/>
<line class="st0" x1="89.11" y1="573.27" x2="105.11" y2="573.27"/>
<line class="st0" x1="0.25" y1="573.27" x2="16.25" y2="573.27"/>
<line class="st0" x1="299.29" y1="537.27" x2="315.29" y2="537.27"/>
<line class="st0" x1="329.63" y1="537.27" x2="345.63" y2="537.27"/>
<line class="st0" x1="359.96" y1="537.27" x2="375.96" y2="537.27"/>
<line class="st0" x1="208.29" y1="537.27" x2="224.29" y2="537.27"/>
<line class="st0" x1="238.63" y1="537.27" x2="254.63" y2="537.27"/>
<line class="st0" x1="268.96" y1="537.27" x2="284.96" y2="537.27"/>
<line class="st0" x1="119.44" y1="537.27" x2="135.44" y2="537.27"/>
<line class="st0" x1="149.77" y1="537.27" x2="165.77" y2="537.27"/>
<line class="st0" x1="180.11" y1="537.27" x2="196.11" y2="537.27"/>
<line class="st0" x1="28.44" y1="537.27" x2="44.44" y2="537.27"/>
<line class="st0" x1="58.77" y1="537.27" x2="74.77" y2="537.27"/>
<line class="st0" x1="89.11" y1="537.27" x2="105.11" y2="537.27"/>
<line class="st0" x1="0.25" y1="537.27" x2="16.25" y2="537.27"/>
<polyline class="st0" points="495.15,591.27 495.15,555.27 0,555.27 "/>
<path class="st1" d="M549.15,667.69c0,0,3.07,8.76,10.3,15.16c6.99,6.2,7.49,12.28,7.63,16.91c0.13,4.37,0,410.27,0,410.27h-17.94
	V667.69z"/>
<line class="st0" x1="567.15" y1="608.9" x2="567.15" y2="655.23"/>
<line class="st0" x1="531.15" y1="394.27" x2="531.15" y2="410.27"/>
<line class="st0" x1="531.15" y1="424.6" x2="531.15" y2="440.6"/>
<line class="st0" x1="531.15" y1="454.94" x2="531.15" y2="470.94"/>
<line class="st0" x1="531.15" y1="485.27" x2="531.15" y2="501.27"/>
<line class="st0" x1="585.15" y1="394.52" x2="585.15" y2="410.52"/>
<line class="st0" x1="585.15" y1="424.85" x2="585.15" y2="440.85"/>
<line class="st0" x1="585.15" y1="455.19" x2="585.15" y2="471.19"/>
<line class="st0" x1="585.15" y1="485.52" x2="585.15" y2="501.52"/>
<line class="st0" x1="585.15" y1="303.52" x2="585.15" y2="319.52"/>
<line class="st0" x1="585.15" y1="333.85" x2="585.15" y2="349.85"/>
<line class="st0" x1="585.15" y1="364.19" x2="585.15" y2="380.19"/>
<line class="st0" x1="585.15" y1="212.52" x2="585.15" y2="228.52"/>
<line class="st0" x1="585.15" y1="242.85" x2="585.15" y2="258.85"/>
<line class="st0" x1="585.15" y1="273.19" x2="585.15" y2="289.19"/>
<line class="st0" x1="585.15" y1="121.52" x2="585.15" y2="137.52"/>
<line class="st0" x1="585.15" y1="151.85" x2="585.15" y2="167.85"/>
<line class="st0" x1="585.15" y1="182.19" x2="585.15" y2="198.19"/>
<line class="st0" x1="585.15" y1="91.19" x2="585.15" y2="107.19"/>
<line class="st0" x1="585.15" y1="0.19" x2="585.15" y2="16.19"/>
<line class="st0" x1="585.15" y1="30.52" x2="585.15" y2="46.52"/>
<line class="st0" x1="585.15" y1="60.85" x2="585.15" y2="76.85"/>
<line class="st0" x1="531.15" y1="303.52" x2="531.15" y2="319.52"/>
<line class="st0" x1="531.15" y1="333.85" x2="531.15" y2="349.85"/>
<line class="st0" x1="531.15" y1="364.19" x2="531.15" y2="380.19"/>
<line class="st0" x1="531.15" y1="212.52" x2="531.15" y2="228.52"/>
<line class="st0" x1="531.15" y1="242.85" x2="531.15" y2="258.85"/>
<line class="st0" x1="531.15" y1="273.19" x2="531.15" y2="289.19"/>
<line class="st0" x1="531.15" y1="121.52" x2="531.15" y2="137.52"/>
<line class="st0" x1="531.15" y1="151.85" x2="531.15" y2="167.85"/>
<line class="st0" x1="531.15" y1="182.19" x2="531.15" y2="198.19"/>
<line class="st0" x1="531.15" y1="91.19" x2="531.15" y2="107.19"/>
<line class="st0" x1="531.15" y1="0.19" x2="531.15" y2="16.19"/>
<line class="st0" x1="531.15" y1="30.52" x2="531.15" y2="46.52"/>
<line class="st0" x1="531.15" y1="60.85" x2="531.15" y2="76.85"/>
<polyline class="st0" points="513.15,501.27 567.15,501.27 567.15,0 "/>
<path class="st1" d="M567.15,442.72c0,0-3.07-8.76-10.3-15.16c-6.99-6.2-7.49-12.28-7.63-16.91c-0.13-4.37,0-410.27,0-410.27h17.94
	V442.72z"/>
<line class="st0" x1="549.16" y1="501.52" x2="549.16" y2="455.19"/>
</svg>
