<?xml version="1.0" encoding="utf-8"?>
<!-- Generator: Adobe Illustrator 24.0.2, SVG Export Plug-In . SVG Version: 6.00 Build 0)  -->
<svg version="1.1" id="Layer_1" xmlns="http://www.w3.org/2000/svg" xmlns:xlink="http://www.w3.org/1999/xlink" x="0px" y="0px"
	 viewBox="0 0 1145.92 1146.91" style="enable-background:new 0 0 1145.92 1146.91;" xml:space="preserve">
<style type="text/css">
	.st0{fill:none;stroke:#231F20;stroke-miterlimit:10;}
</style>
<polyline class="st0" points="519.08,501.52 573.08,501.52 573.08,0 "/>
<polyline class="st0" points="627.08,645.39 573.08,645.39 573.08,1146.6 "/>
<path class="st0" d="M752.83,627.52h-106c-11.05,0-20,8.95-20,20v498.71"/>
<line class="st0" x1="751.83" y1="555.52" x2="735.83" y2="555.52"/>
<line class="st0" x1="721.5" y1="555.52" x2="705.5" y2="555.52"/>
<line class="st0" x1="691.17" y1="555.52" x2="675.17" y2="555.52"/>
<line class="st0" x1="660.83" y1="555.52" x2="644.83" y2="555.52"/>
<line class="st0" x1="751.83" y1="537.52" x2="735.83" y2="537.52"/>
<line class="st0" x1="721.5" y1="537.52" x2="705.5" y2="537.52"/>
<line class="st0" x1="691.17" y1="537.52" x2="675.17" y2="537.52"/>
<line class="st0" x1="660.83" y1="537.52" x2="644.83" y2="537.52"/>
<line class="st0" x1="751.58" y1="591.52" x2="735.58" y2="591.52"/>
<line class="st0" x1="721.25" y1="591.52" x2="705.25" y2="591.52"/>
<line class="st0" x1="690.92" y1="591.52" x2="674.92" y2="591.52"/>
<line class="st0" x1="660.58" y1="591.52" x2="644.58" y2="591.52"/>
<line class="st0" x1="751.58" y1="609.52" x2="735.58" y2="609.52"/>
<line class="st0" x1="721.25" y1="609.52" x2="705.25" y2="609.52"/>
<line class="st0" x1="690.92" y1="609.52" x2="674.92" y2="609.52"/>
<line class="st0" x1="660.58" y1="609.52" x2="644.58" y2="609.52"/>
<line class="st0" x1="842.58" y1="609.52" x2="826.58" y2="609.52"/>
<line class="st0" x1="812.25" y1="609.52" x2="796.25" y2="609.52"/>
<line class="st0" x1="781.92" y1="609.52" x2="765.92" y2="609.52"/>
<line class="st0" x1="933.58" y1="609.52" x2="917.58" y2="609.52"/>
<line class="st0" x1="903.25" y1="609.52" x2="887.25" y2="609.52"/>
<line class="st0" x1="872.92" y1="609.52" x2="856.92" y2="609.52"/>
<line class="st0" x1="1024.58" y1="609.52" x2="1008.58" y2="609.52"/>
<line class="st0" x1="994.25" y1="609.52" x2="978.25" y2="609.52"/>
<line class="st0" x1="963.92" y1="609.52" x2="947.92" y2="609.52"/>
<line class="st0" x1="1054.92" y1="609.52" x2="1038.92" y2="609.52"/>
<line class="st0" x1="1145.92" y1="609.52" x2="1129.92" y2="609.52"/>
<line class="st0" x1="1115.58" y1="609.52" x2="1099.58" y2="609.52"/>
<line class="st0" x1="1085.25" y1="609.52" x2="1069.25" y2="609.52"/>
<line class="st0" x1="842.58" y1="591.56" x2="826.58" y2="591.56"/>
<line class="st0" x1="812.25" y1="591.56" x2="796.25" y2="591.56"/>
<line class="st0" x1="781.92" y1="591.56" x2="765.92" y2="591.56"/>
<line class="st0" x1="933.58" y1="591.56" x2="917.58" y2="591.56"/>
<line class="st0" x1="903.25" y1="591.56" x2="887.25" y2="591.56"/>
<line class="st0" x1="872.92" y1="591.56" x2="856.92" y2="591.56"/>
<line class="st0" x1="1024.58" y1="591.56" x2="1008.58" y2="591.56"/>
<line class="st0" x1="994.25" y1="591.56" x2="978.25" y2="591.56"/>
<line class="st0" x1="963.92" y1="591.56" x2="947.92" y2="591.56"/>
<line class="st0" x1="1054.92" y1="591.56" x2="1038.92" y2="591.56"/>
<line class="st0" x1="1145.92" y1="591.56" x2="1129.92" y2="591.56"/>
<line class="st0" x1="1115.58" y1="591.56" x2="1099.58" y2="591.56"/>
<line class="st0" x1="1085.25" y1="591.56" x2="1069.25" y2="591.56"/>
<line class="st0" x1="842.58" y1="555.5" x2="826.58" y2="555.5"/>
<line class="st0" x1="812.25" y1="555.5" x2="796.25" y2="555.5"/>
<line class="st0" x1="781.92" y1="555.5" x2="765.92" y2="555.5"/>
<line class="st0" x1="933.58" y1="555.5" x2="917.58" y2="555.5"/>
<line class="st0" x1="903.25" y1="555.5" x2="887.25" y2="555.5"/>
<line class="st0" x1="872.92" y1="555.5" x2="856.92" y2="555.5"/>
<line class="st0" x1="1024.58" y1="555.5" x2="1008.58" y2="555.5"/>
<line class="st0" x1="994.25" y1="555.5" x2="978.25" y2="555.5"/>
<line class="st0" x1="963.92" y1="555.5" x2="947.92" y2="555.5"/>
<line class="st0" x1="1054.92" y1="555.5" x2="1038.92" y2="555.5"/>
<line class="st0" x1="1145.92" y1="555.5" x2="1129.92" y2="555.5"/>
<line class="st0" x1="1115.58" y1="555.5" x2="1099.58" y2="555.5"/>
<line class="st0" x1="1085.25" y1="555.5" x2="1069.25" y2="555.5"/>
<line class="st0" x1="842.58" y1="537.54" x2="826.58" y2="537.54"/>
<line class="st0" x1="812.25" y1="537.54" x2="796.25" y2="537.54"/>
<line class="st0" x1="781.92" y1="537.54" x2="765.92" y2="537.54"/>
<line class="st0" x1="933.58" y1="537.54" x2="917.58" y2="537.54"/>
<line class="st0" x1="903.25" y1="537.54" x2="887.25" y2="537.54"/>
<line class="st0" x1="872.92" y1="537.54" x2="856.92" y2="537.54"/>
<line class="st0" x1="1024.58" y1="537.54" x2="1008.58" y2="537.54"/>
<line class="st0" x1="994.25" y1="537.54" x2="978.25" y2="537.54"/>
<line class="st0" x1="963.92" y1="537.54" x2="947.92" y2="537.54"/>
<line class="st0" x1="1054.92" y1="537.54" x2="1038.92" y2="537.54"/>
<line class="st0" x1="1145.92" y1="537.54" x2="1129.92" y2="537.54"/>
<line class="st0" x1="1115.58" y1="537.54" x2="1099.58" y2="537.54"/>
<line class="st0" x1="1085.25" y1="537.54" x2="1069.25" y2="537.54"/>
<line class="st0" x1="555.02" y1="394.58" x2="555.02" y2="410.58"/>
<line class="st0" x1="555.02" y1="424.91" x2="555.02" y2="440.91"/>
<line class="st0" x1="555.02" y1="455.25" x2="555.02" y2="471.25"/>
<line class="st0" x1="555.02" y1="485.58" x2="555.02" y2="501.58"/>
<line class="st0" x1="537.02" y1="394.58" x2="537.02" y2="410.58"/>
<line class="st0" x1="537.02" y1="424.91" x2="537.02" y2="440.91"/>
<line class="st0" x1="537.02" y1="455.25" x2="537.02" y2="471.25"/>
<line class="st0" x1="537.02" y1="485.58" x2="537.02" y2="501.58"/>
<line class="st0" x1="591.02" y1="394.83" x2="591.02" y2="410.83"/>
<line class="st0" x1="591.02" y1="425.16" x2="591.02" y2="441.16"/>
<line class="st0" x1="591.02" y1="455.5" x2="591.02" y2="471.5"/>
<line class="st0" x1="591.02" y1="485.83" x2="591.02" y2="501.83"/>
<line class="st0" x1="609.02" y1="394.83" x2="609.02" y2="410.83"/>
<line class="st0" x1="609.02" y1="425.16" x2="609.02" y2="441.16"/>
<line class="st0" x1="609.02" y1="455.5" x2="609.02" y2="471.5"/>
<line class="st0" x1="609.02" y1="485.83" x2="609.02" y2="501.83"/>
<line class="st0" x1="609.02" y1="303.83" x2="609.02" y2="319.83"/>
<line class="st0" x1="609.02" y1="334.16" x2="609.02" y2="350.16"/>
<line class="st0" x1="609.02" y1="364.5" x2="609.02" y2="380.5"/>
<line class="st0" x1="609.02" y1="212.83" x2="609.02" y2="228.83"/>
<line class="st0" x1="609.02" y1="243.16" x2="609.02" y2="259.16"/>
<line class="st0" x1="609.02" y1="273.5" x2="609.02" y2="289.5"/>
<line class="st0" x1="609.02" y1="121.83" x2="609.02" y2="137.83"/>
<line class="st0" x1="609.02" y1="152.16" x2="609.02" y2="168.16"/>
<line class="st0" x1="609.02" y1="182.5" x2="609.02" y2="198.5"/>
<line class="st0" x1="609.02" y1="91.5" x2="609.02" y2="107.5"/>
<line class="st0" x1="609.02" y1="0.5" x2="609.02" y2="16.5"/>
<line class="st0" x1="609.02" y1="30.83" x2="609.02" y2="46.83"/>
<line class="st0" x1="609.02" y1="61.16" x2="609.02" y2="77.16"/>
<line class="st0" x1="591.06" y1="303.83" x2="591.06" y2="319.83"/>
<line class="st0" x1="591.06" y1="334.16" x2="591.06" y2="350.16"/>
<line class="st0" x1="591.06" y1="364.5" x2="591.06" y2="380.5"/>
<line class="st0" x1="591.06" y1="212.83" x2="591.06" y2="228.83"/>
<line class="st0" x1="591.06" y1="243.16" x2="591.06" y2="259.16"/>
<line class="st0" x1="591.06" y1="273.5" x2="591.06" y2="289.5"/>
<line class="st0" x1="591.06" y1="121.83" x2="591.06" y2="137.83"/>
<line class="st0" x1="591.06" y1="152.16" x2="591.06" y2="168.16"/>
<line class="st0" x1="591.06" y1="182.5" x2="591.06" y2="198.5"/>
<line class="st0" x1="591.06" y1="91.5" x2="591.06" y2="107.5"/>
<line class="st0" x1="591.06" y1="0.5" x2="591.06" y2="16.5"/>
<line class="st0" x1="591.06" y1="30.83" x2="591.06" y2="46.83"/>
<line class="st0" x1="591.06" y1="61.16" x2="591.06" y2="77.16"/>
<line class="st0" x1="555" y1="303.83" x2="555" y2="319.83"/>
<line class="st0" x1="555" y1="334.16" x2="555" y2="350.16"/>
<line class="st0" x1="555" y1="364.5" x2="555" y2="380.5"/>
<line class="st0" x1="555" y1="212.83" x2="555" y2="228.83"/>
<line class="st0" x1="555" y1="243.16" x2="555" y2="259.16"/>
<line class="st0" x1="555" y1="273.5" x2="555" y2="289.5"/>
<line class="st0" x1="555" y1="121.83" x2="555" y2="137.83"/>
<line class="st0" x1="555" y1="152.16" x2="555" y2="168.16"/>
<line class="st0" x1="555" y1="182.5" x2="555" y2="198.5"/>
<line class="st0" x1="555" y1="91.5" x2="555" y2="107.5"/>
<line class="st0" x1="555" y1="0.5" x2="555" y2="16.5"/>
<line class="st0" x1="555" y1="30.83" x2="555" y2="46.83"/>
<line class="st0" x1="555" y1="61.16" x2="555" y2="77.16"/>
<line class="st0" x1="537.04" y1="303.83" x2="537.04" y2="319.83"/>
<line class="st0" x1="537.04" y1="334.16" x2="537.04" y2="350.16"/>
<line class="st0" x1="537.04" y1="364.5" x2="537.04" y2="380.5"/>
<line class="st0" x1="537.04" y1="212.83" x2="537.04" y2="228.83"/>
<line class="st0" x1="537.04" y1="243.16" x2="537.04" y2="259.16"/>
<line class="st0" x1="537.04" y1="273.5" x2="537.04" y2="289.5"/>
<line class="st0" x1="537.04" y1="121.83" x2="537.04" y2="137.83"/>
<line class="st0" x1="537.04" y1="152.16" x2="537.04" y2="168.16"/>
<line class="st0" x1="537.04" y1="182.5" x2="537.04" y2="198.5"/>
<line class="st0" x1="537.04" y1="91.5" x2="537.04" y2="107.5"/>
<line class="st0" x1="537.04" y1="0.5" x2="537.04" y2="16.5"/>
<line class="st0" x1="537.04" y1="30.83" x2="537.04" y2="46.83"/>
<line class="st0" x1="537.04" y1="61.16" x2="537.04" y2="77.16"/>
<line class="st0" x1="590.9" y1="752.33" x2="590.9" y2="736.33"/>
<line class="st0" x1="590.9" y1="722" x2="590.9" y2="706"/>
<line class="st0" x1="590.9" y1="691.66" x2="590.9" y2="675.66"/>
<line class="st0" x1="590.9" y1="661.33" x2="590.9" y2="645.33"/>
<line class="st0" x1="608.9" y1="752.33" x2="608.9" y2="736.33"/>
<line class="st0" x1="608.9" y1="722" x2="608.9" y2="706"/>
<line class="st0" x1="608.9" y1="691.66" x2="608.9" y2="675.66"/>
<line class="st0" x1="608.9" y1="661.33" x2="608.9" y2="645.33"/>
<line class="st0" x1="554.9" y1="752.08" x2="554.9" y2="736.08"/>
<line class="st0" x1="554.9" y1="721.75" x2="554.9" y2="705.75"/>
<line class="st0" x1="554.9" y1="691.41" x2="554.9" y2="675.41"/>
<line class="st0" x1="554.9" y1="661.08" x2="554.9" y2="645.08"/>
<line class="st0" x1="536.9" y1="752.08" x2="536.9" y2="736.08"/>
<line class="st0" x1="536.9" y1="721.75" x2="536.9" y2="705.75"/>
<line class="st0" x1="536.9" y1="691.41" x2="536.9" y2="675.41"/>
<line class="st0" x1="536.9" y1="661.08" x2="536.9" y2="645.08"/>
<line class="st0" x1="536.9" y1="843.08" x2="536.9" y2="827.08"/>
<line class="st0" x1="536.9" y1="812.75" x2="536.9" y2="796.75"/>
<line class="st0" x1="536.9" y1="782.41" x2="536.9" y2="766.41"/>
<line class="st0" x1="536.9" y1="934.08" x2="536.9" y2="918.08"/>
<line class="st0" x1="536.9" y1="903.75" x2="536.9" y2="887.75"/>
<line class="st0" x1="536.9" y1="873.41" x2="536.9" y2="857.41"/>
<line class="st0" x1="536.9" y1="1025.08" x2="536.9" y2="1009.08"/>
<line class="st0" x1="536.9" y1="994.75" x2="536.9" y2="978.75"/>
<line class="st0" x1="536.9" y1="964.41" x2="536.9" y2="948.41"/>
<line class="st0" x1="536.9" y1="1055.41" x2="536.9" y2="1039.41"/>
<line class="st0" x1="536.9" y1="1146.41" x2="536.9" y2="1130.41"/>
<line class="st0" x1="536.9" y1="1116.08" x2="536.9" y2="1100.08"/>
<line class="st0" x1="536.9" y1="1085.75" x2="536.9" y2="1069.75"/>
<line class="st0" x1="554.86" y1="843.08" x2="554.86" y2="827.08"/>
<line class="st0" x1="554.86" y1="812.75" x2="554.86" y2="796.75"/>
<line class="st0" x1="554.86" y1="782.41" x2="554.86" y2="766.41"/>
<line class="st0" x1="554.86" y1="934.08" x2="554.86" y2="918.08"/>
<line class="st0" x1="554.86" y1="903.75" x2="554.86" y2="887.75"/>
<line class="st0" x1="554.86" y1="873.41" x2="554.86" y2="857.41"/>
<line class="st0" x1="554.86" y1="1025.08" x2="554.86" y2="1009.08"/>
<line class="st0" x1="554.86" y1="994.75" x2="554.86" y2="978.75"/>
<line class="st0" x1="554.86" y1="964.41" x2="554.86" y2="948.41"/>
<line class="st0" x1="554.86" y1="1055.41" x2="554.86" y2="1039.41"/>
<line class="st0" x1="554.86" y1="1146.41" x2="554.86" y2="1130.41"/>
<line class="st0" x1="554.86" y1="1116.08" x2="554.86" y2="1100.08"/>
<line class="st0" x1="554.86" y1="1085.75" x2="554.86" y2="1069.75"/>
<line class="st0" x1="590.92" y1="843.08" x2="590.92" y2="827.08"/>
<line class="st0" x1="590.92" y1="812.75" x2="590.92" y2="796.75"/>
<line class="st0" x1="590.92" y1="782.41" x2="590.92" y2="766.41"/>
<line class="st0" x1="590.92" y1="934.08" x2="590.92" y2="918.08"/>
<line class="st0" x1="590.92" y1="903.75" x2="590.92" y2="887.75"/>
<line class="st0" x1="590.92" y1="873.41" x2="590.92" y2="857.41"/>
<line class="st0" x1="590.92" y1="1025.08" x2="590.92" y2="1009.08"/>
<line class="st0" x1="590.92" y1="994.75" x2="590.92" y2="978.75"/>
<line class="st0" x1="590.92" y1="964.41" x2="590.92" y2="948.41"/>
<line class="st0" x1="590.92" y1="1055.41" x2="590.92" y2="1039.41"/>
<line class="st0" x1="590.92" y1="1146.41" x2="590.92" y2="1130.41"/>
<line class="st0" x1="590.92" y1="1116.08" x2="590.92" y2="1100.08"/>
<line class="st0" x1="590.92" y1="1085.75" x2="590.92" y2="1069.75"/>
<line class="st0" x1="608.88" y1="843.08" x2="608.88" y2="827.08"/>
<line class="st0" x1="608.88" y1="812.75" x2="608.88" y2="796.75"/>
<line class="st0" x1="608.88" y1="782.41" x2="608.88" y2="766.41"/>
<line class="st0" x1="608.88" y1="934.08" x2="608.88" y2="918.08"/>
<line class="st0" x1="608.88" y1="903.75" x2="608.88" y2="887.75"/>
<line class="st0" x1="608.88" y1="873.41" x2="608.88" y2="857.41"/>
<line class="st0" x1="608.88" y1="1025.08" x2="608.88" y2="1009.08"/>
<line class="st0" x1="608.88" y1="994.75" x2="608.88" y2="978.75"/>
<line class="st0" x1="608.88" y1="964.41" x2="608.88" y2="948.41"/>
<line class="st0" x1="608.88" y1="1055.41" x2="608.88" y2="1039.41"/>
<line class="st0" x1="608.88" y1="1146.41" x2="608.88" y2="1130.41"/>
<line class="st0" x1="608.88" y1="1116.08" x2="608.88" y2="1100.08"/>
<line class="st0" x1="608.88" y1="1085.75" x2="608.88" y2="1069.75"/>
<polyline class="st0" points="644.83,519.52 644.83,573.52 753.33,573.52 "/>
<path class="st0" d="M752.83,519.52h-106c-11.05,0-20-8.95-20-20V0.5"/>
<path class="st0" d="M1145.67,627.52H646.83"/>
<line class="st0" x1="644.83" y1="573.52" x2="1146.17" y2="573.52"/>
<path class="st0" d="M1145.67,519.52H646.83"/>
<path class="st0" d="M393.08,519.52h106c11.05,0,20-8.95,20-20V0.5"/>
<line class="st0" x1="394.08" y1="591.52" x2="410.08" y2="591.52"/>
<line class="st0" x1="424.42" y1="591.52" x2="440.42" y2="591.52"/>
<line class="st0" x1="454.75" y1="591.52" x2="470.75" y2="591.52"/>
<line class="st0" x1="485.08" y1="591.52" x2="501.08" y2="591.52"/>
<line class="st0" x1="394.08" y1="609.52" x2="410.08" y2="609.52"/>
<line class="st0" x1="424.42" y1="609.52" x2="440.42" y2="609.52"/>
<line class="st0" x1="454.75" y1="609.52" x2="470.75" y2="609.52"/>
<line class="st0" x1="485.08" y1="609.52" x2="501.08" y2="609.52"/>
<line class="st0" x1="394.33" y1="555.52" x2="410.33" y2="555.52"/>
<line class="st0" x1="424.67" y1="555.52" x2="440.67" y2="555.52"/>
<line class="st0" x1="455" y1="555.52" x2="471" y2="555.52"/>
<line class="st0" x1="485.33" y1="555.52" x2="501.33" y2="555.52"/>
<line class="st0" x1="394.33" y1="537.52" x2="410.33" y2="537.52"/>
<line class="st0" x1="424.67" y1="537.52" x2="440.67" y2="537.52"/>
<line class="st0" x1="455" y1="537.52" x2="471" y2="537.52"/>
<line class="st0" x1="485.33" y1="537.52" x2="501.33" y2="537.52"/>
<line class="st0" x1="303.33" y1="537.52" x2="319.33" y2="537.52"/>
<line class="st0" x1="333.67" y1="537.52" x2="349.67" y2="537.52"/>
<line class="st0" x1="364" y1="537.52" x2="380" y2="537.52"/>
<line class="st0" x1="212.33" y1="537.52" x2="228.33" y2="537.52"/>
<line class="st0" x1="242.67" y1="537.52" x2="258.67" y2="537.52"/>
<line class="st0" x1="273" y1="537.52" x2="289" y2="537.52"/>
<line class="st0" x1="121.33" y1="537.52" x2="137.33" y2="537.52"/>
<line class="st0" x1="151.67" y1="537.52" x2="167.67" y2="537.52"/>
<line class="st0" x1="182" y1="537.52" x2="198" y2="537.52"/>
<line class="st0" x1="91" y1="537.52" x2="107" y2="537.52"/>
<line class="st0" x1="0" y1="537.52" x2="16" y2="537.52"/>
<line class="st0" x1="30.33" y1="537.52" x2="46.33" y2="537.52"/>
<line class="st0" x1="60.67" y1="537.52" x2="76.67" y2="537.52"/>
<line class="st0" x1="303.33" y1="555.48" x2="319.33" y2="555.48"/>
<line class="st0" x1="333.67" y1="555.48" x2="349.67" y2="555.48"/>
<line class="st0" x1="364" y1="555.48" x2="380" y2="555.48"/>
<line class="st0" x1="212.33" y1="555.48" x2="228.33" y2="555.48"/>
<line class="st0" x1="242.67" y1="555.48" x2="258.67" y2="555.48"/>
<line class="st0" x1="273" y1="555.48" x2="289" y2="555.48"/>
<line class="st0" x1="121.33" y1="555.48" x2="137.33" y2="555.48"/>
<line class="st0" x1="151.67" y1="555.48" x2="167.67" y2="555.48"/>
<line class="st0" x1="182" y1="555.48" x2="198" y2="555.48"/>
<line class="st0" x1="91" y1="555.48" x2="107" y2="555.48"/>
<line class="st0" x1="0" y1="555.48" x2="16" y2="555.48"/>
<line class="st0" x1="30.33" y1="555.48" x2="46.33" y2="555.48"/>
<line class="st0" x1="60.67" y1="555.48" x2="76.67" y2="555.48"/>
<line class="st0" x1="303.33" y1="591.54" x2="319.33" y2="591.54"/>
<line class="st0" x1="333.67" y1="591.54" x2="349.67" y2="591.54"/>
<line class="st0" x1="364" y1="591.54" x2="380" y2="591.54"/>
<line class="st0" x1="212.33" y1="591.54" x2="228.33" y2="591.54"/>
<line class="st0" x1="242.67" y1="591.54" x2="258.67" y2="591.54"/>
<line class="st0" x1="273" y1="591.54" x2="289" y2="591.54"/>
<line class="st0" x1="121.33" y1="591.54" x2="137.33" y2="591.54"/>
<line class="st0" x1="151.67" y1="591.54" x2="167.67" y2="591.54"/>
<line class="st0" x1="182" y1="591.54" x2="198" y2="591.54"/>
<line class="st0" x1="91" y1="591.54" x2="107" y2="591.54"/>
<line class="st0" x1="0" y1="591.54" x2="16" y2="591.54"/>
<line class="st0" x1="30.33" y1="591.54" x2="46.33" y2="591.54"/>
<line class="st0" x1="60.67" y1="591.54" x2="76.67" y2="591.54"/>
<line class="st0" x1="303.33" y1="609.5" x2="319.33" y2="609.5"/>
<line class="st0" x1="333.67" y1="609.5" x2="349.67" y2="609.5"/>
<line class="st0" x1="364" y1="609.5" x2="380" y2="609.5"/>
<line class="st0" x1="212.33" y1="609.5" x2="228.33" y2="609.5"/>
<line class="st0" x1="242.67" y1="609.5" x2="258.67" y2="609.5"/>
<line class="st0" x1="273" y1="609.5" x2="289" y2="609.5"/>
<line class="st0" x1="121.33" y1="609.5" x2="137.33" y2="609.5"/>
<line class="st0" x1="151.67" y1="609.5" x2="167.67" y2="609.5"/>
<line class="st0" x1="182" y1="609.5" x2="198" y2="609.5"/>
<line class="st0" x1="91" y1="609.5" x2="107" y2="609.5"/>
<line class="st0" x1="0" y1="609.5" x2="16" y2="609.5"/>
<line class="st0" x1="30.33" y1="609.5" x2="46.33" y2="609.5"/>
<line class="st0" x1="60.67" y1="609.5" x2="76.67" y2="609.5"/>
<polyline class="st0" points="501.08,627.52 501.08,573.52 392.58,573.52 "/>
<path class="st0" d="M393.08,627.52h106c11.05,0,20,8.95,20,20v498.71"/>
<path class="st0" d="M0.25,519.52h498.83"/>
<line class="st0" x1="501.08" y1="573.52" x2="-0.25" y2="573.52"/>
<path class="st0" d="M0.25,627.52h498.83"/>
</svg>
