<?xml version="1.0" encoding="utf-8"?>
<!-- Generator: Adobe Illustrator 24.0.2, SVG Export Plug-In . SVG Version: 6.00 Build 0)  -->
<svg version="1.1" id="Layer_1" xmlns="http://www.w3.org/2000/svg" xmlns:xlink="http://www.w3.org/1999/xlink" x="0px" y="0px"
	 viewBox="0 0 1147 1161.17" style="enable-background:new 0 0 1147 1161.17;" xml:space="preserve">
<style type="text/css">
	.st0{fill:none;stroke:#231F20;stroke-miterlimit:10;}
	.st1{fill:#D1D3D4;stroke:#231F20;stroke-miterlimit:10;}
</style>
<line class="st0" x1="691.75" y1="571.65" x2="645.42" y2="571.65"/>
<path class="st0" d="M1146.5,643.58H647.42c-11.05,0-20,8.95-20,20v499.08"/>
<path class="st0" d="M1146.5,517.58H647.42c-11.05,0-20-8.95-20-20v-106"/>
<line class="st0" x1="752.42" y1="625.58" x2="736.42" y2="625.58"/>
<line class="st0" x1="722.09" y1="625.58" x2="706.09" y2="625.58"/>
<line class="st0" x1="691.75" y1="625.58" x2="675.75" y2="625.58"/>
<line class="st0" x1="661.42" y1="625.58" x2="645.42" y2="625.58"/>
<line class="st0" x1="843.42" y1="625.58" x2="827.42" y2="625.58"/>
<line class="st0" x1="813.09" y1="625.58" x2="797.09" y2="625.58"/>
<line class="st0" x1="782.75" y1="625.58" x2="766.75" y2="625.58"/>
<line class="st0" x1="934.42" y1="625.58" x2="918.42" y2="625.58"/>
<line class="st0" x1="904.09" y1="625.58" x2="888.09" y2="625.58"/>
<line class="st0" x1="873.75" y1="625.58" x2="857.75" y2="625.58"/>
<line class="st0" x1="1025.42" y1="625.58" x2="1009.42" y2="625.58"/>
<line class="st0" x1="995.09" y1="625.58" x2="979.09" y2="625.58"/>
<line class="st0" x1="964.75" y1="625.58" x2="948.75" y2="625.58"/>
<line class="st0" x1="1116.42" y1="625.58" x2="1100.42" y2="625.58"/>
<line class="st0" x1="1086.09" y1="625.58" x2="1070.09" y2="625.58"/>
<line class="st0" x1="1055.75" y1="625.58" x2="1039.75" y2="625.58"/>
<line class="st0" x1="1146.75" y1="625.58" x2="1130.75" y2="625.58"/>
<line class="st0" x1="843.42" y1="607.58" x2="827.42" y2="607.58"/>
<line class="st0" x1="813.09" y1="607.58" x2="797.09" y2="607.58"/>
<line class="st0" x1="782.75" y1="607.58" x2="766.75" y2="607.58"/>
<line class="st0" x1="934.42" y1="607.58" x2="918.42" y2="607.58"/>
<line class="st0" x1="904.09" y1="607.58" x2="888.09" y2="607.58"/>
<line class="st0" x1="873.75" y1="607.58" x2="857.75" y2="607.58"/>
<line class="st0" x1="1025.42" y1="607.58" x2="1009.42" y2="607.58"/>
<line class="st0" x1="995.09" y1="607.58" x2="979.09" y2="607.58"/>
<line class="st0" x1="964.75" y1="607.58" x2="948.75" y2="607.58"/>
<line class="st0" x1="1116.42" y1="607.58" x2="1100.42" y2="607.58"/>
<line class="st0" x1="1086.09" y1="607.58" x2="1070.09" y2="607.58"/>
<line class="st0" x1="1055.75" y1="607.58" x2="1039.75" y2="607.58"/>
<line class="st0" x1="1146.75" y1="607.58" x2="1130.75" y2="607.58"/>
<line class="st0" x1="843.42" y1="553.58" x2="827.42" y2="553.58"/>
<line class="st0" x1="813.09" y1="553.58" x2="797.09" y2="553.58"/>
<line class="st0" x1="782.75" y1="553.58" x2="766.75" y2="553.58"/>
<line class="st0" x1="934.42" y1="553.58" x2="918.42" y2="553.58"/>
<line class="st0" x1="904.09" y1="553.58" x2="888.09" y2="553.58"/>
<line class="st0" x1="873.75" y1="553.58" x2="857.75" y2="553.58"/>
<line class="st0" x1="1025.42" y1="553.58" x2="1009.42" y2="553.58"/>
<line class="st0" x1="995.09" y1="553.58" x2="979.09" y2="553.58"/>
<line class="st0" x1="964.75" y1="553.58" x2="948.75" y2="553.58"/>
<line class="st0" x1="1116.42" y1="553.58" x2="1100.42" y2="553.58"/>
<line class="st0" x1="1086.09" y1="553.58" x2="1070.09" y2="553.58"/>
<line class="st0" x1="1055.75" y1="553.58" x2="1039.75" y2="553.58"/>
<line class="st0" x1="1146.75" y1="553.58" x2="1130.75" y2="553.58"/>
<line class="st0" x1="843.42" y1="535.58" x2="827.42" y2="535.58"/>
<line class="st0" x1="813.09" y1="535.58" x2="797.09" y2="535.58"/>
<line class="st0" x1="782.75" y1="535.58" x2="766.75" y2="535.58"/>
<line class="st0" x1="934.42" y1="535.58" x2="918.42" y2="535.58"/>
<line class="st0" x1="904.09" y1="535.58" x2="888.09" y2="535.58"/>
<line class="st0" x1="873.75" y1="535.58" x2="857.75" y2="535.58"/>
<line class="st0" x1="1025.42" y1="535.58" x2="1009.42" y2="535.58"/>
<line class="st0" x1="995.09" y1="535.58" x2="979.09" y2="535.58"/>
<line class="st0" x1="964.75" y1="535.58" x2="948.75" y2="535.58"/>
<line class="st0" x1="1116.42" y1="535.58" x2="1100.42" y2="535.58"/>
<line class="st0" x1="1086.09" y1="535.58" x2="1070.09" y2="535.58"/>
<line class="st0" x1="1055.75" y1="535.58" x2="1039.75" y2="535.58"/>
<line class="st0" x1="1146.75" y1="535.58" x2="1130.75" y2="535.58"/>
<line class="st0" x1="752.42" y1="607.58" x2="736.42" y2="607.58"/>
<line class="st0" x1="722.09" y1="607.58" x2="706.09" y2="607.58"/>
<line class="st0" x1="691.75" y1="607.58" x2="675.75" y2="607.58"/>
<line class="st0" x1="661.42" y1="607.58" x2="645.42" y2="607.58"/>
<path class="st0" d="M627.42-1.5v499.08c0,11.05,8.95,20,20,20h499.08"/>
<line class="st0" x1="752.42" y1="553.58" x2="736.42" y2="553.58"/>
<line class="st0" x1="722.09" y1="553.58" x2="706.09" y2="553.58"/>
<line class="st0" x1="691.75" y1="553.58" x2="675.75" y2="553.58"/>
<line class="st0" x1="661.42" y1="553.58" x2="645.42" y2="553.58"/>
<line class="st0" x1="752.42" y1="535.58" x2="736.42" y2="535.58"/>
<line class="st0" x1="722.09" y1="535.58" x2="706.09" y2="535.58"/>
<line class="st0" x1="691.75" y1="535.58" x2="675.75" y2="535.58"/>
<line class="st0" x1="661.42" y1="535.58" x2="645.42" y2="535.58"/>
<polyline class="st0" points="645.42,517.58 645.42,589.58 1147,589.58 "/>
<path class="st1" d="M704.34,589.58c0,0,8.76-3.07,15.16-10.3c6.2-6.99,12.28-7.49,16.91-7.63c4.37-0.13,410.58,0,410.58,0v17.94
	H704.34z"/>
<line class="st0" x1="455.25" y1="589.52" x2="501.58" y2="589.52"/>
<path class="st0" d="M0.5,517.58h499.08c11.05,0,20-8.95,20-20V-1.5"/>
<path class="st0" d="M0.5,643.58h499.08c11.05,0,20,8.95,20,20v106"/>
<line class="st0" x1="394.58" y1="535.58" x2="410.58" y2="535.58"/>
<line class="st0" x1="424.92" y1="535.58" x2="440.92" y2="535.58"/>
<line class="st0" x1="455.25" y1="535.58" x2="471.25" y2="535.58"/>
<line class="st0" x1="485.58" y1="535.58" x2="501.58" y2="535.58"/>
<line class="st0" x1="303.58" y1="535.58" x2="319.58" y2="535.58"/>
<line class="st0" x1="333.92" y1="535.58" x2="349.92" y2="535.58"/>
<line class="st0" x1="364.25" y1="535.58" x2="380.25" y2="535.58"/>
<line class="st0" x1="212.58" y1="535.58" x2="228.58" y2="535.58"/>
<line class="st0" x1="242.92" y1="535.58" x2="258.92" y2="535.58"/>
<line class="st0" x1="273.25" y1="535.58" x2="289.25" y2="535.58"/>
<line class="st0" x1="121.58" y1="535.58" x2="137.58" y2="535.58"/>
<line class="st0" x1="151.92" y1="535.58" x2="167.92" y2="535.58"/>
<line class="st0" x1="182.25" y1="535.58" x2="198.25" y2="535.58"/>
<line class="st0" x1="30.58" y1="535.58" x2="46.58" y2="535.58"/>
<line class="st0" x1="60.92" y1="535.58" x2="76.92" y2="535.58"/>
<line class="st0" x1="91.25" y1="535.58" x2="107.25" y2="535.58"/>
<line class="st0" x1="0.25" y1="535.58" x2="16.25" y2="535.58"/>
<line class="st0" x1="303.58" y1="553.58" x2="319.58" y2="553.58"/>
<line class="st0" x1="333.92" y1="553.58" x2="349.92" y2="553.58"/>
<line class="st0" x1="364.25" y1="553.58" x2="380.25" y2="553.58"/>
<line class="st0" x1="212.58" y1="553.58" x2="228.58" y2="553.58"/>
<line class="st0" x1="242.92" y1="553.58" x2="258.92" y2="553.58"/>
<line class="st0" x1="273.25" y1="553.58" x2="289.25" y2="553.58"/>
<line class="st0" x1="121.58" y1="553.58" x2="137.58" y2="553.58"/>
<line class="st0" x1="151.92" y1="553.58" x2="167.92" y2="553.58"/>
<line class="st0" x1="182.25" y1="553.58" x2="198.25" y2="553.58"/>
<line class="st0" x1="30.58" y1="553.58" x2="46.58" y2="553.58"/>
<line class="st0" x1="60.92" y1="553.58" x2="76.92" y2="553.58"/>
<line class="st0" x1="91.25" y1="553.58" x2="107.25" y2="553.58"/>
<line class="st0" x1="0.25" y1="553.58" x2="16.25" y2="553.58"/>
<line class="st0" x1="303.58" y1="607.58" x2="319.58" y2="607.58"/>
<line class="st0" x1="333.92" y1="607.58" x2="349.92" y2="607.58"/>
<line class="st0" x1="364.25" y1="607.58" x2="380.25" y2="607.58"/>
<line class="st0" x1="212.58" y1="607.58" x2="228.58" y2="607.58"/>
<line class="st0" x1="242.92" y1="607.58" x2="258.92" y2="607.58"/>
<line class="st0" x1="273.25" y1="607.58" x2="289.25" y2="607.58"/>
<line class="st0" x1="121.58" y1="607.58" x2="137.58" y2="607.58"/>
<line class="st0" x1="151.92" y1="607.58" x2="167.92" y2="607.58"/>
<line class="st0" x1="182.25" y1="607.58" x2="198.25" y2="607.58"/>
<line class="st0" x1="30.58" y1="607.58" x2="46.58" y2="607.58"/>
<line class="st0" x1="60.92" y1="607.58" x2="76.92" y2="607.58"/>
<line class="st0" x1="91.25" y1="607.58" x2="107.25" y2="607.58"/>
<line class="st0" x1="0.25" y1="607.58" x2="16.25" y2="607.58"/>
<line class="st0" x1="303.58" y1="625.58" x2="319.58" y2="625.58"/>
<line class="st0" x1="333.92" y1="625.58" x2="349.92" y2="625.58"/>
<line class="st0" x1="364.25" y1="625.58" x2="380.25" y2="625.58"/>
<line class="st0" x1="212.58" y1="625.58" x2="228.58" y2="625.58"/>
<line class="st0" x1="242.92" y1="625.58" x2="258.92" y2="625.58"/>
<line class="st0" x1="273.25" y1="625.58" x2="289.25" y2="625.58"/>
<line class="st0" x1="121.58" y1="625.58" x2="137.58" y2="625.58"/>
<line class="st0" x1="151.92" y1="625.58" x2="167.92" y2="625.58"/>
<line class="st0" x1="182.25" y1="625.58" x2="198.25" y2="625.58"/>
<line class="st0" x1="30.58" y1="625.58" x2="46.58" y2="625.58"/>
<line class="st0" x1="60.92" y1="625.58" x2="76.92" y2="625.58"/>
<line class="st0" x1="91.25" y1="625.58" x2="107.25" y2="625.58"/>
<line class="st0" x1="0.25" y1="625.58" x2="16.25" y2="625.58"/>
<line class="st0" x1="394.58" y1="553.58" x2="410.58" y2="553.58"/>
<line class="st0" x1="424.92" y1="553.58" x2="440.92" y2="553.58"/>
<line class="st0" x1="455.25" y1="553.58" x2="471.25" y2="553.58"/>
<line class="st0" x1="485.58" y1="553.58" x2="501.58" y2="553.58"/>
<path class="st0" d="M519.58,1162.67V663.58c0-11.05-8.95-20-20-20H0.5"/>
<line class="st0" x1="394.58" y1="607.58" x2="410.58" y2="607.58"/>
<line class="st0" x1="424.92" y1="607.58" x2="440.92" y2="607.58"/>
<line class="st0" x1="455.25" y1="607.58" x2="471.25" y2="607.58"/>
<line class="st0" x1="485.58" y1="607.58" x2="501.58" y2="607.58"/>
<line class="st0" x1="394.58" y1="625.58" x2="410.58" y2="625.58"/>
<line class="st0" x1="424.92" y1="625.58" x2="440.92" y2="625.58"/>
<line class="st0" x1="455.25" y1="625.58" x2="471.25" y2="625.58"/>
<line class="st0" x1="485.58" y1="625.58" x2="501.58" y2="625.58"/>
<polyline class="st0" points="501.58,643.58 501.58,571.58 0,571.58 "/>
<path class="st1" d="M442.66,571.58c0,0-8.76,3.07-15.16,10.3c-6.2,6.99-12.28,7.49-16.91,7.63c-4.37,0.13-410.58,0-410.58,0
	l0-17.94H442.66z"/>
<polyline class="st0" points="519.58,499.58 573.33,499.58 573.33,-2 "/>
<line class="st0" x1="609.33" y1="768.58" x2="609.33" y2="752.58"/>
<line class="st0" x1="609.33" y1="738.25" x2="609.33" y2="722.25"/>
<line class="st0" x1="609.33" y1="707.92" x2="609.33" y2="691.92"/>
<line class="st0" x1="609.33" y1="677.58" x2="609.33" y2="661.58"/>
<line class="st0" x1="591.33" y1="768.58" x2="591.33" y2="752.58"/>
<line class="st0" x1="591.33" y1="738.25" x2="591.33" y2="722.25"/>
<line class="st0" x1="591.33" y1="707.92" x2="591.33" y2="691.92"/>
<line class="st0" x1="591.33" y1="677.58" x2="591.33" y2="661.58"/>
<line class="st0" x1="555.58" y1="768.58" x2="555.58" y2="752.58"/>
<line class="st0" x1="555.58" y1="738.25" x2="555.58" y2="722.25"/>
<line class="st0" x1="555.58" y1="707.92" x2="555.58" y2="691.92"/>
<line class="st0" x1="555.58" y1="677.58" x2="555.58" y2="661.58"/>
<line class="st0" x1="537.58" y1="768.58" x2="537.58" y2="752.58"/>
<line class="st0" x1="537.58" y1="738.25" x2="537.58" y2="722.25"/>
<line class="st0" x1="537.58" y1="707.92" x2="537.58" y2="691.92"/>
<line class="st0" x1="537.58" y1="677.58" x2="537.58" y2="661.58"/>
<line class="st0" x1="537.58" y1="859.58" x2="537.58" y2="843.58"/>
<line class="st0" x1="537.58" y1="829.25" x2="537.58" y2="813.25"/>
<line class="st0" x1="537.58" y1="798.92" x2="537.58" y2="782.92"/>
<line class="st0" x1="537.58" y1="950.58" x2="537.58" y2="934.58"/>
<line class="st0" x1="537.58" y1="920.25" x2="537.58" y2="904.25"/>
<line class="st0" x1="537.58" y1="889.92" x2="537.58" y2="873.92"/>
<line class="st0" x1="537.58" y1="1041.58" x2="537.58" y2="1025.58"/>
<line class="st0" x1="537.58" y1="1011.25" x2="537.58" y2="995.25"/>
<line class="st0" x1="537.58" y1="980.92" x2="537.58" y2="964.92"/>
<line class="st0" x1="537.58" y1="1071.92" x2="537.58" y2="1055.92"/>
<line class="st0" x1="537.58" y1="1162.92" x2="537.58" y2="1146.92"/>
<line class="st0" x1="537.58" y1="1132.58" x2="537.58" y2="1116.58"/>
<line class="st0" x1="537.58" y1="1102.25" x2="537.58" y2="1086.25"/>
<line class="st0" x1="555.58" y1="859.58" x2="555.58" y2="843.58"/>
<line class="st0" x1="555.58" y1="829.25" x2="555.58" y2="813.25"/>
<line class="st0" x1="555.58" y1="798.92" x2="555.58" y2="782.92"/>
<line class="st0" x1="555.58" y1="950.58" x2="555.58" y2="934.58"/>
<line class="st0" x1="555.58" y1="920.25" x2="555.58" y2="904.25"/>
<line class="st0" x1="555.58" y1="889.92" x2="555.58" y2="873.92"/>
<line class="st0" x1="555.58" y1="1041.58" x2="555.58" y2="1025.58"/>
<line class="st0" x1="555.58" y1="1011.25" x2="555.58" y2="995.25"/>
<line class="st0" x1="555.58" y1="980.92" x2="555.58" y2="964.92"/>
<line class="st0" x1="555.58" y1="1071.92" x2="555.58" y2="1055.92"/>
<line class="st0" x1="555.58" y1="1162.92" x2="555.58" y2="1146.92"/>
<line class="st0" x1="555.58" y1="1132.58" x2="555.58" y2="1116.58"/>
<line class="st0" x1="555.58" y1="1102.25" x2="555.58" y2="1086.25"/>
<line class="st0" x1="590.64" y1="859.58" x2="590.64" y2="843.58"/>
<line class="st0" x1="590.64" y1="829.25" x2="590.64" y2="813.25"/>
<line class="st0" x1="590.64" y1="798.92" x2="590.64" y2="782.92"/>
<line class="st0" x1="590.64" y1="950.58" x2="590.64" y2="934.58"/>
<line class="st0" x1="590.64" y1="920.25" x2="590.64" y2="904.25"/>
<line class="st0" x1="590.64" y1="889.92" x2="590.64" y2="873.92"/>
<line class="st0" x1="590.64" y1="1041.58" x2="590.64" y2="1025.58"/>
<line class="st0" x1="590.64" y1="1011.25" x2="590.64" y2="995.25"/>
<line class="st0" x1="590.64" y1="980.92" x2="590.64" y2="964.92"/>
<line class="st0" x1="590.64" y1="1071.92" x2="590.64" y2="1055.92"/>
<line class="st0" x1="590.64" y1="1162.92" x2="590.64" y2="1146.92"/>
<line class="st0" x1="590.64" y1="1132.58" x2="590.64" y2="1116.58"/>
<line class="st0" x1="590.64" y1="1102.25" x2="590.64" y2="1086.25"/>
<line class="st0" x1="609.33" y1="859.58" x2="609.33" y2="843.58"/>
<line class="st0" x1="609.33" y1="829.25" x2="609.33" y2="813.25"/>
<line class="st0" x1="609.33" y1="798.92" x2="609.33" y2="782.92"/>
<line class="st0" x1="609.33" y1="950.58" x2="609.33" y2="934.58"/>
<line class="st0" x1="609.33" y1="920.25" x2="609.33" y2="904.25"/>
<line class="st0" x1="609.33" y1="889.92" x2="609.33" y2="873.92"/>
<line class="st0" x1="609.33" y1="1041.58" x2="609.33" y2="1025.58"/>
<line class="st0" x1="609.33" y1="1011.25" x2="609.33" y2="995.25"/>
<line class="st0" x1="609.33" y1="980.92" x2="609.33" y2="964.92"/>
<line class="st0" x1="609.33" y1="1071.92" x2="609.33" y2="1055.92"/>
<line class="st0" x1="609.33" y1="1162.92" x2="609.33" y2="1146.92"/>
<line class="st0" x1="609.33" y1="1132.58" x2="609.33" y2="1116.58"/>
<line class="st0" x1="609.33" y1="1102.25" x2="609.33" y2="1086.25"/>
<line class="st0" x1="537.67" y1="392.58" x2="537.67" y2="408.58"/>
<line class="st0" x1="537.67" y1="422.92" x2="537.67" y2="438.92"/>
<line class="st0" x1="537.67" y1="453.25" x2="537.67" y2="469.25"/>
<line class="st0" x1="537.67" y1="483.58" x2="537.67" y2="499.58"/>
<line class="st0" x1="555.67" y1="392.58" x2="555.67" y2="408.58"/>
<line class="st0" x1="555.67" y1="422.92" x2="555.67" y2="438.92"/>
<line class="st0" x1="555.67" y1="453.25" x2="555.67" y2="469.25"/>
<line class="st0" x1="555.67" y1="483.58" x2="555.67" y2="499.58"/>
<line class="st0" x1="591.42" y1="392.58" x2="591.42" y2="408.58"/>
<line class="st0" x1="591.42" y1="422.92" x2="591.42" y2="438.92"/>
<line class="st0" x1="591.42" y1="453.25" x2="591.42" y2="469.25"/>
<line class="st0" x1="591.42" y1="483.58" x2="591.42" y2="499.58"/>
<line class="st0" x1="609.42" y1="392.58" x2="609.42" y2="408.58"/>
<line class="st0" x1="609.42" y1="422.92" x2="609.42" y2="438.92"/>
<line class="st0" x1="609.42" y1="453.25" x2="609.42" y2="469.25"/>
<line class="st0" x1="609.42" y1="483.58" x2="609.42" y2="499.58"/>
<line class="st0" x1="609.42" y1="301.58" x2="609.42" y2="317.58"/>
<line class="st0" x1="609.42" y1="331.92" x2="609.42" y2="347.92"/>
<line class="st0" x1="609.42" y1="362.25" x2="609.42" y2="378.25"/>
<line class="st0" x1="609.42" y1="210.58" x2="609.42" y2="226.58"/>
<line class="st0" x1="609.42" y1="240.92" x2="609.42" y2="256.92"/>
<line class="st0" x1="609.42" y1="271.25" x2="609.42" y2="287.25"/>
<line class="st0" x1="609.42" y1="119.58" x2="609.42" y2="135.58"/>
<line class="st0" x1="609.42" y1="149.92" x2="609.42" y2="165.92"/>
<line class="st0" x1="609.42" y1="180.25" x2="609.42" y2="196.25"/>
<line class="st0" x1="609.42" y1="89.25" x2="609.42" y2="105.25"/>
<line class="st0" x1="609.42" y1="-1.75" x2="609.42" y2="14.25"/>
<line class="st0" x1="609.42" y1="28.58" x2="609.42" y2="44.58"/>
<line class="st0" x1="609.42" y1="58.92" x2="609.42" y2="74.92"/>
<line class="st0" x1="591.42" y1="301.58" x2="591.42" y2="317.58"/>
<line class="st0" x1="591.42" y1="331.92" x2="591.42" y2="347.92"/>
<line class="st0" x1="591.42" y1="362.25" x2="591.42" y2="378.25"/>
<line class="st0" x1="591.42" y1="210.58" x2="591.42" y2="226.58"/>
<line class="st0" x1="591.42" y1="240.92" x2="591.42" y2="256.92"/>
<line class="st0" x1="591.42" y1="271.25" x2="591.42" y2="287.25"/>
<line class="st0" x1="591.42" y1="119.58" x2="591.42" y2="135.58"/>
<line class="st0" x1="591.42" y1="149.92" x2="591.42" y2="165.92"/>
<line class="st0" x1="591.42" y1="180.25" x2="591.42" y2="196.25"/>
<line class="st0" x1="591.42" y1="89.25" x2="591.42" y2="105.25"/>
<line class="st0" x1="591.42" y1="-1.75" x2="591.42" y2="14.25"/>
<line class="st0" x1="591.42" y1="28.58" x2="591.42" y2="44.58"/>
<line class="st0" x1="591.42" y1="58.92" x2="591.42" y2="74.92"/>
<line class="st0" x1="556.36" y1="301.58" x2="556.36" y2="317.58"/>
<line class="st0" x1="556.36" y1="331.92" x2="556.36" y2="347.92"/>
<line class="st0" x1="556.36" y1="362.25" x2="556.36" y2="378.25"/>
<line class="st0" x1="556.36" y1="210.58" x2="556.36" y2="226.58"/>
<line class="st0" x1="556.36" y1="240.92" x2="556.36" y2="256.92"/>
<line class="st0" x1="556.36" y1="271.25" x2="556.36" y2="287.25"/>
<line class="st0" x1="556.36" y1="119.58" x2="556.36" y2="135.58"/>
<line class="st0" x1="556.36" y1="149.92" x2="556.36" y2="165.92"/>
<line class="st0" x1="556.36" y1="180.25" x2="556.36" y2="196.25"/>
<line class="st0" x1="556.36" y1="89.25" x2="556.36" y2="105.25"/>
<line class="st0" x1="556.36" y1="-1.75" x2="556.36" y2="14.25"/>
<line class="st0" x1="556.36" y1="28.58" x2="556.36" y2="44.58"/>
<line class="st0" x1="556.36" y1="58.92" x2="556.36" y2="74.92"/>
<line class="st0" x1="537.67" y1="301.58" x2="537.67" y2="317.58"/>
<line class="st0" x1="537.67" y1="331.92" x2="537.67" y2="347.92"/>
<line class="st0" x1="537.67" y1="362.25" x2="537.67" y2="378.25"/>
<line class="st0" x1="537.67" y1="210.58" x2="537.67" y2="226.58"/>
<line class="st0" x1="537.67" y1="240.92" x2="537.67" y2="256.92"/>
<line class="st0" x1="537.67" y1="271.25" x2="537.67" y2="287.25"/>
<line class="st0" x1="537.67" y1="119.58" x2="537.67" y2="135.58"/>
<line class="st0" x1="537.67" y1="149.92" x2="537.67" y2="165.92"/>
<line class="st0" x1="537.67" y1="180.25" x2="537.67" y2="196.25"/>
<line class="st0" x1="537.67" y1="89.25" x2="537.67" y2="105.25"/>
<line class="st0" x1="537.67" y1="-1.75" x2="537.67" y2="14.25"/>
<line class="st0" x1="537.67" y1="28.58" x2="537.67" y2="44.58"/>
<line class="st0" x1="537.67" y1="58.92" x2="537.67" y2="74.92"/>
<polyline class="st0" points="627.33,661.58 573.58,661.58 573.58,1163.16 "/>
</svg>
