<?xml version="1.0" encoding="utf-8"?>
<!-- Generator: Adobe Illustrator 24.0.2, SVG Export Plug-In . SVG Version: 6.00 Build 0)  -->
<svg version="1.1" id="Layer_1" xmlns="http://www.w3.org/2000/svg" xmlns:xlink="http://www.w3.org/1999/xlink" x="0px" y="0px"
	 viewBox="0 0 1160.67 1162.17" style="enable-background:new 0 0 1160.67 1162.17;" xml:space="preserve">
<style type="text/css">
	.st0{fill:none;stroke:#231F20;stroke-miterlimit:10;}
	.st1{fill:#D1D3D4;stroke:#231F20;stroke-miterlimit:10;}
</style>
<g>
	<line class="st0" x1="707.63" y1="572.15" x2="661.29" y2="572.15"/>
	<path class="st0" d="M1160.67,644.08H663.29c-11.05,0-20,8.95-20,20v497.33"/>
	<path class="st0" d="M1160.67,518.08H663.29c-11.05,0-20-8.95-20-20v-106"/>
	<line class="st0" x1="768.29" y1="626.08" x2="752.29" y2="626.08"/>
	<line class="st0" x1="737.96" y1="626.08" x2="721.96" y2="626.08"/>
	<line class="st0" x1="707.63" y1="626.08" x2="691.63" y2="626.08"/>
	<line class="st0" x1="677.29" y1="626.08" x2="661.29" y2="626.08"/>
	<line class="st0" x1="828.96" y1="626.08" x2="812.96" y2="626.08"/>
	<line class="st0" x1="798.63" y1="626.08" x2="782.63" y2="626.08"/>
	<line class="st0" x1="948.33" y1="626.08" x2="932.33" y2="626.08"/>
	<line class="st0" x1="918" y1="626.08" x2="902" y2="626.08"/>
	<line class="st0" x1="887.67" y1="626.08" x2="871.67" y2="626.08"/>
	<line class="st0" x1="857.33" y1="626.08" x2="841.33" y2="626.08"/>
	<line class="st0" x1="1039.33" y1="626.08" x2="1023.33" y2="626.08"/>
	<line class="st0" x1="1009" y1="626.08" x2="993" y2="626.08"/>
	<line class="st0" x1="978.67" y1="626.08" x2="962.67" y2="626.08"/>
	<line class="st0" x1="1069.67" y1="626.08" x2="1053.67" y2="626.08"/>
	<line class="st0" x1="1160.67" y1="626.08" x2="1144.67" y2="626.08"/>
	<line class="st0" x1="1130.33" y1="626.08" x2="1114.33" y2="626.08"/>
	<line class="st0" x1="1100" y1="626.08" x2="1084" y2="626.08"/>
	<line class="st0" x1="828.96" y1="608.08" x2="812.96" y2="608.08"/>
	<line class="st0" x1="798.63" y1="608.08" x2="782.63" y2="608.08"/>
	<line class="st0" x1="948.33" y1="608.08" x2="932.33" y2="608.08"/>
	<line class="st0" x1="918" y1="608.08" x2="902" y2="608.08"/>
	<line class="st0" x1="887.67" y1="608.08" x2="871.67" y2="608.08"/>
	<line class="st0" x1="857.33" y1="608.08" x2="841.33" y2="608.08"/>
	<line class="st0" x1="1039.33" y1="608.08" x2="1023.33" y2="608.08"/>
	<line class="st0" x1="1009" y1="608.08" x2="993" y2="608.08"/>
	<line class="st0" x1="978.67" y1="608.08" x2="962.67" y2="608.08"/>
	<line class="st0" x1="1069.67" y1="608.08" x2="1053.67" y2="608.08"/>
	<line class="st0" x1="1160.67" y1="608.08" x2="1144.67" y2="608.08"/>
	<line class="st0" x1="1130.33" y1="608.08" x2="1114.33" y2="608.08"/>
	<line class="st0" x1="1100" y1="608.08" x2="1084" y2="608.08"/>
	<line class="st0" x1="828.96" y1="554.08" x2="812.96" y2="554.08"/>
	<line class="st0" x1="798.63" y1="554.08" x2="782.63" y2="554.08"/>
	<line class="st0" x1="948.33" y1="554.08" x2="932.33" y2="554.08"/>
	<line class="st0" x1="918" y1="554.08" x2="902" y2="554.08"/>
	<line class="st0" x1="887.67" y1="554.08" x2="871.67" y2="554.08"/>
	<line class="st0" x1="857.33" y1="554.08" x2="841.33" y2="554.08"/>
	<line class="st0" x1="1039.33" y1="554.08" x2="1023.33" y2="554.08"/>
	<line class="st0" x1="1009" y1="554.08" x2="993" y2="554.08"/>
	<line class="st0" x1="978.67" y1="554.08" x2="962.67" y2="554.08"/>
	<line class="st0" x1="1069.67" y1="554.08" x2="1053.67" y2="554.08"/>
	<line class="st0" x1="1160.67" y1="554.08" x2="1144.67" y2="554.08"/>
	<line class="st0" x1="1130.33" y1="554.08" x2="1114.33" y2="554.08"/>
	<line class="st0" x1="1100" y1="554.08" x2="1084" y2="554.08"/>
	<line class="st0" x1="828.96" y1="536.08" x2="812.96" y2="536.08"/>
	<line class="st0" x1="798.63" y1="536.08" x2="782.63" y2="536.08"/>
	<line class="st0" x1="948.33" y1="536.08" x2="932.33" y2="536.08"/>
	<line class="st0" x1="918" y1="536.08" x2="902" y2="536.08"/>
	<line class="st0" x1="887.67" y1="536.08" x2="871.67" y2="536.08"/>
	<line class="st0" x1="857.33" y1="536.08" x2="841.33" y2="536.08"/>
	<line class="st0" x1="1039.33" y1="536.08" x2="1023.33" y2="536.08"/>
	<line class="st0" x1="1009" y1="536.08" x2="993" y2="536.08"/>
	<line class="st0" x1="978.67" y1="536.08" x2="962.67" y2="536.08"/>
	<line class="st0" x1="1069.67" y1="536.08" x2="1053.67" y2="536.08"/>
	<line class="st0" x1="1160.67" y1="536.08" x2="1144.67" y2="536.08"/>
	<line class="st0" x1="1130.33" y1="536.08" x2="1114.33" y2="536.08"/>
	<line class="st0" x1="1100" y1="536.08" x2="1084" y2="536.08"/>
	<line class="st0" x1="768.29" y1="608.08" x2="752.29" y2="608.08"/>
	<line class="st0" x1="737.96" y1="608.08" x2="721.96" y2="608.08"/>
	<line class="st0" x1="707.63" y1="608.08" x2="691.63" y2="608.08"/>
	<line class="st0" x1="677.29" y1="608.08" x2="661.29" y2="608.08"/>
	<path class="st0" d="M643.29,0.75v497.33c0,11.05,8.95,20,20,20h497.37"/>
	<line class="st0" x1="768.29" y1="536.08" x2="752.29" y2="536.08"/>
	<line class="st0" x1="737.96" y1="536.08" x2="721.96" y2="536.08"/>
	<line class="st0" x1="707.63" y1="536.08" x2="691.63" y2="536.08"/>
	<line class="st0" x1="677.29" y1="536.08" x2="661.29" y2="536.08"/>
	<line class="st0" x1="768.29" y1="554.12" x2="752.29" y2="554.12"/>
	<line class="st0" x1="737.96" y1="554.12" x2="721.96" y2="554.12"/>
	<line class="st0" x1="707.63" y1="554.12" x2="691.63" y2="554.12"/>
	<line class="st0" x1="677.29" y1="554.12" x2="661.29" y2="554.12"/>
	<polyline class="st0" points="661.29,518.08 661.29,590.08 769.79,590.08 	"/>
	<path class="st1" d="M719.72,590.08c0,0,8.76-3.06,15.16-10.27c6.2-6.97,12.28-7.47,16.91-7.61c4.37-0.13,408.87,0,408.87,0v17.88
		H719.72z"/>
	<line class="st0" x1="571.4" y1="453.79" x2="571.4" y2="500.13"/>
	<line class="st0" x1="625.33" y1="393.13" x2="625.33" y2="409.13"/>
	<line class="st0" x1="625.33" y1="423.46" x2="625.33" y2="439.46"/>
	<line class="st0" x1="625.33" y1="453.79" x2="625.33" y2="469.79"/>
	<line class="st0" x1="625.33" y1="484.13" x2="625.33" y2="500.13"/>
	<line class="st0" x1="625.33" y1="332.46" x2="625.33" y2="348.46"/>
	<line class="st0" x1="625.33" y1="362.79" x2="625.33" y2="378.79"/>
	<line class="st0" x1="625.33" y1="213.08" x2="625.33" y2="229.08"/>
	<line class="st0" x1="625.33" y1="243.42" x2="625.33" y2="259.42"/>
	<line class="st0" x1="625.33" y1="273.75" x2="625.33" y2="289.75"/>
	<line class="st0" x1="625.33" y1="304.08" x2="625.33" y2="320.08"/>
	<line class="st0" x1="625.33" y1="122.08" x2="625.33" y2="138.08"/>
	<line class="st0" x1="625.33" y1="152.42" x2="625.33" y2="168.42"/>
	<line class="st0" x1="625.33" y1="182.75" x2="625.33" y2="198.75"/>
	<line class="st0" x1="625.33" y1="91.75" x2="625.33" y2="107.75"/>
	<line class="st0" x1="625.33" y1="0.75" x2="625.33" y2="16.75"/>
	<line class="st0" x1="625.33" y1="31.08" x2="625.33" y2="47.08"/>
	<line class="st0" x1="625.33" y1="61.42" x2="625.33" y2="77.42"/>
	<line class="st0" x1="607.33" y1="332.46" x2="607.33" y2="348.46"/>
	<line class="st0" x1="607.33" y1="362.79" x2="607.33" y2="378.79"/>
	<line class="st0" x1="607.33" y1="213.08" x2="607.33" y2="229.08"/>
	<line class="st0" x1="607.33" y1="243.42" x2="607.33" y2="259.42"/>
	<line class="st0" x1="607.33" y1="273.75" x2="607.33" y2="289.75"/>
	<line class="st0" x1="607.33" y1="304.08" x2="607.33" y2="320.08"/>
	<line class="st0" x1="607.33" y1="122.08" x2="607.33" y2="138.08"/>
	<line class="st0" x1="607.33" y1="152.42" x2="607.33" y2="168.42"/>
	<line class="st0" x1="607.33" y1="182.75" x2="607.33" y2="198.75"/>
	<line class="st0" x1="607.33" y1="91.75" x2="607.33" y2="107.75"/>
	<line class="st0" x1="607.33" y1="0.75" x2="607.33" y2="16.75"/>
	<line class="st0" x1="607.33" y1="31.08" x2="607.33" y2="47.08"/>
	<line class="st0" x1="607.33" y1="61.42" x2="607.33" y2="77.42"/>
	<line class="st0" x1="553.33" y1="332.46" x2="553.33" y2="348.46"/>
	<line class="st0" x1="553.33" y1="362.79" x2="553.33" y2="378.79"/>
	<line class="st0" x1="553.33" y1="213.08" x2="553.33" y2="229.08"/>
	<line class="st0" x1="553.33" y1="243.42" x2="553.33" y2="259.42"/>
	<line class="st0" x1="553.33" y1="273.75" x2="553.33" y2="289.75"/>
	<line class="st0" x1="553.33" y1="304.08" x2="553.33" y2="320.08"/>
	<line class="st0" x1="553.33" y1="122.08" x2="553.33" y2="138.08"/>
	<line class="st0" x1="553.33" y1="152.42" x2="553.33" y2="168.42"/>
	<line class="st0" x1="553.33" y1="182.75" x2="553.33" y2="198.75"/>
	<line class="st0" x1="553.33" y1="91.75" x2="553.33" y2="107.75"/>
	<line class="st0" x1="553.33" y1="0.75" x2="553.33" y2="16.75"/>
	<line class="st0" x1="553.33" y1="31.08" x2="553.33" y2="47.08"/>
	<line class="st0" x1="553.33" y1="61.42" x2="553.33" y2="77.42"/>
	<line class="st0" x1="535.33" y1="332.46" x2="535.33" y2="348.46"/>
	<line class="st0" x1="535.33" y1="362.79" x2="535.33" y2="378.79"/>
	<line class="st0" x1="535.33" y1="213.08" x2="535.33" y2="229.08"/>
	<line class="st0" x1="535.33" y1="243.42" x2="535.33" y2="259.42"/>
	<line class="st0" x1="535.33" y1="273.75" x2="535.33" y2="289.75"/>
	<line class="st0" x1="535.33" y1="304.08" x2="535.33" y2="320.08"/>
	<line class="st0" x1="535.33" y1="122.08" x2="535.33" y2="138.08"/>
	<line class="st0" x1="535.33" y1="152.42" x2="535.33" y2="168.42"/>
	<line class="st0" x1="535.33" y1="182.75" x2="535.33" y2="198.75"/>
	<line class="st0" x1="535.33" y1="91.75" x2="535.33" y2="107.75"/>
	<line class="st0" x1="535.33" y1="0.75" x2="535.33" y2="16.75"/>
	<line class="st0" x1="535.33" y1="31.08" x2="535.33" y2="47.08"/>
	<line class="st0" x1="535.33" y1="61.42" x2="535.33" y2="77.42"/>
	<line class="st0" x1="607.33" y1="393.13" x2="607.33" y2="409.13"/>
	<line class="st0" x1="607.33" y1="423.46" x2="607.33" y2="439.46"/>
	<line class="st0" x1="607.33" y1="453.79" x2="607.33" y2="469.79"/>
	<line class="st0" x1="607.33" y1="484.13" x2="607.33" y2="500.13"/>
	<line class="st0" x1="535.33" y1="393.13" x2="535.33" y2="409.13"/>
	<line class="st0" x1="535.33" y1="423.46" x2="535.33" y2="439.46"/>
	<line class="st0" x1="535.33" y1="453.79" x2="535.33" y2="469.79"/>
	<line class="st0" x1="535.33" y1="484.13" x2="535.33" y2="500.13"/>
	<line class="st0" x1="553.36" y1="393.13" x2="553.36" y2="409.13"/>
	<line class="st0" x1="553.36" y1="423.46" x2="553.36" y2="439.46"/>
	<line class="st0" x1="553.36" y1="453.79" x2="553.36" y2="469.79"/>
	<line class="st0" x1="553.36" y1="484.13" x2="553.36" y2="500.13"/>
	<polyline class="st0" points="517.33,500.13 589.33,500.13 589.33,391.63 	"/>
	<path class="st1" d="M589.33,441.7c0,0-3.06-8.76-10.27-15.16c-6.97-6.2-7.47-12.28-7.61-16.91c-0.13-4.37,0-408.87,0-408.87h17.88
		V441.7z"/>
	<line class="st0" x1="453.04" y1="590.02" x2="499.37" y2="590.02"/>
	<line class="st0" x1="392.37" y1="536.09" x2="408.37" y2="536.09"/>
	<line class="st0" x1="422.71" y1="536.09" x2="438.71" y2="536.09"/>
	<line class="st0" x1="453.04" y1="536.09" x2="469.04" y2="536.09"/>
	<line class="st0" x1="483.37" y1="536.09" x2="499.37" y2="536.09"/>
	<line class="st0" x1="331.71" y1="536.09" x2="347.71" y2="536.09"/>
	<line class="st0" x1="362.04" y1="536.09" x2="378.04" y2="536.09"/>
	<line class="st0" x1="212.33" y1="536.09" x2="228.33" y2="536.09"/>
	<line class="st0" x1="242.67" y1="536.09" x2="258.67" y2="536.09"/>
	<line class="st0" x1="273" y1="536.09" x2="289" y2="536.09"/>
	<line class="st0" x1="303.33" y1="536.09" x2="319.33" y2="536.09"/>
	<line class="st0" x1="121.33" y1="536.09" x2="137.33" y2="536.09"/>
	<line class="st0" x1="151.67" y1="536.09" x2="167.67" y2="536.09"/>
	<line class="st0" x1="182" y1="536.09" x2="198" y2="536.09"/>
	<line class="st0" x1="91" y1="536.09" x2="107" y2="536.09"/>
	<line class="st0" x1="0" y1="536.09" x2="16" y2="536.09"/>
	<line class="st0" x1="30.33" y1="536.09" x2="46.33" y2="536.09"/>
	<line class="st0" x1="60.67" y1="536.09" x2="76.67" y2="536.09"/>
	<line class="st0" x1="331.71" y1="554.09" x2="347.71" y2="554.09"/>
	<line class="st0" x1="362.04" y1="554.09" x2="378.04" y2="554.09"/>
	<line class="st0" x1="212.33" y1="554.09" x2="228.33" y2="554.09"/>
	<line class="st0" x1="242.67" y1="554.09" x2="258.67" y2="554.09"/>
	<line class="st0" x1="273" y1="554.09" x2="289" y2="554.09"/>
	<line class="st0" x1="303.33" y1="554.09" x2="319.33" y2="554.09"/>
	<line class="st0" x1="121.33" y1="554.09" x2="137.33" y2="554.09"/>
	<line class="st0" x1="151.67" y1="554.09" x2="167.67" y2="554.09"/>
	<line class="st0" x1="182" y1="554.09" x2="198" y2="554.09"/>
	<line class="st0" x1="91" y1="554.09" x2="107" y2="554.09"/>
	<line class="st0" x1="0" y1="554.09" x2="16" y2="554.09"/>
	<line class="st0" x1="30.33" y1="554.09" x2="46.33" y2="554.09"/>
	<line class="st0" x1="60.67" y1="554.09" x2="76.67" y2="554.09"/>
	<line class="st0" x1="331.71" y1="608.09" x2="347.71" y2="608.09"/>
	<line class="st0" x1="362.04" y1="608.09" x2="378.04" y2="608.09"/>
	<line class="st0" x1="212.33" y1="608.09" x2="228.33" y2="608.09"/>
	<line class="st0" x1="242.67" y1="608.09" x2="258.67" y2="608.09"/>
	<line class="st0" x1="273" y1="608.09" x2="289" y2="608.09"/>
	<line class="st0" x1="303.33" y1="608.09" x2="319.33" y2="608.09"/>
	<line class="st0" x1="121.33" y1="608.09" x2="137.33" y2="608.09"/>
	<line class="st0" x1="151.67" y1="608.09" x2="167.67" y2="608.09"/>
	<line class="st0" x1="182" y1="608.09" x2="198" y2="608.09"/>
	<line class="st0" x1="91" y1="608.09" x2="107" y2="608.09"/>
	<line class="st0" x1="0" y1="608.09" x2="16" y2="608.09"/>
	<line class="st0" x1="30.33" y1="608.09" x2="46.33" y2="608.09"/>
	<line class="st0" x1="60.67" y1="608.09" x2="76.67" y2="608.09"/>
	<line class="st0" x1="331.71" y1="626.09" x2="347.71" y2="626.09"/>
	<line class="st0" x1="362.04" y1="626.09" x2="378.04" y2="626.09"/>
	<line class="st0" x1="212.33" y1="626.09" x2="228.33" y2="626.09"/>
	<line class="st0" x1="242.67" y1="626.09" x2="258.67" y2="626.09"/>
	<line class="st0" x1="273" y1="626.09" x2="289" y2="626.09"/>
	<line class="st0" x1="303.33" y1="626.09" x2="319.33" y2="626.09"/>
	<line class="st0" x1="121.33" y1="626.09" x2="137.33" y2="626.09"/>
	<line class="st0" x1="151.67" y1="626.09" x2="167.67" y2="626.09"/>
	<line class="st0" x1="182" y1="626.09" x2="198" y2="626.09"/>
	<line class="st0" x1="91" y1="626.09" x2="107" y2="626.09"/>
	<line class="st0" x1="0" y1="626.09" x2="16" y2="626.09"/>
	<line class="st0" x1="30.33" y1="626.09" x2="46.33" y2="626.09"/>
	<line class="st0" x1="60.67" y1="626.09" x2="76.67" y2="626.09"/>
	<line class="st0" x1="392.37" y1="554.09" x2="408.37" y2="554.09"/>
	<line class="st0" x1="422.71" y1="554.09" x2="438.71" y2="554.09"/>
	<line class="st0" x1="453.04" y1="554.09" x2="469.04" y2="554.09"/>
	<line class="st0" x1="483.37" y1="554.09" x2="499.37" y2="554.09"/>
	<line class="st0" x1="392.37" y1="626.09" x2="408.37" y2="626.09"/>
	<line class="st0" x1="422.71" y1="626.09" x2="438.71" y2="626.09"/>
	<line class="st0" x1="453.04" y1="626.09" x2="469.04" y2="626.09"/>
	<line class="st0" x1="483.37" y1="626.09" x2="499.37" y2="626.09"/>
	<line class="st0" x1="392.37" y1="608.05" x2="408.37" y2="608.05"/>
	<line class="st0" x1="422.71" y1="608.05" x2="438.71" y2="608.05"/>
	<line class="st0" x1="453.04" y1="608.05" x2="469.04" y2="608.05"/>
	<line class="st0" x1="483.37" y1="608.05" x2="499.37" y2="608.05"/>
	<polyline class="st0" points="499.37,644.09 499.37,572.09 390.87,572.09 	"/>
	<path class="st1" d="M440.95,572.09c0,0-8.76,3.06-15.16,10.27c-6.2,6.97-12.28,7.47-16.91,7.61c-4.37,0.13-408.87,0-408.87,0
		l0-17.88H440.95z"/>
	<line class="st0" x1="589.27" y1="708.38" x2="589.27" y2="662.04"/>
	<line class="st0" x1="535.33" y1="769.04" x2="535.33" y2="753.04"/>
	<line class="st0" x1="535.33" y1="738.71" x2="535.33" y2="722.71"/>
	<line class="st0" x1="535.33" y1="708.38" x2="535.33" y2="692.38"/>
	<line class="st0" x1="535.33" y1="678.04" x2="535.33" y2="662.04"/>
	<line class="st0" x1="535.33" y1="829.71" x2="535.33" y2="813.71"/>
	<line class="st0" x1="535.33" y1="799.38" x2="535.33" y2="783.38"/>
	<line class="st0" x1="535.33" y1="949.08" x2="535.33" y2="933.08"/>
	<line class="st0" x1="535.33" y1="918.75" x2="535.33" y2="902.75"/>
	<line class="st0" x1="535.33" y1="888.42" x2="535.33" y2="872.42"/>
	<line class="st0" x1="535.33" y1="858.08" x2="535.33" y2="842.08"/>
	<line class="st0" x1="535.33" y1="1040.08" x2="535.33" y2="1024.08"/>
	<line class="st0" x1="535.33" y1="1009.75" x2="535.33" y2="993.75"/>
	<line class="st0" x1="535.33" y1="979.42" x2="535.33" y2="963.42"/>
	<line class="st0" x1="535.33" y1="1070.42" x2="535.33" y2="1054.42"/>
	<line class="st0" x1="535.33" y1="1161.42" x2="535.33" y2="1145.42"/>
	<line class="st0" x1="535.33" y1="1131.08" x2="535.33" y2="1115.08"/>
	<line class="st0" x1="535.33" y1="1100.75" x2="535.33" y2="1084.75"/>
	<line class="st0" x1="553.33" y1="829.71" x2="553.33" y2="813.71"/>
	<line class="st0" x1="553.33" y1="799.38" x2="553.33" y2="783.38"/>
	<line class="st0" x1="553.33" y1="949.08" x2="553.33" y2="933.08"/>
	<line class="st0" x1="553.33" y1="918.75" x2="553.33" y2="902.75"/>
	<line class="st0" x1="553.33" y1="888.42" x2="553.33" y2="872.42"/>
	<line class="st0" x1="553.33" y1="858.08" x2="553.33" y2="842.08"/>
	<line class="st0" x1="553.33" y1="1040.08" x2="553.33" y2="1024.08"/>
	<line class="st0" x1="553.33" y1="1009.75" x2="553.33" y2="993.75"/>
	<line class="st0" x1="553.33" y1="979.42" x2="553.33" y2="963.42"/>
	<line class="st0" x1="553.33" y1="1070.42" x2="553.33" y2="1054.42"/>
	<line class="st0" x1="553.33" y1="1161.42" x2="553.33" y2="1145.42"/>
	<line class="st0" x1="553.33" y1="1131.08" x2="553.33" y2="1115.08"/>
	<line class="st0" x1="553.33" y1="1100.75" x2="553.33" y2="1084.75"/>
	<line class="st0" x1="607.33" y1="829.71" x2="607.33" y2="813.71"/>
	<line class="st0" x1="607.33" y1="799.38" x2="607.33" y2="783.38"/>
	<line class="st0" x1="607.33" y1="949.08" x2="607.33" y2="933.08"/>
	<line class="st0" x1="607.33" y1="918.75" x2="607.33" y2="902.75"/>
	<line class="st0" x1="607.33" y1="888.42" x2="607.33" y2="872.42"/>
	<line class="st0" x1="607.33" y1="858.08" x2="607.33" y2="842.08"/>
	<line class="st0" x1="607.33" y1="1040.08" x2="607.33" y2="1024.08"/>
	<line class="st0" x1="607.33" y1="1009.75" x2="607.33" y2="993.75"/>
	<line class="st0" x1="607.33" y1="979.42" x2="607.33" y2="963.42"/>
	<line class="st0" x1="607.33" y1="1070.42" x2="607.33" y2="1054.42"/>
	<line class="st0" x1="607.33" y1="1161.42" x2="607.33" y2="1145.42"/>
	<line class="st0" x1="607.33" y1="1131.08" x2="607.33" y2="1115.08"/>
	<line class="st0" x1="607.33" y1="1100.75" x2="607.33" y2="1084.75"/>
	<line class="st0" x1="625.33" y1="829.71" x2="625.33" y2="813.71"/>
	<line class="st0" x1="625.33" y1="799.38" x2="625.33" y2="783.38"/>
	<line class="st0" x1="625.33" y1="949.08" x2="625.33" y2="933.08"/>
	<line class="st0" x1="625.33" y1="918.75" x2="625.33" y2="902.75"/>
	<line class="st0" x1="625.33" y1="888.42" x2="625.33" y2="872.42"/>
	<line class="st0" x1="625.33" y1="858.08" x2="625.33" y2="842.08"/>
	<line class="st0" x1="625.33" y1="1040.08" x2="625.33" y2="1024.08"/>
	<line class="st0" x1="625.33" y1="1009.75" x2="625.33" y2="993.75"/>
	<line class="st0" x1="625.33" y1="979.42" x2="625.33" y2="963.42"/>
	<line class="st0" x1="625.33" y1="1070.42" x2="625.33" y2="1054.42"/>
	<line class="st0" x1="625.33" y1="1161.42" x2="625.33" y2="1145.42"/>
	<line class="st0" x1="625.33" y1="1131.08" x2="625.33" y2="1115.08"/>
	<line class="st0" x1="625.33" y1="1100.75" x2="625.33" y2="1084.75"/>
	<line class="st0" x1="553.33" y1="769.04" x2="553.33" y2="753.04"/>
	<line class="st0" x1="553.33" y1="738.71" x2="553.33" y2="722.71"/>
	<line class="st0" x1="553.33" y1="708.38" x2="553.33" y2="692.38"/>
	<line class="st0" x1="553.33" y1="678.04" x2="553.33" y2="662.04"/>
	<line class="st0" x1="625.33" y1="769.04" x2="625.33" y2="753.04"/>
	<line class="st0" x1="625.33" y1="738.71" x2="625.33" y2="722.71"/>
	<line class="st0" x1="625.33" y1="708.38" x2="625.33" y2="692.38"/>
	<line class="st0" x1="625.33" y1="678.04" x2="625.33" y2="662.04"/>
	<line class="st0" x1="607.3" y1="769.04" x2="607.3" y2="753.04"/>
	<line class="st0" x1="607.3" y1="738.71" x2="607.3" y2="722.71"/>
	<line class="st0" x1="607.3" y1="708.38" x2="607.3" y2="692.38"/>
	<line class="st0" x1="607.3" y1="678.04" x2="607.3" y2="662.04"/>
	<polyline class="st0" points="643.33,662.04 571.33,662.04 571.33,770.54 	"/>
	<path class="st1" d="M571.33,720.47c0,0,3.06,8.76,10.27,15.16c6.97,6.2,7.47,12.28,7.61,16.91c0.13,4.37,0,408.87,0,408.87h-17.88
		V720.47z"/>
	<path class="st0" d="M0,518.08h497.37c11.05,0,20-8.95,20-20V0.75"/>
	<path class="st0" d="M391.37,644.08h106c11.05,0,20,8.95,20,20v106"/>
	<path class="st0" d="M517.37,1161.42V664.08c0-11.05-8.95-20-20-20H0"/>
</g>
</svg>
