<?xml version="1.0" encoding="utf-8"?>
<!-- Generator: Adobe Illustrator 24.0.2, SVG Export Plug-In . SVG Version: 6.00 Build 0)  -->
<svg version="1.1" id="Layer_1" xmlns="http://www.w3.org/2000/svg" xmlns:xlink="http://www.w3.org/1999/xlink" x="0px" y="0px"
	 viewBox="0 0 1160.67 1161.17" style="enable-background:new 0 0 1160.67 1161.17;" xml:space="preserve">
<style type="text/css">
	.st0{fill:none;stroke:#231F20;stroke-miterlimit:10;}
	.st1{fill:#D1D3D4;stroke:#231F20;stroke-miterlimit:10;}
</style>
<g>
	<line class="st0" x1="535.33" y1="768.59" x2="535.33" y2="752.59"/>
	<line class="st0" x1="535.33" y1="738.25" x2="535.33" y2="722.25"/>
	<line class="st0" x1="535.33" y1="707.92" x2="535.33" y2="691.92"/>
	<line class="st0" x1="535.33" y1="677.59" x2="535.33" y2="661.59"/>
	<line class="st0" x1="535.33" y1="859.59" x2="535.33" y2="843.59"/>
	<line class="st0" x1="535.33" y1="829.25" x2="535.33" y2="813.25"/>
	<line class="st0" x1="535.33" y1="798.92" x2="535.33" y2="782.92"/>
	<line class="st0" x1="535.33" y1="948.58" x2="535.33" y2="932.58"/>
	<line class="st0" x1="535.33" y1="918.25" x2="535.33" y2="902.25"/>
	<line class="st0" x1="535.33" y1="887.92" x2="535.33" y2="871.92"/>
	<line class="st0" x1="535.33" y1="1039.58" x2="535.33" y2="1023.58"/>
	<line class="st0" x1="535.33" y1="1009.25" x2="535.33" y2="993.25"/>
	<line class="st0" x1="535.33" y1="978.92" x2="535.33" y2="962.92"/>
	<line class="st0" x1="535.33" y1="1069.92" x2="535.33" y2="1053.92"/>
	<line class="st0" x1="535.33" y1="1160.92" x2="535.33" y2="1144.92"/>
	<line class="st0" x1="535.33" y1="1130.58" x2="535.33" y2="1114.58"/>
	<line class="st0" x1="535.33" y1="1100.25" x2="535.33" y2="1084.25"/>
	<line class="st0" x1="553.33" y1="859.59" x2="553.33" y2="843.59"/>
	<line class="st0" x1="553.33" y1="829.25" x2="553.33" y2="813.25"/>
	<line class="st0" x1="553.33" y1="798.92" x2="553.33" y2="782.92"/>
	<line class="st0" x1="553.33" y1="948.58" x2="553.33" y2="932.58"/>
	<line class="st0" x1="553.33" y1="918.25" x2="553.33" y2="902.25"/>
	<line class="st0" x1="553.33" y1="887.92" x2="553.33" y2="871.92"/>
	<line class="st0" x1="553.33" y1="1039.58" x2="553.33" y2="1023.58"/>
	<line class="st0" x1="553.33" y1="1009.25" x2="553.33" y2="993.25"/>
	<line class="st0" x1="553.33" y1="978.92" x2="553.33" y2="962.92"/>
	<line class="st0" x1="553.33" y1="1069.92" x2="553.33" y2="1053.92"/>
	<line class="st0" x1="553.33" y1="1160.92" x2="553.33" y2="1144.92"/>
	<line class="st0" x1="553.33" y1="1130.58" x2="553.33" y2="1114.58"/>
	<line class="st0" x1="553.33" y1="1100.25" x2="553.33" y2="1084.25"/>
	<line class="st0" x1="625.33" y1="859.59" x2="625.33" y2="843.59"/>
	<line class="st0" x1="625.33" y1="829.25" x2="625.33" y2="813.25"/>
	<line class="st0" x1="625.33" y1="798.92" x2="625.33" y2="782.92"/>
	<line class="st0" x1="625.33" y1="948.58" x2="625.33" y2="932.58"/>
	<line class="st0" x1="625.33" y1="918.25" x2="625.33" y2="902.25"/>
	<line class="st0" x1="625.33" y1="887.92" x2="625.33" y2="871.92"/>
	<line class="st0" x1="625.33" y1="1039.58" x2="625.33" y2="1023.58"/>
	<line class="st0" x1="625.33" y1="1009.25" x2="625.33" y2="993.25"/>
	<line class="st0" x1="625.33" y1="978.92" x2="625.33" y2="962.92"/>
	<line class="st0" x1="625.33" y1="1069.92" x2="625.33" y2="1053.92"/>
	<line class="st0" x1="625.33" y1="1160.92" x2="625.33" y2="1144.92"/>
	<line class="st0" x1="625.33" y1="1130.58" x2="625.33" y2="1114.58"/>
	<line class="st0" x1="625.33" y1="1100.25" x2="625.33" y2="1084.25"/>
	<line class="st0" x1="553.33" y1="768.59" x2="553.33" y2="752.59"/>
	<line class="st0" x1="553.33" y1="738.25" x2="553.33" y2="722.25"/>
	<line class="st0" x1="553.33" y1="707.92" x2="553.33" y2="691.92"/>
	<line class="st0" x1="553.33" y1="677.59" x2="553.33" y2="661.59"/>
	<path class="st0" d="M1162.17,643.59H663.33c-11.05,0-20,8.95-20,20v497.08"/>
	<line class="st0" x1="768.33" y1="625.59" x2="752.33" y2="625.59"/>
	<line class="st0" x1="738" y1="625.59" x2="722" y2="625.59"/>
	<line class="st0" x1="707.67" y1="625.59" x2="691.67" y2="625.59"/>
	<line class="st0" x1="677.33" y1="625.59" x2="661.33" y2="625.59"/>
	<line class="st0" x1="859.33" y1="625.59" x2="843.33" y2="625.59"/>
	<line class="st0" x1="829" y1="625.59" x2="813" y2="625.59"/>
	<line class="st0" x1="798.67" y1="625.59" x2="782.67" y2="625.59"/>
	<line class="st0" x1="950.33" y1="625.59" x2="934.33" y2="625.59"/>
	<line class="st0" x1="920" y1="625.59" x2="904" y2="625.59"/>
	<line class="st0" x1="889.67" y1="625.59" x2="873.67" y2="625.59"/>
	<line class="st0" x1="1041.33" y1="625.59" x2="1025.33" y2="625.59"/>
	<line class="st0" x1="1011" y1="625.59" x2="995" y2="625.59"/>
	<line class="st0" x1="980.67" y1="625.59" x2="964.67" y2="625.59"/>
	<line class="st0" x1="1102" y1="625.59" x2="1086" y2="625.59"/>
	<line class="st0" x1="1071.67" y1="625.59" x2="1055.67" y2="625.59"/>
	<line class="st0" x1="1162.67" y1="625.59" x2="1146.67" y2="625.59"/>
	<line class="st0" x1="1132.33" y1="625.59" x2="1116.33" y2="625.59"/>
	<line class="st0" x1="859.33" y1="607.59" x2="843.33" y2="607.59"/>
	<line class="st0" x1="829" y1="607.59" x2="813" y2="607.59"/>
	<line class="st0" x1="798.67" y1="607.59" x2="782.67" y2="607.59"/>
	<line class="st0" x1="950.33" y1="607.59" x2="934.33" y2="607.59"/>
	<line class="st0" x1="920" y1="607.59" x2="904" y2="607.59"/>
	<line class="st0" x1="889.67" y1="607.59" x2="873.67" y2="607.59"/>
	<line class="st0" x1="1041.33" y1="607.59" x2="1025.33" y2="607.59"/>
	<line class="st0" x1="1011" y1="607.59" x2="995" y2="607.59"/>
	<line class="st0" x1="980.67" y1="607.59" x2="964.67" y2="607.59"/>
	<line class="st0" x1="1102" y1="607.59" x2="1086" y2="607.59"/>
	<line class="st0" x1="1071.67" y1="607.59" x2="1055.67" y2="607.59"/>
	<line class="st0" x1="1162.67" y1="607.59" x2="1146.67" y2="607.59"/>
	<line class="st0" x1="1132.33" y1="607.59" x2="1116.33" y2="607.59"/>
	<line class="st0" x1="859.33" y1="553.59" x2="843.33" y2="553.59"/>
	<line class="st0" x1="829" y1="553.59" x2="813" y2="553.59"/>
	<line class="st0" x1="798.67" y1="553.59" x2="782.67" y2="553.59"/>
	<line class="st0" x1="950.33" y1="553.59" x2="934.33" y2="553.59"/>
	<line class="st0" x1="920" y1="553.59" x2="904" y2="553.59"/>
	<line class="st0" x1="889.67" y1="553.59" x2="873.67" y2="553.59"/>
	<line class="st0" x1="1041.33" y1="553.59" x2="1025.33" y2="553.59"/>
	<line class="st0" x1="1011" y1="553.59" x2="995" y2="553.59"/>
	<line class="st0" x1="980.67" y1="553.59" x2="964.67" y2="553.59"/>
	<line class="st0" x1="1102" y1="553.59" x2="1086" y2="553.59"/>
	<line class="st0" x1="1071.67" y1="553.59" x2="1055.67" y2="553.59"/>
	<line class="st0" x1="1162.67" y1="553.59" x2="1146.67" y2="553.59"/>
	<line class="st0" x1="1132.33" y1="553.59" x2="1116.33" y2="553.59"/>
	<line class="st0" x1="859.33" y1="535.59" x2="843.33" y2="535.59"/>
	<line class="st0" x1="829" y1="535.59" x2="813" y2="535.59"/>
	<line class="st0" x1="798.67" y1="535.59" x2="782.67" y2="535.59"/>
	<line class="st0" x1="950.33" y1="535.59" x2="934.33" y2="535.59"/>
	<line class="st0" x1="920" y1="535.59" x2="904" y2="535.59"/>
	<line class="st0" x1="889.67" y1="535.59" x2="873.67" y2="535.59"/>
	<line class="st0" x1="1041.33" y1="535.59" x2="1025.33" y2="535.59"/>
	<line class="st0" x1="1011" y1="535.59" x2="995" y2="535.59"/>
	<line class="st0" x1="980.67" y1="535.59" x2="964.67" y2="535.59"/>
	<line class="st0" x1="1102" y1="535.59" x2="1086" y2="535.59"/>
	<line class="st0" x1="1071.67" y1="535.59" x2="1055.67" y2="535.59"/>
	<line class="st0" x1="1162.67" y1="535.59" x2="1146.67" y2="535.59"/>
	<line class="st0" x1="1132.33" y1="535.59" x2="1116.33" y2="535.59"/>
	<line class="st0" x1="768.33" y1="607.59" x2="752.33" y2="607.59"/>
	<line class="st0" x1="738" y1="607.59" x2="722" y2="607.59"/>
	<line class="st0" x1="707.67" y1="607.59" x2="691.67" y2="607.59"/>
	<line class="st0" x1="677.33" y1="607.59" x2="661.33" y2="607.59"/>
	<path class="st0" d="M643.33,0v497.58c0,11.05,8.95,20,20,20h498.83"/>
	<line class="st0" x1="589.27" y1="707.92" x2="589.27" y2="661.59"/>
	<line class="st0" x1="607.33" y1="707.92" x2="607.33" y2="661.59"/>
	<line class="st0" x1="607.33" y1="738.25" x2="607.33" y2="722.25"/>
	<line class="st0" x1="625.33" y1="768.59" x2="625.33" y2="752.59"/>
	<line class="st0" x1="625.33" y1="738.25" x2="625.33" y2="722.25"/>
	<line class="st0" x1="625.33" y1="707.92" x2="625.33" y2="691.92"/>
	<line class="st0" x1="625.33" y1="677.59" x2="625.33" y2="661.59"/>
	<polyline class="st0" points="643.33,661.59 571.33,661.59 571.33,1161.17 	"/>
	<path class="st1" d="M571.33,720.51c0,0,6.15,8.76,20.62,15.16c13.99,6.2,14.99,12.28,15.27,16.91c0.26,4.37,0,408.58,0,408.58
		h-35.88V720.51z"/>
	<line class="st0" x1="625.33" y1="392.58" x2="625.33" y2="408.58"/>
	<line class="st0" x1="625.33" y1="422.92" x2="625.33" y2="438.92"/>
	<line class="st0" x1="625.33" y1="453.25" x2="625.33" y2="469.25"/>
	<line class="st0" x1="625.33" y1="483.58" x2="625.33" y2="499.58"/>
	<line class="st0" x1="625.33" y1="301.58" x2="625.33" y2="317.58"/>
	<line class="st0" x1="625.33" y1="331.92" x2="625.33" y2="347.92"/>
	<line class="st0" x1="625.33" y1="362.25" x2="625.33" y2="378.25"/>
	<line class="st0" x1="625.33" y1="212.58" x2="625.33" y2="228.58"/>
	<line class="st0" x1="625.33" y1="242.92" x2="625.33" y2="258.92"/>
	<line class="st0" x1="625.33" y1="273.25" x2="625.33" y2="289.25"/>
	<line class="st0" x1="625.33" y1="121.58" x2="625.33" y2="137.58"/>
	<line class="st0" x1="625.33" y1="151.92" x2="625.33" y2="167.92"/>
	<line class="st0" x1="625.33" y1="182.25" x2="625.33" y2="198.25"/>
	<line class="st0" x1="625.33" y1="91.25" x2="625.33" y2="107.25"/>
	<line class="st0" x1="625.33" y1="0.25" x2="625.33" y2="16.25"/>
	<line class="st0" x1="625.33" y1="30.58" x2="625.33" y2="46.58"/>
	<line class="st0" x1="625.33" y1="60.92" x2="625.33" y2="76.92"/>
	<line class="st0" x1="607.33" y1="301.58" x2="607.33" y2="317.58"/>
	<line class="st0" x1="607.33" y1="331.92" x2="607.33" y2="347.92"/>
	<line class="st0" x1="607.33" y1="362.25" x2="607.33" y2="378.25"/>
	<line class="st0" x1="607.33" y1="212.58" x2="607.33" y2="228.58"/>
	<line class="st0" x1="607.33" y1="242.92" x2="607.33" y2="258.92"/>
	<line class="st0" x1="607.33" y1="273.25" x2="607.33" y2="289.25"/>
	<line class="st0" x1="607.33" y1="121.58" x2="607.33" y2="137.58"/>
	<line class="st0" x1="607.33" y1="151.92" x2="607.33" y2="167.92"/>
	<line class="st0" x1="607.33" y1="182.25" x2="607.33" y2="198.25"/>
	<line class="st0" x1="607.33" y1="91.25" x2="607.33" y2="107.25"/>
	<line class="st0" x1="607.33" y1="0.25" x2="607.33" y2="16.25"/>
	<line class="st0" x1="607.33" y1="30.58" x2="607.33" y2="46.58"/>
	<line class="st0" x1="607.33" y1="60.92" x2="607.33" y2="76.92"/>
	<line class="st0" x1="535.33" y1="301.58" x2="535.33" y2="317.58"/>
	<line class="st0" x1="535.33" y1="331.92" x2="535.33" y2="347.92"/>
	<line class="st0" x1="535.33" y1="362.25" x2="535.33" y2="378.25"/>
	<line class="st0" x1="535.33" y1="212.58" x2="535.33" y2="228.58"/>
	<line class="st0" x1="535.33" y1="242.92" x2="535.33" y2="258.92"/>
	<line class="st0" x1="535.33" y1="273.25" x2="535.33" y2="289.25"/>
	<line class="st0" x1="535.33" y1="121.58" x2="535.33" y2="137.58"/>
	<line class="st0" x1="535.33" y1="151.92" x2="535.33" y2="167.92"/>
	<line class="st0" x1="535.33" y1="182.25" x2="535.33" y2="198.25"/>
	<line class="st0" x1="535.33" y1="91.25" x2="535.33" y2="107.25"/>
	<line class="st0" x1="535.33" y1="0.25" x2="535.33" y2="16.25"/>
	<line class="st0" x1="535.33" y1="30.58" x2="535.33" y2="46.58"/>
	<line class="st0" x1="535.33" y1="60.92" x2="535.33" y2="76.92"/>
	<line class="st0" x1="607.33" y1="392.58" x2="607.33" y2="408.58"/>
	<line class="st0" x1="607.33" y1="422.92" x2="607.33" y2="438.92"/>
	<line class="st0" x1="607.33" y1="453.25" x2="607.33" y2="469.25"/>
	<line class="st0" x1="607.33" y1="483.58" x2="607.33" y2="499.58"/>
	<line class="st0" x1="571.4" y1="453.25" x2="571.4" y2="499.58"/>
	<line class="st0" x1="553.33" y1="453.25" x2="553.33" y2="499.58"/>
	<line class="st0" x1="553.33" y1="422.92" x2="553.33" y2="438.92"/>
	<line class="st0" x1="535.33" y1="392.58" x2="535.33" y2="408.58"/>
	<line class="st0" x1="535.33" y1="422.92" x2="535.33" y2="438.92"/>
	<line class="st0" x1="535.33" y1="453.25" x2="535.33" y2="469.25"/>
	<line class="st0" x1="535.33" y1="483.58" x2="535.33" y2="499.58"/>
	<polyline class="st0" points="517.33,499.58 589.33,499.58 589.33,0 	"/>
	<path class="st1" d="M589.33,440.66c0,0-6.15-8.76-20.62-15.16c-13.99-6.2-14.99-12.28-15.27-16.91c-0.26-4.37,0-408.58,0-408.58
		l35.88,0V440.66z"/>
	<line class="st0" x1="707.67" y1="571.65" x2="661.33" y2="571.65"/>
	<line class="st0" x1="768.33" y1="553.59" x2="752.33" y2="553.59"/>
	<line class="st0" x1="738" y1="553.59" x2="722" y2="553.59"/>
	<line class="st0" x1="707.67" y1="553.59" x2="691.67" y2="553.59"/>
	<line class="st0" x1="677.33" y1="553.59" x2="661.33" y2="553.59"/>
	<line class="st0" x1="768.33" y1="535.59" x2="752.33" y2="535.59"/>
	<line class="st0" x1="738" y1="535.59" x2="722" y2="535.59"/>
	<line class="st0" x1="707.67" y1="535.59" x2="691.67" y2="535.59"/>
	<line class="st0" x1="677.33" y1="535.59" x2="661.33" y2="535.59"/>
	<polyline class="st0" points="661.33,517.59 661.33,589.59 1162.67,589.59 	"/>
	<path class="st1" d="M720.26,589.59c0,0,8.76-3.07,15.16-10.3c6.2-6.99,12.28-7.49,16.91-7.63c4.37-0.13,410.33,0,410.33,0v17.94
		H720.26z"/>
	<path class="st0" d="M-1.5,517.58h498.83c11.05,0,20-8.95,20-20V0"/>
	<line class="st0" x1="392.33" y1="535.58" x2="408.33" y2="535.58"/>
	<line class="st0" x1="422.67" y1="535.58" x2="438.67" y2="535.58"/>
	<line class="st0" x1="453" y1="535.58" x2="469" y2="535.58"/>
	<line class="st0" x1="483.33" y1="535.58" x2="499.33" y2="535.58"/>
	<line class="st0" x1="301.33" y1="535.58" x2="317.33" y2="535.58"/>
	<line class="st0" x1="331.67" y1="535.58" x2="347.67" y2="535.58"/>
	<line class="st0" x1="362" y1="535.58" x2="378" y2="535.58"/>
	<line class="st0" x1="210.33" y1="535.58" x2="226.33" y2="535.58"/>
	<line class="st0" x1="240.67" y1="535.58" x2="256.67" y2="535.58"/>
	<line class="st0" x1="271" y1="535.58" x2="287" y2="535.58"/>
	<line class="st0" x1="119.33" y1="535.58" x2="135.33" y2="535.58"/>
	<line class="st0" x1="149.67" y1="535.58" x2="165.67" y2="535.58"/>
	<line class="st0" x1="180" y1="535.58" x2="196" y2="535.58"/>
	<line class="st0" x1="58.67" y1="535.58" x2="74.67" y2="535.58"/>
	<line class="st0" x1="89" y1="535.58" x2="105" y2="535.58"/>
	<line class="st0" x1="-2" y1="535.58" x2="14" y2="535.58"/>
	<line class="st0" x1="28.33" y1="535.58" x2="44.33" y2="535.58"/>
	<line class="st0" x1="301.33" y1="553.58" x2="317.33" y2="553.58"/>
	<line class="st0" x1="331.67" y1="553.58" x2="347.67" y2="553.58"/>
	<line class="st0" x1="362" y1="553.58" x2="378" y2="553.58"/>
	<line class="st0" x1="210.33" y1="553.58" x2="226.33" y2="553.58"/>
	<line class="st0" x1="240.67" y1="553.58" x2="256.67" y2="553.58"/>
	<line class="st0" x1="271" y1="553.58" x2="287" y2="553.58"/>
	<line class="st0" x1="119.33" y1="553.58" x2="135.33" y2="553.58"/>
	<line class="st0" x1="149.67" y1="553.58" x2="165.67" y2="553.58"/>
	<line class="st0" x1="180" y1="553.58" x2="196" y2="553.58"/>
	<line class="st0" x1="58.67" y1="553.58" x2="74.67" y2="553.58"/>
	<line class="st0" x1="89" y1="553.58" x2="105" y2="553.58"/>
	<line class="st0" x1="-2" y1="553.58" x2="14" y2="553.58"/>
	<line class="st0" x1="28.33" y1="553.58" x2="44.33" y2="553.58"/>
	<line class="st0" x1="301.33" y1="607.58" x2="317.33" y2="607.58"/>
	<line class="st0" x1="331.67" y1="607.58" x2="347.67" y2="607.58"/>
	<line class="st0" x1="362" y1="607.58" x2="378" y2="607.58"/>
	<line class="st0" x1="210.33" y1="607.58" x2="226.33" y2="607.58"/>
	<line class="st0" x1="240.67" y1="607.58" x2="256.67" y2="607.58"/>
	<line class="st0" x1="271" y1="607.58" x2="287" y2="607.58"/>
	<line class="st0" x1="119.33" y1="607.58" x2="135.33" y2="607.58"/>
	<line class="st0" x1="149.67" y1="607.58" x2="165.67" y2="607.58"/>
	<line class="st0" x1="180" y1="607.58" x2="196" y2="607.58"/>
	<line class="st0" x1="58.67" y1="607.58" x2="74.67" y2="607.58"/>
	<line class="st0" x1="89" y1="607.58" x2="105" y2="607.58"/>
	<line class="st0" x1="-2" y1="607.58" x2="14" y2="607.58"/>
	<line class="st0" x1="28.33" y1="607.58" x2="44.33" y2="607.58"/>
	<line class="st0" x1="301.33" y1="625.58" x2="317.33" y2="625.58"/>
	<line class="st0" x1="331.67" y1="625.58" x2="347.67" y2="625.58"/>
	<line class="st0" x1="362" y1="625.58" x2="378" y2="625.58"/>
	<line class="st0" x1="210.33" y1="625.58" x2="226.33" y2="625.58"/>
	<line class="st0" x1="240.67" y1="625.58" x2="256.67" y2="625.58"/>
	<line class="st0" x1="271" y1="625.58" x2="287" y2="625.58"/>
	<line class="st0" x1="119.33" y1="625.58" x2="135.33" y2="625.58"/>
	<line class="st0" x1="149.67" y1="625.58" x2="165.67" y2="625.58"/>
	<line class="st0" x1="180" y1="625.58" x2="196" y2="625.58"/>
	<line class="st0" x1="58.67" y1="625.58" x2="74.67" y2="625.58"/>
	<line class="st0" x1="89" y1="625.58" x2="105" y2="625.58"/>
	<line class="st0" x1="-2" y1="625.58" x2="14" y2="625.58"/>
	<line class="st0" x1="28.33" y1="625.58" x2="44.33" y2="625.58"/>
	<line class="st0" x1="392.33" y1="553.58" x2="408.33" y2="553.58"/>
	<line class="st0" x1="422.67" y1="553.58" x2="438.67" y2="553.58"/>
	<line class="st0" x1="453" y1="553.58" x2="469" y2="553.58"/>
	<line class="st0" x1="483.33" y1="553.58" x2="499.33" y2="553.58"/>
	<path class="st0" d="M517.33,1160.67V663.58c0-11.05-8.95-20-20-20H-1.5"/>
	<line class="st0" x1="453" y1="589.52" x2="499.33" y2="589.52"/>
	<line class="st0" x1="392.33" y1="607.58" x2="408.33" y2="607.58"/>
	<line class="st0" x1="422.67" y1="607.58" x2="438.67" y2="607.58"/>
	<line class="st0" x1="453" y1="607.58" x2="469" y2="607.58"/>
	<line class="st0" x1="483.33" y1="607.58" x2="499.33" y2="607.58"/>
	<line class="st0" x1="392.33" y1="625.58" x2="408.33" y2="625.58"/>
	<line class="st0" x1="422.67" y1="625.58" x2="438.67" y2="625.58"/>
	<line class="st0" x1="453" y1="625.58" x2="469" y2="625.58"/>
	<line class="st0" x1="483.33" y1="625.58" x2="499.33" y2="625.58"/>
	<polyline class="st0" points="499.33,643.58 499.33,571.58 -2,571.58 	"/>
	<path class="st1" d="M440.41,571.58c0,0-8.76,3.07-15.16,10.3c-6.2,6.99-12.28,7.49-16.91,7.63c-4.37,0.13-410.33,0-410.33,0
		v-17.94H440.41z"/>
</g>
</svg>
