<?xml version="1.0" encoding="utf-8"?>
<!-- Generator: Adobe Illustrator 24.0.2, SVG Export Plug-In . SVG Version: 6.00 Build 0)  -->
<svg version="1.1" id="Layer_1" xmlns="http://www.w3.org/2000/svg" xmlns:xlink="http://www.w3.org/1999/xlink" x="0px" y="0px"
	 viewBox="0 0 1162.63 1165.09" style="enable-background:new 0 0 1162.63 1165.09;" xml:space="preserve">
<style type="text/css">
	.st0{fill:none;stroke:#231F20;stroke-miterlimit:10;}
	.st1{fill:#D1D3D4;stroke:#231F20;stroke-miterlimit:10;}
</style>
<g>
	<line class="st0" x1="708.61" y1="573.61" x2="662.27" y2="573.61"/>
	<line class="st0" x1="708.61" y1="555.54" x2="662.27" y2="555.54"/>
	<path class="st0" d="M1163.36,645.54H664.27c-11.05,0-20,8.95-20,20v499.54"/>
	<line class="st0" x1="769.27" y1="627.54" x2="753.27" y2="627.54"/>
	<line class="st0" x1="738.94" y1="627.54" x2="722.94" y2="627.54"/>
	<line class="st0" x1="708.61" y1="627.54" x2="692.61" y2="627.54"/>
	<line class="st0" x1="678.27" y1="627.54" x2="662.27" y2="627.54"/>
	<line class="st0" x1="860.27" y1="627.54" x2="844.27" y2="627.54"/>
	<line class="st0" x1="829.94" y1="627.54" x2="813.94" y2="627.54"/>
	<line class="st0" x1="799.61" y1="627.54" x2="783.61" y2="627.54"/>
	<line class="st0" x1="951.27" y1="627.54" x2="935.27" y2="627.54"/>
	<line class="st0" x1="920.94" y1="627.54" x2="904.94" y2="627.54"/>
	<line class="st0" x1="890.61" y1="627.54" x2="874.61" y2="627.54"/>
	<line class="st0" x1="1042.27" y1="627.54" x2="1026.27" y2="627.54"/>
	<line class="st0" x1="1011.94" y1="627.54" x2="995.94" y2="627.54"/>
	<line class="st0" x1="981.61" y1="627.54" x2="965.61" y2="627.54"/>
	<line class="st0" x1="1072.61" y1="627.54" x2="1056.61" y2="627.54"/>
	<line class="st0" x1="1163.61" y1="627.54" x2="1147.61" y2="627.54"/>
	<line class="st0" x1="1133.27" y1="627.54" x2="1117.27" y2="627.54"/>
	<line class="st0" x1="1102.94" y1="627.54" x2="1086.94" y2="627.54"/>
	<line class="st0" x1="860.27" y1="609.54" x2="844.27" y2="609.54"/>
	<line class="st0" x1="829.94" y1="609.54" x2="813.94" y2="609.54"/>
	<line class="st0" x1="799.61" y1="609.54" x2="783.61" y2="609.54"/>
	<line class="st0" x1="951.27" y1="609.54" x2="935.27" y2="609.54"/>
	<line class="st0" x1="920.94" y1="609.54" x2="904.94" y2="609.54"/>
	<line class="st0" x1="890.61" y1="609.54" x2="874.61" y2="609.54"/>
	<line class="st0" x1="1042.27" y1="609.54" x2="1026.27" y2="609.54"/>
	<line class="st0" x1="1011.94" y1="609.54" x2="995.94" y2="609.54"/>
	<line class="st0" x1="981.61" y1="609.54" x2="965.61" y2="609.54"/>
	<line class="st0" x1="1072.61" y1="609.54" x2="1056.61" y2="609.54"/>
	<line class="st0" x1="1163.61" y1="609.54" x2="1147.61" y2="609.54"/>
	<line class="st0" x1="1133.27" y1="609.54" x2="1117.27" y2="609.54"/>
	<line class="st0" x1="1102.94" y1="609.54" x2="1086.94" y2="609.54"/>
	<line class="st0" x1="860.27" y1="537.54" x2="844.27" y2="537.54"/>
	<line class="st0" x1="829.94" y1="537.54" x2="813.94" y2="537.54"/>
	<line class="st0" x1="799.61" y1="537.54" x2="783.61" y2="537.54"/>
	<line class="st0" x1="951.27" y1="537.54" x2="935.27" y2="537.54"/>
	<line class="st0" x1="920.94" y1="537.54" x2="904.94" y2="537.54"/>
	<line class="st0" x1="890.61" y1="537.54" x2="874.61" y2="537.54"/>
	<line class="st0" x1="1042.27" y1="537.54" x2="1026.27" y2="537.54"/>
	<line class="st0" x1="1011.94" y1="537.54" x2="995.94" y2="537.54"/>
	<line class="st0" x1="981.61" y1="537.54" x2="965.61" y2="537.54"/>
	<line class="st0" x1="1072.61" y1="537.54" x2="1056.61" y2="537.54"/>
	<line class="st0" x1="1163.61" y1="537.54" x2="1147.61" y2="537.54"/>
	<line class="st0" x1="1133.27" y1="537.54" x2="1117.27" y2="537.54"/>
	<line class="st0" x1="1102.94" y1="537.54" x2="1086.94" y2="537.54"/>
	<line class="st0" x1="769.27" y1="609.54" x2="753.27" y2="609.54"/>
	<line class="st0" x1="738.94" y1="609.54" x2="722.94" y2="609.54"/>
	<line class="st0" x1="708.61" y1="609.54" x2="692.61" y2="609.54"/>
	<line class="st0" x1="678.27" y1="609.54" x2="662.27" y2="609.54"/>
	<path class="st0" d="M644.27,0v499.54c0,11.05,8.95,20,20,20h499.08"/>
	<line class="st0" x1="769.27" y1="537.54" x2="753.27" y2="537.54"/>
	<line class="st0" x1="738.94" y1="537.54" x2="722.94" y2="537.54"/>
	<line class="st0" x1="708.61" y1="537.54" x2="692.61" y2="537.54"/>
	<line class="st0" x1="678.27" y1="537.54" x2="662.27" y2="537.54"/>
	<polyline class="st0" points="661.27,519.54 661.27,591.54 1162.86,591.54 	"/>
	<path class="st1" d="M720.69,591.54c0,0,8.76-6.15,15.16-20.62c6.2-13.99,12.28-14.99,16.91-15.27c4.37-0.26,410.58,0,410.58,0
		v35.88H720.69z"/>
	<line class="st0" x1="572.38" y1="455.25" x2="572.38" y2="501.58"/>
	<line class="st0" x1="554.31" y1="455.25" x2="554.31" y2="501.58"/>
	<line class="st0" x1="626.31" y1="394.58" x2="626.31" y2="410.58"/>
	<line class="st0" x1="626.31" y1="424.92" x2="626.31" y2="440.92"/>
	<line class="st0" x1="626.31" y1="455.25" x2="626.31" y2="471.25"/>
	<line class="st0" x1="626.31" y1="485.58" x2="626.31" y2="501.58"/>
	<line class="st0" x1="626.31" y1="303.58" x2="626.31" y2="319.58"/>
	<line class="st0" x1="626.31" y1="333.92" x2="626.31" y2="349.92"/>
	<line class="st0" x1="626.31" y1="364.25" x2="626.31" y2="380.25"/>
	<line class="st0" x1="626.31" y1="212.58" x2="626.31" y2="228.58"/>
	<line class="st0" x1="626.31" y1="242.92" x2="626.31" y2="258.92"/>
	<line class="st0" x1="626.31" y1="273.25" x2="626.31" y2="289.25"/>
	<line class="st0" x1="626.31" y1="121.58" x2="626.31" y2="137.58"/>
	<line class="st0" x1="626.31" y1="151.92" x2="626.31" y2="167.92"/>
	<line class="st0" x1="626.31" y1="182.25" x2="626.31" y2="198.25"/>
	<line class="st0" x1="626.31" y1="91.25" x2="626.31" y2="107.25"/>
	<line class="st0" x1="626.31" y1="0.25" x2="626.31" y2="16.25"/>
	<line class="st0" x1="626.31" y1="30.58" x2="626.31" y2="46.58"/>
	<line class="st0" x1="626.31" y1="60.92" x2="626.31" y2="76.92"/>
	<line class="st0" x1="608.31" y1="303.58" x2="608.31" y2="319.58"/>
	<line class="st0" x1="608.31" y1="333.92" x2="608.31" y2="349.92"/>
	<line class="st0" x1="608.31" y1="364.25" x2="608.31" y2="380.25"/>
	<line class="st0" x1="608.31" y1="212.58" x2="608.31" y2="228.58"/>
	<line class="st0" x1="608.31" y1="242.92" x2="608.31" y2="258.92"/>
	<line class="st0" x1="608.31" y1="273.25" x2="608.31" y2="289.25"/>
	<line class="st0" x1="608.31" y1="121.58" x2="608.31" y2="137.58"/>
	<line class="st0" x1="608.31" y1="151.92" x2="608.31" y2="167.92"/>
	<line class="st0" x1="608.31" y1="182.25" x2="608.31" y2="198.25"/>
	<line class="st0" x1="608.31" y1="91.25" x2="608.31" y2="107.25"/>
	<line class="st0" x1="608.31" y1="0.25" x2="608.31" y2="16.25"/>
	<line class="st0" x1="608.31" y1="30.58" x2="608.31" y2="46.58"/>
	<line class="st0" x1="608.31" y1="60.92" x2="608.31" y2="76.92"/>
	<line class="st0" x1="536.31" y1="303.58" x2="536.31" y2="319.58"/>
	<line class="st0" x1="536.31" y1="333.92" x2="536.31" y2="349.92"/>
	<line class="st0" x1="536.31" y1="364.25" x2="536.31" y2="380.25"/>
	<line class="st0" x1="536.31" y1="212.58" x2="536.31" y2="228.58"/>
	<line class="st0" x1="536.31" y1="242.92" x2="536.31" y2="258.92"/>
	<line class="st0" x1="536.31" y1="273.25" x2="536.31" y2="289.25"/>
	<line class="st0" x1="536.31" y1="121.58" x2="536.31" y2="137.58"/>
	<line class="st0" x1="536.31" y1="151.92" x2="536.31" y2="167.92"/>
	<line class="st0" x1="536.31" y1="182.25" x2="536.31" y2="198.25"/>
	<line class="st0" x1="536.31" y1="91.25" x2="536.31" y2="107.25"/>
	<line class="st0" x1="536.31" y1="0.25" x2="536.31" y2="16.25"/>
	<line class="st0" x1="536.31" y1="30.58" x2="536.31" y2="46.58"/>
	<line class="st0" x1="536.31" y1="60.92" x2="536.31" y2="76.92"/>
	<line class="st0" x1="608.31" y1="394.58" x2="608.31" y2="410.58"/>
	<line class="st0" x1="608.31" y1="424.92" x2="608.31" y2="440.92"/>
	<line class="st0" x1="608.31" y1="455.25" x2="608.31" y2="471.25"/>
	<line class="st0" x1="608.31" y1="485.58" x2="608.31" y2="501.58"/>
	<line class="st0" x1="536.31" y1="394.58" x2="536.31" y2="410.58"/>
	<line class="st0" x1="536.31" y1="424.92" x2="536.31" y2="440.92"/>
	<line class="st0" x1="536.31" y1="455.25" x2="536.31" y2="471.25"/>
	<line class="st0" x1="536.31" y1="485.58" x2="536.31" y2="501.58"/>
	<polyline class="st0" points="518.31,501.58 590.31,501.58 590.31,0 	"/>
	<path class="st1" d="M590.31,443.16c0,0-6.15-8.76-20.62-15.16c-13.99-6.2-14.99-12.28-15.27-16.91c-0.26-4.37,0-410.58,0-410.58
		h35.88V443.16z"/>
	<line class="st0" x1="454.02" y1="591.48" x2="500.35" y2="591.48"/>
	<line class="st0" x1="454.02" y1="609.54" x2="500.35" y2="609.54"/>
	<line class="st0" x1="393.35" y1="537.54" x2="409.35" y2="537.54"/>
	<line class="st0" x1="423.69" y1="537.54" x2="439.69" y2="537.54"/>
	<line class="st0" x1="454.02" y1="537.54" x2="470.02" y2="537.54"/>
	<line class="st0" x1="484.35" y1="537.54" x2="500.35" y2="537.54"/>
	<line class="st0" x1="302.35" y1="537.54" x2="318.35" y2="537.54"/>
	<line class="st0" x1="332.69" y1="537.54" x2="348.69" y2="537.54"/>
	<line class="st0" x1="363.02" y1="537.54" x2="379.02" y2="537.54"/>
	<line class="st0" x1="211.35" y1="537.54" x2="227.35" y2="537.54"/>
	<line class="st0" x1="241.69" y1="537.54" x2="257.69" y2="537.54"/>
	<line class="st0" x1="272.02" y1="537.54" x2="288.02" y2="537.54"/>
	<line class="st0" x1="120.35" y1="537.54" x2="136.35" y2="537.54"/>
	<line class="st0" x1="150.69" y1="537.54" x2="166.69" y2="537.54"/>
	<line class="st0" x1="181.02" y1="537.54" x2="197.02" y2="537.54"/>
	<line class="st0" x1="90.02" y1="537.54" x2="106.02" y2="537.54"/>
	<line class="st0" x1="-0.98" y1="537.54" x2="15.02" y2="537.54"/>
	<line class="st0" x1="29.35" y1="537.54" x2="45.35" y2="537.54"/>
	<line class="st0" x1="59.69" y1="537.54" x2="75.69" y2="537.54"/>
	<line class="st0" x1="302.35" y1="555.54" x2="318.35" y2="555.54"/>
	<line class="st0" x1="332.69" y1="555.54" x2="348.69" y2="555.54"/>
	<line class="st0" x1="363.02" y1="555.54" x2="379.02" y2="555.54"/>
	<line class="st0" x1="211.35" y1="555.54" x2="227.35" y2="555.54"/>
	<line class="st0" x1="241.69" y1="555.54" x2="257.69" y2="555.54"/>
	<line class="st0" x1="272.02" y1="555.54" x2="288.02" y2="555.54"/>
	<line class="st0" x1="120.35" y1="555.54" x2="136.35" y2="555.54"/>
	<line class="st0" x1="150.69" y1="555.54" x2="166.69" y2="555.54"/>
	<line class="st0" x1="181.02" y1="555.54" x2="197.02" y2="555.54"/>
	<line class="st0" x1="90.02" y1="555.54" x2="106.02" y2="555.54"/>
	<line class="st0" x1="-0.98" y1="555.54" x2="15.02" y2="555.54"/>
	<line class="st0" x1="29.35" y1="555.54" x2="45.35" y2="555.54"/>
	<line class="st0" x1="59.69" y1="555.54" x2="75.69" y2="555.54"/>
	<line class="st0" x1="302.35" y1="627.54" x2="318.35" y2="627.54"/>
	<line class="st0" x1="332.69" y1="627.54" x2="348.69" y2="627.54"/>
	<line class="st0" x1="363.02" y1="627.54" x2="379.02" y2="627.54"/>
	<line class="st0" x1="211.35" y1="627.54" x2="227.35" y2="627.54"/>
	<line class="st0" x1="241.69" y1="627.54" x2="257.69" y2="627.54"/>
	<line class="st0" x1="272.02" y1="627.54" x2="288.02" y2="627.54"/>
	<line class="st0" x1="120.35" y1="627.54" x2="136.35" y2="627.54"/>
	<line class="st0" x1="150.69" y1="627.54" x2="166.69" y2="627.54"/>
	<line class="st0" x1="181.02" y1="627.54" x2="197.02" y2="627.54"/>
	<line class="st0" x1="90.02" y1="627.54" x2="106.02" y2="627.54"/>
	<line class="st0" x1="-0.98" y1="627.54" x2="15.02" y2="627.54"/>
	<line class="st0" x1="29.35" y1="627.54" x2="45.35" y2="627.54"/>
	<line class="st0" x1="59.69" y1="627.54" x2="75.69" y2="627.54"/>
	<line class="st0" x1="393.35" y1="555.54" x2="409.35" y2="555.54"/>
	<line class="st0" x1="423.69" y1="555.54" x2="439.69" y2="555.54"/>
	<line class="st0" x1="454.02" y1="555.54" x2="470.02" y2="555.54"/>
	<line class="st0" x1="484.35" y1="555.54" x2="500.35" y2="555.54"/>
	<line class="st0" x1="393.35" y1="627.54" x2="409.35" y2="627.54"/>
	<line class="st0" x1="423.69" y1="627.54" x2="439.69" y2="627.54"/>
	<line class="st0" x1="454.02" y1="627.54" x2="470.02" y2="627.54"/>
	<line class="st0" x1="484.35" y1="627.54" x2="500.35" y2="627.54"/>
	<polyline class="st0" points="500.35,645.54 500.35,573.54 -1.23,573.54 	"/>
	<path class="st1" d="M441.93,573.54c0,0-8.76,6.15-15.16,20.62c-6.2,13.99-12.28,14.99-16.91,15.27c-4.37,0.26-410.58,0-410.58,0
		v-35.88H441.93z"/>
	<line class="st0" x1="590.25" y1="709.84" x2="590.25" y2="663.5"/>
	<line class="st0" x1="608.31" y1="709.84" x2="608.31" y2="663.5"/>
	<line class="st0" x1="536.31" y1="770.5" x2="536.31" y2="754.5"/>
	<line class="st0" x1="536.31" y1="740.17" x2="536.31" y2="724.17"/>
	<line class="st0" x1="536.31" y1="709.84" x2="536.31" y2="693.84"/>
	<line class="st0" x1="536.31" y1="679.5" x2="536.31" y2="663.5"/>
	<line class="st0" x1="536.31" y1="861.5" x2="536.31" y2="845.5"/>
	<line class="st0" x1="536.31" y1="831.17" x2="536.31" y2="815.17"/>
	<line class="st0" x1="536.31" y1="800.84" x2="536.31" y2="784.84"/>
	<line class="st0" x1="536.31" y1="952.5" x2="536.31" y2="936.5"/>
	<line class="st0" x1="536.31" y1="922.17" x2="536.31" y2="906.17"/>
	<line class="st0" x1="536.31" y1="891.84" x2="536.31" y2="875.84"/>
	<line class="st0" x1="536.31" y1="1043.5" x2="536.31" y2="1027.5"/>
	<line class="st0" x1="536.31" y1="1013.17" x2="536.31" y2="997.17"/>
	<line class="st0" x1="536.31" y1="982.84" x2="536.31" y2="966.84"/>
	<line class="st0" x1="536.31" y1="1073.84" x2="536.31" y2="1057.84"/>
	<line class="st0" x1="536.31" y1="1164.84" x2="536.31" y2="1148.84"/>
	<line class="st0" x1="536.31" y1="1134.5" x2="536.31" y2="1118.5"/>
	<line class="st0" x1="536.31" y1="1104.17" x2="536.31" y2="1088.17"/>
	<line class="st0" x1="554.31" y1="861.5" x2="554.31" y2="845.5"/>
	<line class="st0" x1="554.31" y1="831.17" x2="554.31" y2="815.17"/>
	<line class="st0" x1="554.31" y1="800.84" x2="554.31" y2="784.84"/>
	<line class="st0" x1="554.31" y1="952.5" x2="554.31" y2="936.5"/>
	<line class="st0" x1="554.31" y1="922.17" x2="554.31" y2="906.17"/>
	<line class="st0" x1="554.31" y1="891.84" x2="554.31" y2="875.84"/>
	<line class="st0" x1="554.31" y1="1043.5" x2="554.31" y2="1027.5"/>
	<line class="st0" x1="554.31" y1="1013.17" x2="554.31" y2="997.17"/>
	<line class="st0" x1="554.31" y1="982.84" x2="554.31" y2="966.84"/>
	<line class="st0" x1="554.31" y1="1073.84" x2="554.31" y2="1057.84"/>
	<line class="st0" x1="554.31" y1="1164.84" x2="554.31" y2="1148.84"/>
	<line class="st0" x1="554.31" y1="1134.5" x2="554.31" y2="1118.5"/>
	<line class="st0" x1="554.31" y1="1104.17" x2="554.31" y2="1088.17"/>
	<line class="st0" x1="626.31" y1="861.5" x2="626.31" y2="845.5"/>
	<line class="st0" x1="626.31" y1="831.17" x2="626.31" y2="815.17"/>
	<line class="st0" x1="626.31" y1="800.84" x2="626.31" y2="784.84"/>
	<line class="st0" x1="626.31" y1="952.5" x2="626.31" y2="936.5"/>
	<line class="st0" x1="626.31" y1="922.17" x2="626.31" y2="906.17"/>
	<line class="st0" x1="626.31" y1="891.84" x2="626.31" y2="875.84"/>
	<line class="st0" x1="626.31" y1="1043.5" x2="626.31" y2="1027.5"/>
	<line class="st0" x1="626.31" y1="1013.17" x2="626.31" y2="997.17"/>
	<line class="st0" x1="626.31" y1="982.84" x2="626.31" y2="966.84"/>
	<line class="st0" x1="626.31" y1="1073.84" x2="626.31" y2="1057.84"/>
	<line class="st0" x1="626.31" y1="1164.84" x2="626.31" y2="1148.84"/>
	<line class="st0" x1="626.31" y1="1134.5" x2="626.31" y2="1118.5"/>
	<line class="st0" x1="626.31" y1="1104.17" x2="626.31" y2="1088.17"/>
	<line class="st0" x1="554.31" y1="770.5" x2="554.31" y2="754.5"/>
	<line class="st0" x1="554.31" y1="740.17" x2="554.31" y2="724.17"/>
	<line class="st0" x1="554.31" y1="709.84" x2="554.31" y2="693.84"/>
	<line class="st0" x1="554.31" y1="679.5" x2="554.31" y2="663.5"/>
	<line class="st0" x1="626.31" y1="770.5" x2="626.31" y2="754.5"/>
	<line class="st0" x1="626.31" y1="740.17" x2="626.31" y2="724.17"/>
	<line class="st0" x1="626.31" y1="709.84" x2="626.31" y2="693.84"/>
	<line class="st0" x1="626.31" y1="679.5" x2="626.31" y2="663.5"/>
	<polyline class="st0" points="644.31,663.5 572.31,663.5 572.31,1165.09 	"/>
	<path class="st1" d="M572.31,721.92c0,0,6.15,8.76,20.62,15.16c13.99,6.2,14.99,12.28,15.27,16.91c0.26,4.37,0,410.58,0,410.58
		h-35.88V721.92z"/>
	<path class="st0" d="M-1.23,519.54h499.58c11.05,0,20-8.95,20-20V0"/>
	<path class="st0" d="M518.35,1165.09V665.54c0-11.05-8.95-20-20-20H-1.23"/>
</g>
</svg>
