<?xml version="1.0" encoding="utf-8"?>
<!-- Generator: Adobe Illustrator 24.0.2, SVG Export Plug-In . SVG Version: 6.00 Build 0)  -->
<svg version="1.1" id="Layer_1" xmlns="http://www.w3.org/2000/svg" xmlns:xlink="http://www.w3.org/1999/xlink" x="0px" y="0px"
	 viewBox="0 0 1233.33 1252.42" style="enable-background:new 0 0 1233.33 1252.42;" xml:space="preserve">
<style type="text/css">
	.st0{fill:none;stroke:#231F20;stroke-miterlimit:10;}
	.st1{fill:#D1D3D4;stroke:#231F20;stroke-miterlimit:10;}
</style>
<g>
	<path class="st0" d="M1233.75,518.21H735.79c-11.05,0-20-8.95-20-20V0"/>
	<path class="st0" d="M1233.75,734.21H735.79c-11.05,0-20,8.95-20,20v498.21"/>
	<line class="st0" x1="779.88" y1="626.21" x2="733.54" y2="626.21"/>
	<line class="st0" x1="779.88" y1="644.21" x2="733.54" y2="644.21"/>
	<line class="st0" x1="840.54" y1="590.21" x2="824.54" y2="590.21"/>
	<line class="st0" x1="810.21" y1="590.21" x2="794.21" y2="590.21"/>
	<line class="st0" x1="779.88" y1="590.21" x2="763.88" y2="590.21"/>
	<line class="st0" x1="749.54" y1="590.21" x2="733.54" y2="590.21"/>
	<line class="st0" x1="840.54" y1="608.21" x2="824.54" y2="608.21"/>
	<line class="st0" x1="810.21" y1="608.21" x2="794.21" y2="608.21"/>
	<line class="st0" x1="779.88" y1="608.21" x2="763.88" y2="608.21"/>
	<line class="st0" x1="749.54" y1="608.21" x2="733.54" y2="608.21"/>
	<line class="st0" x1="840.54" y1="572.21" x2="824.54" y2="572.21"/>
	<line class="st0" x1="810.21" y1="572.21" x2="794.21" y2="572.21"/>
	<line class="st0" x1="779.88" y1="572.21" x2="763.88" y2="572.21"/>
	<line class="st0" x1="749.54" y1="572.21" x2="733.54" y2="572.21"/>
	<line class="st0" x1="931.17" y1="608.21" x2="915.17" y2="608.21"/>
	<line class="st0" x1="900.83" y1="608.21" x2="884.83" y2="608.21"/>
	<line class="st0" x1="870.5" y1="608.21" x2="854.5" y2="608.21"/>
	<line class="st0" x1="1022.17" y1="608.21" x2="1006.17" y2="608.21"/>
	<line class="st0" x1="991.83" y1="608.21" x2="975.83" y2="608.21"/>
	<line class="st0" x1="961.5" y1="608.21" x2="945.5" y2="608.21"/>
	<line class="st0" x1="1112.79" y1="608.21" x2="1096.79" y2="608.21"/>
	<line class="st0" x1="1082.46" y1="608.21" x2="1066.46" y2="608.21"/>
	<line class="st0" x1="1052.13" y1="608.21" x2="1036.13" y2="608.21"/>
	<line class="st0" x1="1143.13" y1="608.21" x2="1127.13" y2="608.21"/>
	<line class="st0" x1="1233.75" y1="608.21" x2="1217.75" y2="608.21"/>
	<line class="st0" x1="1203.42" y1="608.21" x2="1187.42" y2="608.21"/>
	<line class="st0" x1="1173.08" y1="608.21" x2="1157.08" y2="608.21"/>
	<line class="st0" x1="931.17" y1="590.21" x2="915.17" y2="590.21"/>
	<line class="st0" x1="900.83" y1="590.21" x2="884.83" y2="590.21"/>
	<line class="st0" x1="870.5" y1="590.21" x2="854.5" y2="590.21"/>
	<line class="st0" x1="1022.17" y1="590.21" x2="1006.17" y2="590.21"/>
	<line class="st0" x1="991.83" y1="590.21" x2="975.83" y2="590.21"/>
	<line class="st0" x1="961.5" y1="590.21" x2="945.5" y2="590.21"/>
	<line class="st0" x1="1112.79" y1="590.21" x2="1096.79" y2="590.21"/>
	<line class="st0" x1="1082.46" y1="590.21" x2="1066.46" y2="590.21"/>
	<line class="st0" x1="1052.13" y1="590.21" x2="1036.13" y2="590.21"/>
	<line class="st0" x1="1143.13" y1="590.21" x2="1127.13" y2="590.21"/>
	<line class="st0" x1="1233.75" y1="590.21" x2="1217.75" y2="590.21"/>
	<line class="st0" x1="1203.42" y1="590.21" x2="1187.42" y2="590.21"/>
	<line class="st0" x1="1173.08" y1="590.21" x2="1157.08" y2="590.21"/>
	<line class="st0" x1="931.17" y1="572.21" x2="915.17" y2="572.21"/>
	<line class="st0" x1="900.83" y1="572.21" x2="884.83" y2="572.21"/>
	<line class="st0" x1="870.5" y1="572.21" x2="854.5" y2="572.21"/>
	<line class="st0" x1="1022.17" y1="572.21" x2="1006.17" y2="572.21"/>
	<line class="st0" x1="991.83" y1="572.21" x2="975.83" y2="572.21"/>
	<line class="st0" x1="961.5" y1="572.21" x2="945.5" y2="572.21"/>
	<line class="st0" x1="1112.79" y1="572.21" x2="1096.79" y2="572.21"/>
	<line class="st0" x1="1082.46" y1="572.21" x2="1066.46" y2="572.21"/>
	<line class="st0" x1="1052.13" y1="572.21" x2="1036.13" y2="572.21"/>
	<line class="st0" x1="1143.13" y1="572.21" x2="1127.13" y2="572.21"/>
	<line class="st0" x1="1233.75" y1="572.21" x2="1217.75" y2="572.21"/>
	<line class="st0" x1="1203.42" y1="572.21" x2="1187.42" y2="572.21"/>
	<line class="st0" x1="1173.08" y1="572.21" x2="1157.08" y2="572.21"/>
	<line class="st0" x1="931.17" y1="554.21" x2="915.17" y2="554.21"/>
	<line class="st0" x1="900.83" y1="554.21" x2="884.83" y2="554.21"/>
	<line class="st0" x1="870.5" y1="554.21" x2="854.5" y2="554.21"/>
	<line class="st0" x1="1022.17" y1="554.21" x2="1006.17" y2="554.21"/>
	<line class="st0" x1="991.83" y1="554.21" x2="975.83" y2="554.21"/>
	<line class="st0" x1="961.5" y1="554.21" x2="945.5" y2="554.21"/>
	<line class="st0" x1="1112.79" y1="554.21" x2="1096.79" y2="554.21"/>
	<line class="st0" x1="1082.46" y1="554.21" x2="1066.46" y2="554.21"/>
	<line class="st0" x1="1052.13" y1="554.21" x2="1036.13" y2="554.21"/>
	<line class="st0" x1="1143.13" y1="554.21" x2="1127.13" y2="554.21"/>
	<line class="st0" x1="1233.75" y1="554.21" x2="1217.75" y2="554.21"/>
	<line class="st0" x1="1203.42" y1="554.21" x2="1187.42" y2="554.21"/>
	<line class="st0" x1="1173.08" y1="554.21" x2="1157.08" y2="554.21"/>
	<line class="st0" x1="931.17" y1="536.21" x2="915.17" y2="536.21"/>
	<line class="st0" x1="900.83" y1="536.21" x2="884.83" y2="536.21"/>
	<line class="st0" x1="870.5" y1="536.21" x2="854.5" y2="536.21"/>
	<line class="st0" x1="1022.17" y1="536.21" x2="1006.17" y2="536.21"/>
	<line class="st0" x1="991.83" y1="536.21" x2="975.83" y2="536.21"/>
	<line class="st0" x1="961.5" y1="536.21" x2="945.5" y2="536.21"/>
	<line class="st0" x1="1112.79" y1="536.21" x2="1096.79" y2="536.21"/>
	<line class="st0" x1="1082.46" y1="536.21" x2="1066.46" y2="536.21"/>
	<line class="st0" x1="1052.13" y1="536.21" x2="1036.13" y2="536.21"/>
	<line class="st0" x1="1143.13" y1="536.21" x2="1127.13" y2="536.21"/>
	<line class="st0" x1="1233.75" y1="536.21" x2="1217.75" y2="536.21"/>
	<line class="st0" x1="1203.42" y1="536.21" x2="1187.42" y2="536.21"/>
	<line class="st0" x1="1173.08" y1="536.21" x2="1157.08" y2="536.21"/>
	<g>
		<line class="st0" x1="840.54" y1="698.21" x2="824.54" y2="698.21"/>
		<line class="st0" x1="810.21" y1="698.21" x2="794.21" y2="698.21"/>
		<line class="st0" x1="779.88" y1="698.21" x2="763.88" y2="698.21"/>
		<line class="st0" x1="749.54" y1="698.21" x2="733.54" y2="698.21"/>
		<line class="st0" x1="840.54" y1="716.21" x2="824.54" y2="716.21"/>
		<line class="st0" x1="810.21" y1="716.21" x2="794.21" y2="716.21"/>
		<line class="st0" x1="779.88" y1="716.21" x2="763.88" y2="716.21"/>
		<line class="st0" x1="749.54" y1="716.21" x2="733.54" y2="716.21"/>
		<line class="st0" x1="931.17" y1="716.21" x2="915.17" y2="716.21"/>
		<line class="st0" x1="900.83" y1="716.21" x2="884.83" y2="716.21"/>
		<line class="st0" x1="870.5" y1="716.21" x2="854.5" y2="716.21"/>
		<line class="st0" x1="1022.17" y1="716.21" x2="1006.17" y2="716.21"/>
		<line class="st0" x1="991.83" y1="716.21" x2="975.83" y2="716.21"/>
		<line class="st0" x1="961.5" y1="716.21" x2="945.5" y2="716.21"/>
		<line class="st0" x1="1112.79" y1="716.21" x2="1096.79" y2="716.21"/>
		<line class="st0" x1="1082.46" y1="716.21" x2="1066.46" y2="716.21"/>
		<line class="st0" x1="1052.13" y1="716.21" x2="1036.13" y2="716.21"/>
		<line class="st0" x1="1143.13" y1="716.21" x2="1127.13" y2="716.21"/>
		<line class="st0" x1="1233.75" y1="716.21" x2="1217.75" y2="716.21"/>
		<line class="st0" x1="1203.42" y1="716.21" x2="1187.42" y2="716.21"/>
		<line class="st0" x1="1173.08" y1="716.21" x2="1157.08" y2="716.21"/>
		<line class="st0" x1="931.17" y1="698.21" x2="915.17" y2="698.21"/>
		<line class="st0" x1="900.83" y1="698.21" x2="884.83" y2="698.21"/>
		<line class="st0" x1="870.5" y1="698.21" x2="854.5" y2="698.21"/>
		<line class="st0" x1="1022.17" y1="698.21" x2="1006.17" y2="698.21"/>
		<line class="st0" x1="991.83" y1="698.21" x2="975.83" y2="698.21"/>
		<line class="st0" x1="961.5" y1="698.21" x2="945.5" y2="698.21"/>
		<line class="st0" x1="1112.79" y1="698.21" x2="1096.79" y2="698.21"/>
		<line class="st0" x1="1082.46" y1="698.21" x2="1066.46" y2="698.21"/>
		<line class="st0" x1="1052.13" y1="698.21" x2="1036.13" y2="698.21"/>
		<line class="st0" x1="1143.13" y1="698.21" x2="1127.13" y2="698.21"/>
		<line class="st0" x1="1233.75" y1="698.21" x2="1217.75" y2="698.21"/>
		<line class="st0" x1="1203.42" y1="698.21" x2="1187.42" y2="698.21"/>
		<line class="st0" x1="1173.08" y1="698.21" x2="1157.08" y2="698.21"/>
		<line class="st0" x1="931.17" y1="680.21" x2="915.17" y2="680.21"/>
		<line class="st0" x1="900.83" y1="680.21" x2="884.83" y2="680.21"/>
		<line class="st0" x1="870.5" y1="680.21" x2="854.5" y2="680.21"/>
		<line class="st0" x1="1022.17" y1="680.21" x2="1006.17" y2="680.21"/>
		<line class="st0" x1="991.83" y1="680.21" x2="975.83" y2="680.21"/>
		<line class="st0" x1="961.5" y1="680.21" x2="945.5" y2="680.21"/>
		<line class="st0" x1="1112.79" y1="680.21" x2="1096.79" y2="680.21"/>
		<line class="st0" x1="1082.46" y1="680.21" x2="1066.46" y2="680.21"/>
		<line class="st0" x1="1052.13" y1="680.21" x2="1036.13" y2="680.21"/>
		<line class="st0" x1="1143.13" y1="680.21" x2="1127.13" y2="680.21"/>
		<line class="st0" x1="1233.75" y1="680.21" x2="1217.75" y2="680.21"/>
		<line class="st0" x1="1203.42" y1="680.21" x2="1187.42" y2="680.21"/>
		<line class="st0" x1="1173.08" y1="680.21" x2="1157.08" y2="680.21"/>
		<line class="st0" x1="840.54" y1="680.21" x2="824.54" y2="680.21"/>
		<line class="st0" x1="810.21" y1="680.21" x2="794.21" y2="680.21"/>
		<line class="st0" x1="779.88" y1="680.21" x2="763.88" y2="680.21"/>
		<line class="st0" x1="749.54" y1="680.21" x2="733.54" y2="680.21"/>
	</g>
	<line class="st0" x1="840.54" y1="554.21" x2="824.54" y2="554.21"/>
	<line class="st0" x1="810.21" y1="554.21" x2="794.21" y2="554.21"/>
	<line class="st0" x1="779.88" y1="554.21" x2="763.88" y2="554.21"/>
	<line class="st0" x1="749.54" y1="554.21" x2="733.54" y2="554.21"/>
	<line class="st0" x1="840.54" y1="536.21" x2="824.54" y2="536.21"/>
	<line class="st0" x1="810.21" y1="536.21" x2="794.21" y2="536.21"/>
	<line class="st0" x1="779.88" y1="536.21" x2="763.88" y2="536.21"/>
	<line class="st0" x1="749.54" y1="536.21" x2="733.54" y2="536.21"/>
	<polyline class="st0" points="733.54,518.21 733.54,662.21 842.04,662.21 	"/>
	<path class="st1" d="M792.46,662.18c0,0,8.76-6.14,15.16-20.6c6.2-13.98,12.28-14.98,16.91-15.26c4.37-0.26,409.21,0,409.21,0
		v35.85H792.46z"/>
	<path class="st0" d="M-0.42,734.21h497.96c11.05,0,20,8.95,20,20v498.21"/>
	<path class="st0" d="M-0.42,518.21h497.96c11.05,0,20-8.95,20-20V0"/>
	<line class="st0" x1="453.46" y1="626.21" x2="499.79" y2="626.21"/>
	<line class="st0" x1="453.46" y1="608.21" x2="499.79" y2="608.21"/>
	<line class="st0" x1="392.79" y1="662.21" x2="408.79" y2="662.21"/>
	<line class="st0" x1="423.13" y1="662.21" x2="439.13" y2="662.21"/>
	<line class="st0" x1="453.46" y1="662.21" x2="469.46" y2="662.21"/>
	<line class="st0" x1="483.79" y1="662.21" x2="499.79" y2="662.21"/>
	<line class="st0" x1="392.79" y1="644.21" x2="408.79" y2="644.21"/>
	<line class="st0" x1="423.13" y1="644.21" x2="439.13" y2="644.21"/>
	<line class="st0" x1="453.46" y1="644.21" x2="469.46" y2="644.21"/>
	<line class="st0" x1="483.79" y1="644.21" x2="499.79" y2="644.21"/>
	<line class="st0" x1="392.79" y1="680.21" x2="408.79" y2="680.21"/>
	<line class="st0" x1="423.13" y1="680.21" x2="439.13" y2="680.21"/>
	<line class="st0" x1="453.46" y1="680.21" x2="469.46" y2="680.21"/>
	<line class="st0" x1="483.79" y1="680.21" x2="499.79" y2="680.21"/>
	<line class="st0" x1="392.79" y1="554.21" x2="408.79" y2="554.21"/>
	<line class="st0" x1="423.13" y1="554.21" x2="439.13" y2="554.21"/>
	<line class="st0" x1="453.46" y1="554.21" x2="469.46" y2="554.21"/>
	<line class="st0" x1="483.79" y1="554.21" x2="499.79" y2="554.21"/>
	<line class="st0" x1="392.79" y1="536.21" x2="408.79" y2="536.21"/>
	<line class="st0" x1="423.13" y1="536.21" x2="439.13" y2="536.21"/>
	<line class="st0" x1="453.46" y1="536.21" x2="469.46" y2="536.21"/>
	<line class="st0" x1="483.79" y1="536.21" x2="499.79" y2="536.21"/>
	<line class="st0" x1="302.17" y1="536.21" x2="318.17" y2="536.21"/>
	<line class="st0" x1="332.5" y1="536.21" x2="348.5" y2="536.21"/>
	<line class="st0" x1="362.83" y1="536.21" x2="378.83" y2="536.21"/>
	<line class="st0" x1="211.17" y1="536.21" x2="227.17" y2="536.21"/>
	<line class="st0" x1="241.5" y1="536.21" x2="257.5" y2="536.21"/>
	<line class="st0" x1="271.83" y1="536.21" x2="287.83" y2="536.21"/>
	<line class="st0" x1="120.54" y1="536.21" x2="136.54" y2="536.21"/>
	<line class="st0" x1="150.88" y1="536.21" x2="166.88" y2="536.21"/>
	<line class="st0" x1="181.21" y1="536.21" x2="197.21" y2="536.21"/>
	<line class="st0" x1="90.21" y1="536.21" x2="106.21" y2="536.21"/>
	<line class="st0" x1="-0.42" y1="536.21" x2="15.58" y2="536.21"/>
	<line class="st0" x1="29.92" y1="536.21" x2="45.92" y2="536.21"/>
	<line class="st0" x1="60.25" y1="536.21" x2="76.25" y2="536.21"/>
	<line class="st0" x1="302.17" y1="554.21" x2="318.17" y2="554.21"/>
	<line class="st0" x1="332.5" y1="554.21" x2="348.5" y2="554.21"/>
	<line class="st0" x1="362.83" y1="554.21" x2="378.83" y2="554.21"/>
	<line class="st0" x1="211.17" y1="554.21" x2="227.17" y2="554.21"/>
	<line class="st0" x1="241.5" y1="554.21" x2="257.5" y2="554.21"/>
	<line class="st0" x1="271.83" y1="554.21" x2="287.83" y2="554.21"/>
	<line class="st0" x1="120.54" y1="554.21" x2="136.54" y2="554.21"/>
	<line class="st0" x1="150.88" y1="554.21" x2="166.88" y2="554.21"/>
	<line class="st0" x1="181.21" y1="554.21" x2="197.21" y2="554.21"/>
	<line class="st0" x1="90.21" y1="554.21" x2="106.21" y2="554.21"/>
	<line class="st0" x1="-0.42" y1="554.21" x2="15.58" y2="554.21"/>
	<line class="st0" x1="29.92" y1="554.21" x2="45.92" y2="554.21"/>
	<line class="st0" x1="60.25" y1="554.21" x2="76.25" y2="554.21"/>
	<line class="st0" x1="302.17" y1="572.21" x2="318.17" y2="572.21"/>
	<line class="st0" x1="332.5" y1="572.21" x2="348.5" y2="572.21"/>
	<line class="st0" x1="362.83" y1="572.21" x2="378.83" y2="572.21"/>
	<line class="st0" x1="211.17" y1="572.21" x2="227.17" y2="572.21"/>
	<line class="st0" x1="241.5" y1="572.21" x2="257.5" y2="572.21"/>
	<line class="st0" x1="271.83" y1="572.21" x2="287.83" y2="572.21"/>
	<line class="st0" x1="120.54" y1="572.21" x2="136.54" y2="572.21"/>
	<line class="st0" x1="150.88" y1="572.21" x2="166.88" y2="572.21"/>
	<line class="st0" x1="181.21" y1="572.21" x2="197.21" y2="572.21"/>
	<line class="st0" x1="90.21" y1="572.21" x2="106.21" y2="572.21"/>
	<line class="st0" x1="-0.42" y1="572.21" x2="15.58" y2="572.21"/>
	<line class="st0" x1="29.92" y1="572.21" x2="45.92" y2="572.21"/>
	<line class="st0" x1="60.25" y1="572.21" x2="76.25" y2="572.21"/>
	<line class="st0" x1="302.17" y1="644.21" x2="318.17" y2="644.21"/>
	<line class="st0" x1="332.5" y1="644.21" x2="348.5" y2="644.21"/>
	<line class="st0" x1="362.83" y1="644.21" x2="378.83" y2="644.21"/>
	<line class="st0" x1="211.17" y1="644.21" x2="227.17" y2="644.21"/>
	<line class="st0" x1="241.5" y1="644.21" x2="257.5" y2="644.21"/>
	<line class="st0" x1="271.83" y1="644.21" x2="287.83" y2="644.21"/>
	<line class="st0" x1="120.54" y1="644.21" x2="136.54" y2="644.21"/>
	<line class="st0" x1="150.88" y1="644.21" x2="166.88" y2="644.21"/>
	<line class="st0" x1="181.21" y1="644.21" x2="197.21" y2="644.21"/>
	<line class="st0" x1="90.21" y1="644.21" x2="106.21" y2="644.21"/>
	<line class="st0" x1="-0.42" y1="644.21" x2="15.58" y2="644.21"/>
	<line class="st0" x1="29.92" y1="644.21" x2="45.92" y2="644.21"/>
	<line class="st0" x1="60.25" y1="644.21" x2="76.25" y2="644.21"/>
	<line class="st0" x1="302.17" y1="662.21" x2="318.17" y2="662.21"/>
	<line class="st0" x1="332.5" y1="662.21" x2="348.5" y2="662.21"/>
	<line class="st0" x1="362.83" y1="662.21" x2="378.83" y2="662.21"/>
	<line class="st0" x1="211.17" y1="662.21" x2="227.17" y2="662.21"/>
	<line class="st0" x1="241.5" y1="662.21" x2="257.5" y2="662.21"/>
	<line class="st0" x1="271.83" y1="662.21" x2="287.83" y2="662.21"/>
	<line class="st0" x1="120.54" y1="662.21" x2="136.54" y2="662.21"/>
	<line class="st0" x1="150.88" y1="662.21" x2="166.88" y2="662.21"/>
	<line class="st0" x1="181.21" y1="662.21" x2="197.21" y2="662.21"/>
	<line class="st0" x1="90.21" y1="662.21" x2="106.21" y2="662.21"/>
	<line class="st0" x1="-0.42" y1="662.21" x2="15.58" y2="662.21"/>
	<line class="st0" x1="29.92" y1="662.21" x2="45.92" y2="662.21"/>
	<line class="st0" x1="60.25" y1="662.21" x2="76.25" y2="662.21"/>
	<line class="st0" x1="302.17" y1="680.21" x2="318.17" y2="680.21"/>
	<line class="st0" x1="332.5" y1="680.21" x2="348.5" y2="680.21"/>
	<line class="st0" x1="362.83" y1="680.21" x2="378.83" y2="680.21"/>
	<line class="st0" x1="211.17" y1="680.21" x2="227.17" y2="680.21"/>
	<line class="st0" x1="241.5" y1="680.21" x2="257.5" y2="680.21"/>
	<line class="st0" x1="271.83" y1="680.21" x2="287.83" y2="680.21"/>
	<line class="st0" x1="120.54" y1="680.21" x2="136.54" y2="680.21"/>
	<line class="st0" x1="150.88" y1="680.21" x2="166.88" y2="680.21"/>
	<line class="st0" x1="181.21" y1="680.21" x2="197.21" y2="680.21"/>
	<line class="st0" x1="90.21" y1="680.21" x2="106.21" y2="680.21"/>
	<line class="st0" x1="-0.42" y1="680.21" x2="15.58" y2="680.21"/>
	<line class="st0" x1="29.92" y1="680.21" x2="45.92" y2="680.21"/>
	<line class="st0" x1="60.25" y1="680.21" x2="76.25" y2="680.21"/>
	<line class="st0" x1="302.17" y1="698.21" x2="318.17" y2="698.21"/>
	<line class="st0" x1="332.5" y1="698.21" x2="348.5" y2="698.21"/>
	<line class="st0" x1="362.83" y1="698.21" x2="378.83" y2="698.21"/>
	<line class="st0" x1="211.17" y1="698.21" x2="227.17" y2="698.21"/>
	<line class="st0" x1="241.5" y1="698.21" x2="257.5" y2="698.21"/>
	<line class="st0" x1="271.83" y1="698.21" x2="287.83" y2="698.21"/>
	<line class="st0" x1="120.54" y1="698.21" x2="136.54" y2="698.21"/>
	<line class="st0" x1="150.88" y1="698.21" x2="166.88" y2="698.21"/>
	<line class="st0" x1="181.21" y1="698.21" x2="197.21" y2="698.21"/>
	<line class="st0" x1="90.21" y1="698.21" x2="106.21" y2="698.21"/>
	<line class="st0" x1="-0.42" y1="698.21" x2="15.58" y2="698.21"/>
	<line class="st0" x1="29.92" y1="698.21" x2="45.92" y2="698.21"/>
	<line class="st0" x1="60.25" y1="698.21" x2="76.25" y2="698.21"/>
	<line class="st0" x1="302.17" y1="716.21" x2="318.17" y2="716.21"/>
	<line class="st0" x1="332.5" y1="716.21" x2="348.5" y2="716.21"/>
	<line class="st0" x1="362.83" y1="716.21" x2="378.83" y2="716.21"/>
	<line class="st0" x1="211.17" y1="716.21" x2="227.17" y2="716.21"/>
	<line class="st0" x1="241.5" y1="716.21" x2="257.5" y2="716.21"/>
	<line class="st0" x1="271.83" y1="716.21" x2="287.83" y2="716.21"/>
	<line class="st0" x1="120.54" y1="716.21" x2="136.54" y2="716.21"/>
	<line class="st0" x1="150.88" y1="716.21" x2="166.88" y2="716.21"/>
	<line class="st0" x1="181.21" y1="716.21" x2="197.21" y2="716.21"/>
	<line class="st0" x1="90.21" y1="716.21" x2="106.21" y2="716.21"/>
	<line class="st0" x1="-0.42" y1="716.21" x2="15.58" y2="716.21"/>
	<line class="st0" x1="29.92" y1="716.21" x2="45.92" y2="716.21"/>
	<line class="st0" x1="60.25" y1="716.21" x2="76.25" y2="716.21"/>
	<line class="st0" x1="392.79" y1="572.21" x2="408.79" y2="572.21"/>
	<line class="st0" x1="423.13" y1="572.21" x2="439.13" y2="572.21"/>
	<line class="st0" x1="453.46" y1="572.21" x2="469.46" y2="572.21"/>
	<line class="st0" x1="483.79" y1="572.21" x2="499.79" y2="572.21"/>
	<line class="st0" x1="392.79" y1="698.21" x2="408.79" y2="698.21"/>
	<line class="st0" x1="423.13" y1="698.21" x2="439.13" y2="698.21"/>
	<line class="st0" x1="453.46" y1="698.21" x2="469.46" y2="698.21"/>
	<line class="st0" x1="483.79" y1="698.21" x2="499.79" y2="698.21"/>
	<line class="st0" x1="392.79" y1="716.21" x2="408.79" y2="716.21"/>
	<line class="st0" x1="423.13" y1="716.21" x2="439.13" y2="716.21"/>
	<line class="st0" x1="453.46" y1="716.21" x2="469.46" y2="716.21"/>
	<line class="st0" x1="483.79" y1="716.21" x2="499.79" y2="716.21"/>
	<polyline class="st0" points="499.79,734.21 499.79,590.21 391.29,590.21 	"/>
	<path class="st1" d="M440.87,590.24c0,0-8.76,6.14-15.16,20.6c-6.2,13.98-12.28,14.98-16.91,15.26c-4.37,0.26-409.21,0-409.21,0
		v-35.85H440.87z"/>
	<line class="st0" x1="625.79" y1="798.54" x2="625.79" y2="752.21"/>
	<line class="st0" x1="607.79" y1="798.54" x2="607.79" y2="752.21"/>
	<line class="st0" x1="643.79" y1="859.21" x2="643.79" y2="843.21"/>
	<line class="st0" x1="643.79" y1="828.88" x2="643.79" y2="812.88"/>
	<line class="st0" x1="643.79" y1="798.54" x2="643.79" y2="782.54"/>
	<line class="st0" x1="643.79" y1="768.21" x2="643.79" y2="752.21"/>
	<line class="st0" x1="661.79" y1="859.21" x2="661.79" y2="843.21"/>
	<line class="st0" x1="661.79" y1="828.88" x2="661.79" y2="812.88"/>
	<line class="st0" x1="661.79" y1="798.54" x2="661.79" y2="782.54"/>
	<line class="st0" x1="661.79" y1="768.21" x2="661.79" y2="752.21"/>
	<line class="st0" x1="679.79" y1="859.21" x2="679.79" y2="843.21"/>
	<line class="st0" x1="679.79" y1="828.88" x2="679.79" y2="812.88"/>
	<line class="st0" x1="679.79" y1="798.54" x2="679.79" y2="782.54"/>
	<line class="st0" x1="679.79" y1="768.21" x2="679.79" y2="752.21"/>
	<line class="st0" x1="697.79" y1="859.21" x2="697.79" y2="843.21"/>
	<line class="st0" x1="697.79" y1="828.88" x2="697.79" y2="812.88"/>
	<line class="st0" x1="697.79" y1="798.54" x2="697.79" y2="782.54"/>
	<line class="st0" x1="697.79" y1="768.21" x2="697.79" y2="752.21"/>
	<polyline class="st0" points="715.79,752.21 589.79,752.21 589.79,860.71 	"/>
	<path class="st1" d="M589.81,810.63c0,0,6.14,8.76,20.6,15.16c13.98,6.2,14.98,12.28,15.26,16.91c0.26,4.37,0,409.71,0,409.71
		h-35.85V810.63z"/>
	<line class="st0" x1="553.79" y1="859.21" x2="553.79" y2="843.21"/>
	<line class="st0" x1="553.79" y1="828.88" x2="553.79" y2="812.88"/>
	<line class="st0" x1="553.79" y1="798.54" x2="553.79" y2="782.54"/>
	<line class="st0" x1="553.79" y1="768.21" x2="553.79" y2="752.21"/>
	<line class="st0" x1="535.79" y1="859.21" x2="535.79" y2="843.21"/>
	<line class="st0" x1="535.79" y1="828.88" x2="535.79" y2="812.88"/>
	<line class="st0" x1="535.79" y1="798.54" x2="535.79" y2="782.54"/>
	<line class="st0" x1="535.79" y1="768.21" x2="535.79" y2="752.21"/>
	<line class="st0" x1="535.79" y1="949.83" x2="535.79" y2="933.83"/>
	<line class="st0" x1="535.79" y1="919.5" x2="535.79" y2="903.5"/>
	<line class="st0" x1="535.79" y1="889.17" x2="535.79" y2="873.17"/>
	<line class="st0" x1="535.79" y1="1040.83" x2="535.79" y2="1024.83"/>
	<line class="st0" x1="535.79" y1="1010.5" x2="535.79" y2="994.5"/>
	<line class="st0" x1="535.79" y1="980.17" x2="535.79" y2="964.17"/>
	<line class="st0" x1="535.79" y1="1131.46" x2="535.79" y2="1115.46"/>
	<line class="st0" x1="535.79" y1="1101.13" x2="535.79" y2="1085.13"/>
	<line class="st0" x1="535.79" y1="1070.79" x2="535.79" y2="1054.79"/>
	<line class="st0" x1="535.79" y1="1161.79" x2="535.79" y2="1145.79"/>
	<line class="st0" x1="535.79" y1="1252.42" x2="535.79" y2="1236.42"/>
	<line class="st0" x1="535.79" y1="1222.08" x2="535.79" y2="1206.08"/>
	<line class="st0" x1="535.79" y1="1191.75" x2="535.79" y2="1175.75"/>
	<line class="st0" x1="553.79" y1="949.83" x2="553.79" y2="933.83"/>
	<line class="st0" x1="553.79" y1="919.5" x2="553.79" y2="903.5"/>
	<line class="st0" x1="553.79" y1="889.17" x2="553.79" y2="873.17"/>
	<line class="st0" x1="553.79" y1="1040.83" x2="553.79" y2="1024.83"/>
	<line class="st0" x1="553.79" y1="1010.5" x2="553.79" y2="994.5"/>
	<line class="st0" x1="553.79" y1="980.17" x2="553.79" y2="964.17"/>
	<line class="st0" x1="553.79" y1="1131.46" x2="553.79" y2="1115.46"/>
	<line class="st0" x1="553.79" y1="1101.13" x2="553.79" y2="1085.13"/>
	<line class="st0" x1="553.79" y1="1070.79" x2="553.79" y2="1054.79"/>
	<line class="st0" x1="553.79" y1="1161.79" x2="553.79" y2="1145.79"/>
	<line class="st0" x1="553.79" y1="1252.42" x2="553.79" y2="1236.42"/>
	<line class="st0" x1="553.79" y1="1222.08" x2="553.79" y2="1206.08"/>
	<line class="st0" x1="553.79" y1="1191.75" x2="553.79" y2="1175.75"/>
	<line class="st0" x1="571.79" y1="949.83" x2="571.79" y2="933.83"/>
	<line class="st0" x1="571.79" y1="919.5" x2="571.79" y2="903.5"/>
	<line class="st0" x1="571.79" y1="889.17" x2="571.79" y2="873.17"/>
	<line class="st0" x1="571.79" y1="1040.83" x2="571.79" y2="1024.83"/>
	<line class="st0" x1="571.79" y1="1010.5" x2="571.79" y2="994.5"/>
	<line class="st0" x1="571.79" y1="980.17" x2="571.79" y2="964.17"/>
	<line class="st0" x1="571.79" y1="1131.46" x2="571.79" y2="1115.46"/>
	<line class="st0" x1="571.79" y1="1101.13" x2="571.79" y2="1085.13"/>
	<line class="st0" x1="571.79" y1="1070.79" x2="571.79" y2="1054.79"/>
	<line class="st0" x1="571.79" y1="1161.79" x2="571.79" y2="1145.79"/>
	<line class="st0" x1="571.79" y1="1252.42" x2="571.79" y2="1236.42"/>
	<line class="st0" x1="571.79" y1="1222.08" x2="571.79" y2="1206.08"/>
	<line class="st0" x1="571.79" y1="1191.75" x2="571.79" y2="1175.75"/>
	<line class="st0" x1="643.79" y1="949.83" x2="643.79" y2="933.83"/>
	<line class="st0" x1="643.79" y1="919.5" x2="643.79" y2="903.5"/>
	<line class="st0" x1="643.79" y1="889.17" x2="643.79" y2="873.17"/>
	<line class="st0" x1="643.79" y1="1040.83" x2="643.79" y2="1024.83"/>
	<line class="st0" x1="643.79" y1="1010.5" x2="643.79" y2="994.5"/>
	<line class="st0" x1="643.79" y1="980.17" x2="643.79" y2="964.17"/>
	<line class="st0" x1="643.79" y1="1131.46" x2="643.79" y2="1115.46"/>
	<line class="st0" x1="643.79" y1="1101.13" x2="643.79" y2="1085.13"/>
	<line class="st0" x1="643.79" y1="1070.79" x2="643.79" y2="1054.79"/>
	<line class="st0" x1="643.79" y1="1161.79" x2="643.79" y2="1145.79"/>
	<line class="st0" x1="643.79" y1="1252.42" x2="643.79" y2="1236.42"/>
	<line class="st0" x1="643.79" y1="1222.08" x2="643.79" y2="1206.08"/>
	<line class="st0" x1="643.79" y1="1191.75" x2="643.79" y2="1175.75"/>
	<line class="st0" x1="661.79" y1="949.83" x2="661.79" y2="933.83"/>
	<line class="st0" x1="661.79" y1="919.5" x2="661.79" y2="903.5"/>
	<line class="st0" x1="661.79" y1="889.17" x2="661.79" y2="873.17"/>
	<line class="st0" x1="661.79" y1="1040.83" x2="661.79" y2="1024.83"/>
	<line class="st0" x1="661.79" y1="1010.5" x2="661.79" y2="994.5"/>
	<line class="st0" x1="661.79" y1="980.17" x2="661.79" y2="964.17"/>
	<line class="st0" x1="661.79" y1="1131.46" x2="661.79" y2="1115.46"/>
	<line class="st0" x1="661.79" y1="1101.13" x2="661.79" y2="1085.13"/>
	<line class="st0" x1="661.79" y1="1070.79" x2="661.79" y2="1054.79"/>
	<line class="st0" x1="661.79" y1="1161.79" x2="661.79" y2="1145.79"/>
	<line class="st0" x1="661.79" y1="1252.42" x2="661.79" y2="1236.42"/>
	<line class="st0" x1="661.79" y1="1222.08" x2="661.79" y2="1206.08"/>
	<line class="st0" x1="661.79" y1="1191.75" x2="661.79" y2="1175.75"/>
	<line class="st0" x1="679.79" y1="949.83" x2="679.79" y2="933.83"/>
	<line class="st0" x1="679.79" y1="919.5" x2="679.79" y2="903.5"/>
	<line class="st0" x1="679.79" y1="889.17" x2="679.79" y2="873.17"/>
	<line class="st0" x1="679.79" y1="1040.83" x2="679.79" y2="1024.83"/>
	<line class="st0" x1="679.79" y1="1010.5" x2="679.79" y2="994.5"/>
	<line class="st0" x1="679.79" y1="980.17" x2="679.79" y2="964.17"/>
	<line class="st0" x1="679.79" y1="1131.46" x2="679.79" y2="1115.46"/>
	<line class="st0" x1="679.79" y1="1101.13" x2="679.79" y2="1085.13"/>
	<line class="st0" x1="679.79" y1="1070.79" x2="679.79" y2="1054.79"/>
	<line class="st0" x1="679.79" y1="1161.79" x2="679.79" y2="1145.79"/>
	<line class="st0" x1="679.79" y1="1252.42" x2="679.79" y2="1236.42"/>
	<line class="st0" x1="679.79" y1="1222.08" x2="679.79" y2="1206.08"/>
	<line class="st0" x1="679.79" y1="1191.75" x2="679.79" y2="1175.75"/>
	<line class="st0" x1="697.79" y1="949.83" x2="697.79" y2="933.83"/>
	<line class="st0" x1="697.79" y1="919.5" x2="697.79" y2="903.5"/>
	<line class="st0" x1="697.79" y1="889.17" x2="697.79" y2="873.17"/>
	<line class="st0" x1="697.79" y1="1040.83" x2="697.79" y2="1024.83"/>
	<line class="st0" x1="697.79" y1="1010.5" x2="697.79" y2="994.5"/>
	<line class="st0" x1="697.79" y1="980.17" x2="697.79" y2="964.17"/>
	<line class="st0" x1="697.79" y1="1131.46" x2="697.79" y2="1115.46"/>
	<line class="st0" x1="697.79" y1="1101.13" x2="697.79" y2="1085.13"/>
	<line class="st0" x1="697.79" y1="1070.79" x2="697.79" y2="1054.79"/>
	<line class="st0" x1="697.79" y1="1161.79" x2="697.79" y2="1145.79"/>
	<line class="st0" x1="697.79" y1="1252.42" x2="697.79" y2="1236.42"/>
	<line class="st0" x1="697.79" y1="1222.08" x2="697.79" y2="1206.08"/>
	<line class="st0" x1="697.79" y1="1191.75" x2="697.79" y2="1175.75"/>
	<line class="st0" x1="571.79" y1="859.21" x2="571.79" y2="843.21"/>
	<line class="st0" x1="571.79" y1="828.88" x2="571.79" y2="812.88"/>
	<line class="st0" x1="571.79" y1="798.54" x2="571.79" y2="782.54"/>
	<line class="st0" x1="571.79" y1="768.21" x2="571.79" y2="752.21"/>
	<line class="st0" x1="607.54" y1="453.88" x2="607.54" y2="500.21"/>
	<line class="st0" x1="625.54" y1="453.88" x2="625.54" y2="500.21"/>
	<line class="st0" x1="589.54" y1="393.21" x2="589.54" y2="409.21"/>
	<line class="st0" x1="589.54" y1="423.54" x2="589.54" y2="439.54"/>
	<line class="st0" x1="589.54" y1="453.88" x2="589.54" y2="469.88"/>
	<line class="st0" x1="589.54" y1="484.21" x2="589.54" y2="500.21"/>
	<line class="st0" x1="571.54" y1="393.21" x2="571.54" y2="409.21"/>
	<line class="st0" x1="571.54" y1="423.54" x2="571.54" y2="439.54"/>
	<line class="st0" x1="571.54" y1="453.88" x2="571.54" y2="469.88"/>
	<line class="st0" x1="571.54" y1="484.21" x2="571.54" y2="500.21"/>
	<line class="st0" x1="553.54" y1="393.21" x2="553.54" y2="409.21"/>
	<line class="st0" x1="553.54" y1="423.54" x2="553.54" y2="439.54"/>
	<line class="st0" x1="553.54" y1="453.88" x2="553.54" y2="469.88"/>
	<line class="st0" x1="553.54" y1="484.21" x2="553.54" y2="500.21"/>
	<line class="st0" x1="535.54" y1="393.21" x2="535.54" y2="409.21"/>
	<line class="st0" x1="535.54" y1="423.54" x2="535.54" y2="439.54"/>
	<line class="st0" x1="535.54" y1="453.88" x2="535.54" y2="469.88"/>
	<line class="st0" x1="535.54" y1="484.21" x2="535.54" y2="500.21"/>
	<polyline class="st0" points="517.54,500.21 643.54,500.21 643.54,391.71 	"/>
	<path class="st1" d="M643.53,441.79c0,0-6.14-8.76-20.6-15.16c-13.98-6.2-14.98-12.28-15.26-16.91c-0.26-4.37,0-409.71,0-409.71
		l35.85,0V441.79z"/>
	<line class="st0" x1="679.54" y1="393.21" x2="679.54" y2="409.21"/>
	<line class="st0" x1="679.54" y1="423.54" x2="679.54" y2="439.54"/>
	<line class="st0" x1="679.54" y1="453.88" x2="679.54" y2="469.88"/>
	<line class="st0" x1="679.54" y1="484.21" x2="679.54" y2="500.21"/>
	<line class="st0" x1="697.54" y1="393.21" x2="697.54" y2="409.21"/>
	<line class="st0" x1="697.54" y1="423.54" x2="697.54" y2="439.54"/>
	<line class="st0" x1="697.54" y1="453.88" x2="697.54" y2="469.88"/>
	<line class="st0" x1="697.54" y1="484.21" x2="697.54" y2="500.21"/>
	<line class="st0" x1="697.54" y1="302.58" x2="697.54" y2="318.58"/>
	<line class="st0" x1="697.54" y1="332.92" x2="697.54" y2="348.92"/>
	<line class="st0" x1="697.54" y1="363.25" x2="697.54" y2="379.25"/>
	<line class="st0" x1="697.54" y1="211.58" x2="697.54" y2="227.58"/>
	<line class="st0" x1="697.54" y1="241.92" x2="697.54" y2="257.92"/>
	<line class="st0" x1="697.54" y1="272.25" x2="697.54" y2="288.25"/>
	<line class="st0" x1="697.54" y1="120.96" x2="697.54" y2="136.96"/>
	<line class="st0" x1="697.54" y1="151.29" x2="697.54" y2="167.29"/>
	<line class="st0" x1="697.54" y1="181.63" x2="697.54" y2="197.63"/>
	<line class="st0" x1="697.54" y1="90.63" x2="697.54" y2="106.63"/>
	<line class="st0" x1="697.54" y1="0" x2="697.54" y2="16"/>
	<line class="st0" x1="697.54" y1="30.33" x2="697.54" y2="46.33"/>
	<line class="st0" x1="697.54" y1="60.67" x2="697.54" y2="76.67"/>
	<line class="st0" x1="679.54" y1="302.58" x2="679.54" y2="318.58"/>
	<line class="st0" x1="679.54" y1="332.92" x2="679.54" y2="348.92"/>
	<line class="st0" x1="679.54" y1="363.25" x2="679.54" y2="379.25"/>
	<line class="st0" x1="679.54" y1="211.58" x2="679.54" y2="227.58"/>
	<line class="st0" x1="679.54" y1="241.92" x2="679.54" y2="257.92"/>
	<line class="st0" x1="679.54" y1="272.25" x2="679.54" y2="288.25"/>
	<line class="st0" x1="679.54" y1="120.96" x2="679.54" y2="136.96"/>
	<line class="st0" x1="679.54" y1="151.29" x2="679.54" y2="167.29"/>
	<line class="st0" x1="679.54" y1="181.63" x2="679.54" y2="197.63"/>
	<line class="st0" x1="679.54" y1="90.63" x2="679.54" y2="106.63"/>
	<line class="st0" x1="679.54" y1="0" x2="679.54" y2="16"/>
	<line class="st0" x1="679.54" y1="30.33" x2="679.54" y2="46.33"/>
	<line class="st0" x1="679.54" y1="60.67" x2="679.54" y2="76.67"/>
	<line class="st0" x1="661.54" y1="302.58" x2="661.54" y2="318.58"/>
	<line class="st0" x1="661.54" y1="332.92" x2="661.54" y2="348.92"/>
	<line class="st0" x1="661.54" y1="363.25" x2="661.54" y2="379.25"/>
	<line class="st0" x1="661.54" y1="211.58" x2="661.54" y2="227.58"/>
	<line class="st0" x1="661.54" y1="241.92" x2="661.54" y2="257.92"/>
	<line class="st0" x1="661.54" y1="272.25" x2="661.54" y2="288.25"/>
	<line class="st0" x1="661.54" y1="120.96" x2="661.54" y2="136.96"/>
	<line class="st0" x1="661.54" y1="151.29" x2="661.54" y2="167.29"/>
	<line class="st0" x1="661.54" y1="181.63" x2="661.54" y2="197.63"/>
	<line class="st0" x1="661.54" y1="90.63" x2="661.54" y2="106.63"/>
	<line class="st0" x1="661.54" y1="0" x2="661.54" y2="16"/>
	<line class="st0" x1="661.54" y1="30.33" x2="661.54" y2="46.33"/>
	<line class="st0" x1="661.54" y1="60.67" x2="661.54" y2="76.67"/>
	<line class="st0" x1="589.54" y1="302.58" x2="589.54" y2="318.58"/>
	<line class="st0" x1="589.54" y1="332.92" x2="589.54" y2="348.92"/>
	<line class="st0" x1="589.54" y1="363.25" x2="589.54" y2="379.25"/>
	<line class="st0" x1="589.54" y1="211.58" x2="589.54" y2="227.58"/>
	<line class="st0" x1="589.54" y1="241.92" x2="589.54" y2="257.92"/>
	<line class="st0" x1="589.54" y1="272.25" x2="589.54" y2="288.25"/>
	<line class="st0" x1="589.54" y1="120.96" x2="589.54" y2="136.96"/>
	<line class="st0" x1="589.54" y1="151.29" x2="589.54" y2="167.29"/>
	<line class="st0" x1="589.54" y1="181.63" x2="589.54" y2="197.63"/>
	<line class="st0" x1="589.54" y1="90.63" x2="589.54" y2="106.63"/>
	<line class="st0" x1="589.54" y1="0" x2="589.54" y2="16"/>
	<line class="st0" x1="589.54" y1="30.33" x2="589.54" y2="46.33"/>
	<line class="st0" x1="589.54" y1="60.67" x2="589.54" y2="76.67"/>
	<line class="st0" x1="571.54" y1="302.58" x2="571.54" y2="318.58"/>
	<line class="st0" x1="571.54" y1="332.92" x2="571.54" y2="348.92"/>
	<line class="st0" x1="571.54" y1="363.25" x2="571.54" y2="379.25"/>
	<line class="st0" x1="571.54" y1="211.58" x2="571.54" y2="227.58"/>
	<line class="st0" x1="571.54" y1="241.92" x2="571.54" y2="257.92"/>
	<line class="st0" x1="571.54" y1="272.25" x2="571.54" y2="288.25"/>
	<line class="st0" x1="571.54" y1="120.96" x2="571.54" y2="136.96"/>
	<line class="st0" x1="571.54" y1="151.29" x2="571.54" y2="167.29"/>
	<line class="st0" x1="571.54" y1="181.63" x2="571.54" y2="197.63"/>
	<line class="st0" x1="571.54" y1="90.63" x2="571.54" y2="106.63"/>
	<line class="st0" x1="571.54" y1="0" x2="571.54" y2="16"/>
	<line class="st0" x1="571.54" y1="30.33" x2="571.54" y2="46.33"/>
	<line class="st0" x1="571.54" y1="60.67" x2="571.54" y2="76.67"/>
	<line class="st0" x1="553.54" y1="302.58" x2="553.54" y2="318.58"/>
	<line class="st0" x1="553.54" y1="332.92" x2="553.54" y2="348.92"/>
	<line class="st0" x1="553.54" y1="363.25" x2="553.54" y2="379.25"/>
	<line class="st0" x1="553.54" y1="211.58" x2="553.54" y2="227.58"/>
	<line class="st0" x1="553.54" y1="241.92" x2="553.54" y2="257.92"/>
	<line class="st0" x1="553.54" y1="272.25" x2="553.54" y2="288.25"/>
	<line class="st0" x1="553.54" y1="120.96" x2="553.54" y2="136.96"/>
	<line class="st0" x1="553.54" y1="151.29" x2="553.54" y2="167.29"/>
	<line class="st0" x1="553.54" y1="181.63" x2="553.54" y2="197.63"/>
	<line class="st0" x1="553.54" y1="90.63" x2="553.54" y2="106.63"/>
	<line class="st0" x1="553.54" y1="0" x2="553.54" y2="16"/>
	<line class="st0" x1="553.54" y1="30.33" x2="553.54" y2="46.33"/>
	<line class="st0" x1="553.54" y1="60.67" x2="553.54" y2="76.67"/>
	<line class="st0" x1="535.54" y1="302.58" x2="535.54" y2="318.58"/>
	<line class="st0" x1="535.54" y1="332.92" x2="535.54" y2="348.92"/>
	<line class="st0" x1="535.54" y1="363.25" x2="535.54" y2="379.25"/>
	<line class="st0" x1="535.54" y1="211.58" x2="535.54" y2="227.58"/>
	<line class="st0" x1="535.54" y1="241.92" x2="535.54" y2="257.92"/>
	<line class="st0" x1="535.54" y1="272.25" x2="535.54" y2="288.25"/>
	<line class="st0" x1="535.54" y1="120.96" x2="535.54" y2="136.96"/>
	<line class="st0" x1="535.54" y1="151.29" x2="535.54" y2="167.29"/>
	<line class="st0" x1="535.54" y1="181.63" x2="535.54" y2="197.63"/>
	<line class="st0" x1="535.54" y1="90.63" x2="535.54" y2="106.63"/>
	<line class="st0" x1="535.54" y1="0" x2="535.54" y2="16"/>
	<line class="st0" x1="535.54" y1="30.33" x2="535.54" y2="46.33"/>
	<line class="st0" x1="535.54" y1="60.67" x2="535.54" y2="76.67"/>
	<line class="st0" x1="661.54" y1="393.21" x2="661.54" y2="409.21"/>
	<line class="st0" x1="661.54" y1="423.54" x2="661.54" y2="439.54"/>
	<line class="st0" x1="661.54" y1="453.88" x2="661.54" y2="469.88"/>
	<line class="st0" x1="661.54" y1="484.21" x2="661.54" y2="500.21"/>
</g>
</svg>
