<?xml version="1.0" encoding="utf-8"?>
<!-- Generator: Adobe Illustrator 24.0.2, SVG Export Plug-In . SVG Version: 6.00 Build 0)  -->
<svg version="1.1" id="Layer_1" xmlns="http://www.w3.org/2000/svg" xmlns:xlink="http://www.w3.org/1999/xlink" x="0px" y="0px"
	 viewBox="0 0 650 650" style="enable-background:new 0 0 650 650;" xml:space="preserve">
<style type="text/css">
	.st0{fill:#D1D3D4;stroke:#231F20;stroke-miterlimit:10;}
	.st1{fill:none;stroke:#231F20;stroke-miterlimit:10;}
</style>
<g>
	<g>
		<g>
			<path class="st0" d="M199,199c0,0,6.15,19.07,20.62,33.04c13.99,13.5,14.99,26.74,15.27,36.84c0.26,9.53,0,38.12,0,38.12H199V199
				z"/>
			<line class="st1" x1="91" y1="307" x2="91" y2="91"/>
			<polyline class="st1" points="199,307 199,91 307,91 307,307 			"/>
			<g>
				<line class="st1" x1="127" y1="91" x2="127" y2="123"/>
				<line class="st1" x1="127" y1="151" x2="127" y2="183"/>
				<line class="st1" x1="127" y1="211" x2="127" y2="243"/>
				<line class="st1" x1="127" y1="271" x2="127" y2="303"/>
			</g>
			<g>
				<line class="st1" x1="163" y1="91" x2="163" y2="123"/>
				<line class="st1" x1="163" y1="151" x2="163" y2="183"/>
				<line class="st1" x1="163" y1="211" x2="163" y2="243"/>
				<line class="st1" x1="163" y1="271" x2="163" y2="303"/>
			</g>
			<g>
				<line class="st1" x1="271" y1="91" x2="271" y2="123"/>
				<line class="st1" x1="271" y1="151" x2="271" y2="183"/>
				<line class="st1" x1="271" y1="211" x2="271" y2="243"/>
				<line class="st1" x1="271" y1="271" x2="271" y2="303"/>
			</g>
			<line class="st1" x1="235" y1="91" x2="235" y2="181"/>
		</g>
		<g>
			<path class="st0" d="M199,451c0,0-6.15-19.07-20.62-33.04c-13.99-13.5-14.99-26.74-15.27-36.84c-0.26-9.53,0-38.12,0-38.12H199
				V451z"/>
			<line class="st1" x1="307" y1="343" x2="307" y2="559"/>
			<polyline class="st1" points="199,343 199,559 91,559 91,343 			"/>
			<g>
				<line class="st1" x1="271" y1="559" x2="271" y2="527"/>
				<line class="st1" x1="271" y1="499" x2="271" y2="467"/>
				<line class="st1" x1="271" y1="439" x2="271" y2="407"/>
				<line class="st1" x1="271" y1="379" x2="271" y2="347"/>
			</g>
			<g>
				<line class="st1" x1="235" y1="559" x2="235" y2="527"/>
				<line class="st1" x1="235" y1="499" x2="235" y2="467"/>
				<line class="st1" x1="235" y1="439" x2="235" y2="407"/>
				<line class="st1" x1="235" y1="379" x2="235" y2="347"/>
			</g>
			<g>
				<line class="st1" x1="127" y1="559" x2="127" y2="527"/>
				<line class="st1" x1="127" y1="499" x2="127" y2="467"/>
				<line class="st1" x1="127" y1="439" x2="127" y2="407"/>
				<line class="st1" x1="127" y1="379" x2="127" y2="347"/>
			</g>
			<line class="st1" x1="163" y1="559" x2="163" y2="469"/>
		</g>
		<g>
			<path class="st0" d="M451,199c0,0-19.07,6.15-33.04,20.62c-13.5,13.99-26.74,14.99-36.84,15.27c-9.53,0.26-38.12,0-38.12,0V199
				H451z"/>
			<line class="st1" x1="343" y1="91" x2="559" y2="91"/>
			<polyline class="st1" points="343,199 559,199 559,307 343,307 			"/>
			<g>
				<line class="st1" x1="559" y1="127" x2="527" y2="127"/>
				<line class="st1" x1="499" y1="127" x2="467" y2="127"/>
				<line class="st1" x1="439" y1="127" x2="407" y2="127"/>
				<line class="st1" x1="379" y1="127" x2="347" y2="127"/>
			</g>
			<g>
				<line class="st1" x1="559" y1="163" x2="527" y2="163"/>
				<line class="st1" x1="499" y1="163" x2="467" y2="163"/>
				<line class="st1" x1="439" y1="163" x2="407" y2="163"/>
				<line class="st1" x1="379" y1="163" x2="347" y2="163"/>
			</g>
			<g>
				<line class="st1" x1="559" y1="271" x2="527" y2="271"/>
				<line class="st1" x1="499" y1="271" x2="467" y2="271"/>
				<line class="st1" x1="439" y1="271" x2="407" y2="271"/>
				<line class="st1" x1="379" y1="271" x2="347" y2="271"/>
			</g>
			<line class="st1" x1="559" y1="235" x2="469" y2="235"/>
		</g>
		<g>
			<path class="st0" d="M451,451c0,0,19.07-6.15,33.04-20.62c13.5-13.99,26.74-14.99,36.84-15.27c9.53-0.26,38.12,0,38.12,0V451H451
				z"/>
			<line class="st1" x1="559" y1="559" x2="343" y2="559"/>
			<polyline class="st1" points="559,451 343,451 343,343 559,343 			"/>
			<g>
				<line class="st1" x1="343" y1="523" x2="375" y2="523"/>
				<line class="st1" x1="403" y1="523" x2="435" y2="523"/>
				<line class="st1" x1="463" y1="523" x2="495" y2="523"/>
				<line class="st1" x1="523" y1="523" x2="555" y2="523"/>
			</g>
			<g>
				<line class="st1" x1="343" y1="487" x2="375" y2="487"/>
				<line class="st1" x1="403" y1="487" x2="435" y2="487"/>
				<line class="st1" x1="463" y1="487" x2="495" y2="487"/>
				<line class="st1" x1="523" y1="487" x2="555" y2="487"/>
			</g>
			<g>
				<line class="st1" x1="343" y1="379" x2="375" y2="379"/>
				<line class="st1" x1="403" y1="379" x2="435" y2="379"/>
				<line class="st1" x1="463" y1="379" x2="495" y2="379"/>
				<line class="st1" x1="523" y1="379" x2="555" y2="379"/>
			</g>
			<line class="st1" x1="343" y1="415" x2="433" y2="415"/>
		</g>
	</g>
	<g>
		<g>
			<path d="M189.03,34.8V24.06h1.46l5.64,8.43v-8.43h1.36V34.8h-1.46l-5.64-8.44v8.44H189.03z"/>
			<path d="M199.82,34.8V24.06h4.03c0.82,0,1.48,0.11,1.97,0.33c0.5,0.22,0.88,0.55,1.17,1c0.28,0.45,0.42,0.92,0.42,1.42
				c0,0.46-0.12,0.89-0.37,1.3c-0.25,0.41-0.63,0.73-1.13,0.98c0.65,0.19,1.15,0.52,1.5,0.97c0.35,0.46,0.52,1,0.52,1.63
				c0,0.5-0.11,0.97-0.32,1.4c-0.21,0.43-0.47,0.77-0.79,1s-0.7,0.41-1.18,0.53c-0.47,0.12-1.05,0.18-1.73,0.18H199.82z
				 M201.24,28.57h2.32c0.63,0,1.08-0.04,1.35-0.12c0.36-0.11,0.63-0.29,0.82-0.53c0.18-0.25,0.27-0.56,0.27-0.94
				c0-0.36-0.08-0.67-0.26-0.94c-0.17-0.27-0.42-0.46-0.73-0.56c-0.32-0.1-0.86-0.15-1.63-0.15h-2.15V28.57z M201.24,33.53h2.67
				c0.46,0,0.78-0.02,0.97-0.05c0.33-0.06,0.6-0.16,0.82-0.29c0.22-0.14,0.4-0.34,0.54-0.6s0.21-0.56,0.21-0.9
				c0-0.4-0.1-0.75-0.31-1.04s-0.49-0.5-0.85-0.62c-0.36-0.12-0.89-0.18-1.57-0.18h-2.48V33.53z"/>
		</g>
		<g>
			<path d="M188.97,622.31l1.34-0.12c0.06,0.54,0.21,0.98,0.44,1.32c0.23,0.34,0.59,0.62,1.08,0.83c0.49,0.21,1.04,0.32,1.65,0.32
				c0.54,0,1.02-0.08,1.44-0.24s0.72-0.38,0.93-0.66c0.2-0.28,0.3-0.59,0.3-0.92c0-0.34-0.1-0.63-0.29-0.88
				c-0.2-0.25-0.52-0.46-0.97-0.63c-0.29-0.11-0.93-0.29-1.91-0.52c-0.99-0.24-1.68-0.46-2.07-0.67c-0.51-0.27-0.89-0.6-1.15-1
				c-0.25-0.4-0.38-0.84-0.38-1.34c0-0.54,0.15-1.05,0.46-1.52c0.31-0.47,0.76-0.83,1.35-1.07s1.25-0.37,1.97-0.37
				c0.8,0,1.5,0.13,2.11,0.38c0.61,0.26,1.08,0.63,1.4,1.13s0.5,1.06,0.53,1.69l-1.36,0.1c-0.07-0.68-0.32-1.19-0.74-1.54
				c-0.42-0.35-1.05-0.52-1.87-0.52c-0.86,0-1.49,0.16-1.88,0.47c-0.39,0.31-0.59,0.69-0.59,1.14c0,0.39,0.14,0.7,0.42,0.95
				c0.27,0.25,0.99,0.5,2.14,0.77c1.15,0.26,1.95,0.49,2.38,0.68c0.62,0.29,1.09,0.65,1.38,1.09c0.3,0.44,0.45,0.95,0.45,1.53
				c0,0.57-0.16,1.11-0.49,1.62c-0.33,0.5-0.8,0.9-1.41,1.18c-0.61,0.28-1.3,0.42-2.07,0.42c-0.97,0-1.79-0.14-2.44-0.42
				c-0.66-0.28-1.17-0.71-1.54-1.28C189.19,623.67,188.99,623.02,188.97,622.31z"/>
			<path d="M199.4,625.76v-10.74h4.03c0.82,0,1.48,0.11,1.97,0.33c0.5,0.22,0.88,0.55,1.17,1c0.28,0.45,0.42,0.92,0.42,1.42
				c0,0.46-0.12,0.89-0.37,1.3c-0.25,0.41-0.63,0.73-1.13,0.98c0.65,0.19,1.15,0.51,1.5,0.97c0.35,0.46,0.52,1,0.52,1.63
				c0,0.5-0.11,0.97-0.32,1.4c-0.21,0.43-0.47,0.76-0.79,1s-0.7,0.41-1.18,0.53c-0.47,0.12-1.05,0.18-1.73,0.18H199.4z
				 M200.82,619.53h2.32c0.63,0,1.08-0.04,1.35-0.13c0.36-0.11,0.63-0.29,0.82-0.53c0.18-0.25,0.27-0.56,0.27-0.94
				c0-0.36-0.08-0.67-0.26-0.94c-0.17-0.27-0.42-0.46-0.73-0.56c-0.32-0.1-0.86-0.15-1.63-0.15h-2.15V619.53z M200.82,624.49h2.67
				c0.46,0,0.78-0.02,0.97-0.05c0.33-0.06,0.6-0.16,0.82-0.29c0.22-0.14,0.4-0.34,0.54-0.6c0.14-0.26,0.21-0.56,0.21-0.91
				c0-0.4-0.1-0.75-0.31-1.04c-0.21-0.3-0.49-0.5-0.85-0.62c-0.36-0.12-0.89-0.18-1.57-0.18h-2.48V624.49z"/>
		</g>
		<g>
			<path d="M441.48,34.8V24.06h7.76v1.27h-6.34v3.29h5.94v1.26h-5.94v3.65h6.59v1.27H441.48z"/>
			<path d="M451.4,34.8V24.06h4.03c0.82,0,1.48,0.11,1.97,0.33c0.5,0.22,0.88,0.55,1.17,1c0.28,0.45,0.42,0.92,0.42,1.42
				c0,0.46-0.12,0.89-0.37,1.3c-0.25,0.41-0.63,0.73-1.13,0.98c0.65,0.19,1.15,0.52,1.5,0.97c0.35,0.46,0.52,1,0.52,1.63
				c0,0.5-0.11,0.97-0.32,1.4c-0.21,0.43-0.47,0.77-0.79,1s-0.7,0.41-1.18,0.53c-0.47,0.12-1.05,0.18-1.73,0.18H451.4z
				 M452.82,28.57h2.32c0.63,0,1.08-0.04,1.35-0.12c0.36-0.11,0.63-0.29,0.82-0.53c0.18-0.25,0.27-0.56,0.27-0.94
				c0-0.36-0.08-0.67-0.26-0.94c-0.17-0.27-0.42-0.46-0.73-0.56c-0.32-0.1-0.86-0.15-1.63-0.15h-2.15V28.57z M452.82,33.53h2.67
				c0.46,0,0.78-0.02,0.97-0.05c0.33-0.06,0.6-0.16,0.82-0.29c0.22-0.14,0.4-0.34,0.54-0.6s0.21-0.56,0.21-0.9
				c0-0.4-0.1-0.75-0.31-1.04s-0.49-0.5-0.85-0.62c-0.36-0.12-0.89-0.18-1.57-0.18h-2.48V33.53z"/>
		</g>
		<g>
			<path d="M441.25,625.76l-2.85-10.74h1.46l1.63,7.04c0.18,0.74,0.33,1.47,0.46,2.2c0.27-1.15,0.43-1.81,0.48-1.98l2.04-7.25h1.71
				l1.54,5.43c0.39,1.35,0.66,2.61,0.83,3.8c0.14-0.68,0.31-1.46,0.54-2.34l1.68-6.9h1.43l-2.94,10.74h-1.37l-2.26-8.18
				c-0.19-0.68-0.3-1.1-0.34-1.26c-0.11,0.49-0.22,0.91-0.32,1.26l-2.28,8.18H441.25z"/>
			<path d="M453.48,625.76v-10.74h4.03c0.82,0,1.48,0.11,1.97,0.33c0.5,0.22,0.88,0.55,1.17,1c0.28,0.45,0.42,0.92,0.42,1.42
				c0,0.46-0.12,0.89-0.37,1.3c-0.25,0.41-0.63,0.73-1.13,0.98c0.65,0.19,1.15,0.51,1.5,0.97c0.35,0.46,0.52,1,0.52,1.63
				c0,0.5-0.11,0.97-0.32,1.4c-0.21,0.43-0.47,0.76-0.79,1s-0.7,0.41-1.18,0.53c-0.47,0.12-1.05,0.18-1.73,0.18H453.48z
				 M454.9,619.53h2.32c0.63,0,1.08-0.04,1.35-0.13c0.36-0.11,0.63-0.29,0.82-0.53c0.18-0.25,0.27-0.56,0.27-0.94
				c0-0.36-0.08-0.67-0.26-0.94c-0.17-0.27-0.42-0.46-0.73-0.56c-0.32-0.1-0.86-0.15-1.63-0.15h-2.15V619.53z M454.9,624.49h2.67
				c0.46,0,0.78-0.02,0.97-0.05c0.33-0.06,0.6-0.16,0.82-0.29c0.22-0.14,0.4-0.34,0.54-0.6c0.14-0.26,0.21-0.56,0.21-0.91
				c0-0.4-0.1-0.75-0.31-1.04c-0.21-0.3-0.49-0.5-0.85-0.62c-0.36-0.12-0.89-0.18-1.57-0.18h-2.48V624.49z"/>
		</g>
	</g>
</g>
</svg>
